<svg width="14" height="14" viewBox="0 0 14 14" fill="none" xmlns="http://www.w3.org/2000/svg">
<path d="M0.597349 4.53291H3.28982V13.2134H0.597349V4.53291ZM1.93823 0.224976C2.79639 0.224976 3.49364 0.925016 3.49364 1.7866C3.49364 2.64819 2.79639 3.34823 1.93823 3.34823C1.08006 3.34823 0.382812 2.64819 0.382812 1.7866C0.382812 0.925016 1.08006 0.224976 1.93823 0.224976Z" fill="white"/>
<path d="M4.96875 4.5329H7.54323V5.71758H7.5754C7.94012 5.03908 8.80902 4.3175 10.1177 4.3175C12.8424 4.3175 13.3358 6.11607 13.3358 8.45313V13.2134H10.6541V8.99162C10.6541 7.97925 10.6326 6.68687 9.25955 6.68687C7.8865 6.68687 7.6505 7.78539 7.6505 8.91623V13.2134H4.96875V4.5329Z" fill="white"/>
</svg>
