<svg width="15" height="16" viewBox="0 0 15 16" fill="none" xmlns="http://www.w3.org/2000/svg">
<path fill-rule="evenodd" clip-rule="evenodd" d="M0.264636 15.3765C0.350452 15.0534 0.414813 14.7842 0.489902 14.5042C0.736623 13.621 0.983342 12.7379 1.20861 11.844C1.24079 11.7148 1.23006 11.5317 1.1657 11.4132C-1.07624 7.12681 1.24079 1.93575 5.93922 0.826455C10.2086 -0.175141 14.0488 2.71118 14.7461 6.57755C15.4755 10.6162 12.8474 14.4503 8.85697 15.1503C7.26937 15.4304 5.75686 15.1934 4.30871 14.4826C4.17999 14.418 3.99763 14.3965 3.85818 14.4288C1.92732 14.9134 0.650806 15.2796 0.253906 15.355L0.264636 15.3765ZM1.9595 13.6964C2.68894 13.5026 3.35401 13.341 4.01909 13.1472C4.20145 13.0933 4.35162 13.1256 4.51253 13.2225C5.76759 13.9441 7.10847 14.2134 8.54589 13.9872C11.8498 13.4595 14.1132 10.347 13.609 7.04065C13.0834 3.61584 9.88676 1.3111 6.50775 1.93575C2.42076 2.68964 0.243179 7.26682 2.28131 10.8963C2.50658 11.2947 2.57094 11.6286 2.42077 12.0594C2.23841 12.5764 2.13113 13.1148 1.97023 13.6964H1.9595Z" fill="white"/>
<path fill-rule="evenodd" clip-rule="evenodd" d="M9.47756 11.4563C8.05086 11.4025 5.78747 10.2824 4.24278 7.57919C3.6957 6.62067 3.77079 5.52215 4.57531 4.76826C4.84349 4.50978 5.18676 4.5744 5.50857 4.62825C5.58366 4.63902 5.66947 4.75749 5.71238 4.85442C5.9162 5.32829 6.12 5.80216 6.30236 6.28681C6.39891 6.54528 6.22728 6.78222 5.85183 7.20224C5.73383 7.33148 5.71238 7.46072 5.7982 7.62227C6.39891 8.63463 7.22489 9.36698 8.32977 9.79778C8.49067 9.8624 8.60867 9.81932 8.71594 9.69008C9.2952 8.97927 9.35957 8.77464 9.65992 8.91465C11.1295 9.62546 11.2475 9.647 11.2475 9.81932C11.3011 11.0686 10.1641 11.5102 9.46684 11.4563H9.47756Z" fill="white"/>
</svg>
