<svg width="9" height="17" viewBox="0 0 9 17" fill="none" xmlns="http://www.w3.org/2000/svg">
<path fill-rule="evenodd" clip-rule="evenodd" d="M6.96547 3.36813C7.44819 3.35736 7.9309 3.36813 8.41362 3.36813H8.61743V0.84799C8.35998 0.82645 8.09181 0.783371 7.82363 0.772601C7.33019 0.751061 6.83675 0.729522 6.34331 0.740291C5.59241 0.751061 4.87371 0.944918 4.25154 1.38648C3.53283 1.90343 3.14666 2.63578 2.99648 3.4866C2.93212 3.84201 2.92139 4.20818 2.91066 4.56359C2.89994 5.12362 2.91066 5.69442 2.91066 6.25445V6.46985H0.507812V9.28078H2.88921V16.3566H5.80695V9.29155H8.18835C8.30635 8.35457 8.42435 7.42836 8.55307 6.46985C8.35998 6.46985 8.18835 6.46985 8.01672 6.46985C7.34092 6.46985 5.7855 6.46985 5.7855 6.46985C5.7855 6.46985 5.7855 5.08054 5.80695 4.46666C5.82841 3.63738 6.32185 3.38967 6.9762 3.35736L6.96547 3.36813Z" fill="white"/>
</svg>
