<svg width="16" height="13" viewBox="0 0 16 13" fill="none" xmlns="http://www.w3.org/2000/svg">
<path fill-rule="evenodd" clip-rule="evenodd" d="M4.84209 10.2533C3.22231 10.1994 2.21397 9.02551 1.9458 8.07777C2.39633 8.16392 2.83614 8.14238 3.28668 8.03469C3.2974 8.03469 3.30813 8.03469 3.32958 8.01315C2.44997 7.80852 1.77416 7.33465 1.30218 6.58076C0.991093 6.07457 0.840914 5.52531 0.840914 4.91143C1.28072 5.14837 1.74198 5.27761 2.2247 5.28838C1.55962 4.8145 1.11982 4.18985 0.937458 3.39288C0.755098 2.59591 0.873097 1.84203 1.27 1.12045C2.95414 3.11287 5.09954 4.21139 7.69548 4.39448C7.67402 4.27601 7.66329 4.15754 7.64184 4.04984C7.55602 3.31749 7.7062 2.62822 8.09237 2.00357C8.58582 1.21737 9.2938 0.732732 10.2056 0.592724C11.2568 0.420406 12.1686 0.721962 12.9303 1.46508C12.9839 1.51893 13.0268 1.5297 13.0912 1.51893C13.7348 1.37892 14.3355 1.15276 14.904 0.818891C14.9148 0.818891 14.9362 0.80812 14.9469 0.797351C14.9469 0.797351 14.9469 0.797351 14.9684 0.797351C14.7217 1.5297 14.2711 2.08973 13.6382 2.49899C14.2389 2.43437 14.8182 2.27282 15.376 2.02511C15.376 2.02511 15.376 2.02511 15.3867 2.03588C15.2687 2.19743 15.1507 2.34821 15.0328 2.50976C14.7002 2.91901 14.3248 3.27442 13.8957 3.58674C13.8635 3.60828 13.8421 3.64059 13.8421 3.68367C13.8635 4.14677 13.8421 4.60988 13.7884 5.07298C13.6704 6.04226 13.4022 6.96847 12.9839 7.86237C12.5548 8.77781 11.997 9.60708 11.2997 10.3287C10.109 11.5564 8.68236 12.3534 7.01967 12.7303C6.45114 12.8596 5.87188 12.9242 5.2819 12.935C3.47976 12.9888 1.8278 12.5365 0.293839 11.5887C0.272385 11.578 0.250931 11.5672 0.21875 11.5457C1.30218 11.6641 2.3427 11.5241 3.34031 11.1149C3.86593 10.8995 4.35938 10.6087 4.82064 10.2425L4.84209 10.2533Z" fill="white"/>
</svg>
