<svg width="15" height="15" viewBox="0 0 15 15" fill="none" xmlns="http://www.w3.org/2000/svg">
<path d="M14.3081 3.82208C14.2115 2.89587 13.8575 2.07736 13.171 1.4204C12.4523 0.731132 11.562 0.418807 10.5965 0.375727C8.94456 0.289569 5.0292 0.224949 3.64542 0.451116C2.06855 0.709592 1.03876 1.62503 0.609676 3.18666C0.277139 4.38211 0.341497 9.91781 0.534583 11.1025C0.802758 12.7287 1.75747 13.7626 3.35579 14.1827C4.46067 14.4735 9.90999 14.4304 11.1329 14.2365C12.7526 13.978 13.7932 13.0195 14.2115 11.4148C14.5333 10.1871 14.4153 4.94214 14.3081 3.83285V3.82208ZM13.0101 10.8656C12.817 12.0933 12.0125 12.858 10.7789 12.998C9.64182 13.1272 4.5894 13.1918 3.53815 12.9011C2.52981 12.621 1.96128 11.921 1.78964 10.9086C1.62874 9.93935 1.58583 5.09292 1.78964 3.78977C1.972 2.57278 2.78726 1.80812 4.01014 1.66811C5.25447 1.5281 9.72763 1.51733 10.9291 1.70042C12.1519 1.89428 12.9136 2.71278 13.0423 3.95132C13.171 5.10369 13.2032 9.62702 13.0101 10.8763V10.8656ZM7.39987 3.71438C5.41537 3.71438 3.79559 5.32986 3.79559 7.33305C3.79559 9.32547 5.40465 10.9517 7.39987 10.9517C9.38437 10.9517 11.0041 9.33624 11.0041 7.33305C11.0041 5.32986 9.39509 3.71438 7.39987 3.71438ZM7.37842 9.6701C6.09118 9.65933 5.06138 8.60389 5.07211 7.31151C5.08284 6.01912 6.13408 4.98522 7.42132 4.99599C8.70856 5.00676 9.73835 6.0622 9.72763 7.35459C9.7169 8.64697 8.66566 9.68087 7.37842 9.6701ZM11.991 3.58514C11.991 4.04824 11.6156 4.43596 11.1436 4.42519C10.6823 4.42519 10.2962 4.04824 10.3069 3.57437C10.3069 3.11127 10.6823 2.72355 11.1543 2.73432C11.6156 2.73432 12.0018 3.11127 11.991 3.58514Z" fill="white"/>
</svg>
