<svg width="34" height="34" viewBox="0 0 34 34" fill="none" xmlns="http://www.w3.org/2000/svg">
<path fill-rule="evenodd" clip-rule="evenodd" d="M22.5384 32.4156C21.2195 32.9074 19.8231 33.2367 18.3731 33.3828L21.6874 30.3636L22.5384 32.4156ZM14.98 33.3798C13.5434 33.2337 12.1605 32.9059 10.8537 32.4216L11.6971 30.3814L14.98 33.3798ZM20.7754 29.5125L16.6937 27.8241L12.6002 29.523L16.6777 33.2455L20.7758 29.511L20.7754 29.5125ZM6.08907 29.6884L10.5538 29.897L9.70584 31.9446C8.40186 31.3455 7.18738 30.5855 6.08907 29.6884ZM27.282 29.6944C26.1881 30.5855 24.9825 31.3425 23.686 31.9386L22.8395 29.897L27.2821 29.6958L27.282 29.6944ZM28.6441 22.8675L24.5665 24.5589L22.8736 28.6512L28.386 28.4008L28.6441 22.8675ZM4.9729 28.3915L10.5135 28.6508L8.81907 24.5661L4.72096 22.8703L4.97132 28.3917L4.9729 28.3915ZM11.8011 28.5078L15.0707 27.1517L10.4434 25.2367L11.7995 28.5078H11.8011ZM22.9436 25.2308L18.3194 27.1487L21.5905 28.5033L22.9436 25.2308ZM31.9464 23.672C31.3473 24.9805 30.5843 26.1965 29.6842 27.2977L29.8928 22.8228L31.9464 23.672ZM3.67922 27.2739C2.79104 26.183 2.03696 24.979 1.44235 23.687L3.47802 22.8435L3.6792 27.2754L3.67922 27.2739ZM16.6862 6.90119L9.76535 9.77134L6.9011 16.6948L9.7713 23.6155L16.6948 26.4797L23.6157 23.6095L26.4799 16.6861L23.6097 9.76539L16.6862 6.90119ZM4.876 21.5904L8.14858 22.9435L6.22915 18.3194L4.876 21.5904ZM28.5098 21.5799L27.1536 18.3104L25.2387 22.9376L28.5098 21.5815V21.5799ZM0 18.3894L3.00881 21.6917L0.964174 22.5411C0.475392 21.2267 0.144552 19.8349 0 18.3894ZM33.3816 18.3849C33.2355 19.8259 32.9092 21.2148 32.4219 22.5249L30.3743 21.6784L33.3816 18.3849ZM0.128185 16.6845L3.86425 20.7856L5.55569 16.6948L3.85681 12.6014L0.128185 16.6845ZM29.5127 12.6044L27.8243 16.6845L29.5202 20.7708L33.2413 16.6964L29.5127 12.6044ZM4.87142 11.8012L6.22755 15.0707L8.14251 10.4436L4.87142 11.7997V11.8012ZM25.2327 10.4376L27.1506 15.0618L28.5052 11.7907L25.2327 10.4376ZM32.4156 10.84C32.9074 12.1588 33.2367 13.5552 33.3828 15.0052L30.3635 11.6924L32.4171 10.84H32.4156ZM0.959482 10.8549L2.99816 11.6984L0.00125903 14.9813C0.147302 13.5448 0.475163 12.1602 0.959482 10.8549ZM3.68662 6.09649L3.47948 10.5524L1.43633 9.70744C2.03392 8.40646 2.79247 7.19494 3.6866 6.09813L3.68662 6.09649ZM29.6899 6.08904C30.5841 7.18287 31.3426 8.39294 31.9402 9.6924L29.8926 10.5418L29.6899 6.09053L29.6899 6.08904ZM4.98297 4.97732L4.72367 10.5151L8.81453 8.81927L10.5075 4.72694L4.98297 4.97732ZM22.8675 4.72846L24.5619 8.81162L28.6482 10.5015L28.3978 4.98471L22.8691 4.7269L22.8675 4.72846ZM10.4389 8.14701L15.0631 6.22763L11.792 4.87449L10.4389 8.14701ZM21.5814 4.87003L18.3118 6.22614L22.9391 8.14106L21.583 4.87003H21.5814ZM12.5966 3.86414L16.6875 5.55554L20.7738 3.85967L16.6936 0.132635L12.5985 3.86265L12.5966 3.86414ZM23.6751 1.43507C24.9791 2.03413 26.1937 2.79415 27.2935 3.69128L22.8272 3.48414L23.6751 1.43507ZM9.69493 1.44252L10.5414 3.48414L6.10032 3.68532C7.19268 2.79418 8.39839 2.03861 9.69493 1.44252ZM14.9944 0L11.6905 3.01024L10.841 0.964158C12.1554 0.475384 13.5473 0.144549 14.9929 0H14.9944ZM18.3862 0C19.8287 0.146041 21.2162 0.472408 22.5263 0.959694L21.6798 3.00727L18.3862 0Z" fill="black"/>
</svg>
