<svg width="57" height="27" viewBox="0 0 57 27" fill="none" xmlns="http://www.w3.org/2000/svg">
<path d="M11.2036 17.5041H25.8519C26.3437 17.5041 26.7772 17.2582 27.0328 16.8418C27.2885 16.4157 27.3055 15.9262 27.0791 15.4904L24.6905 10.8544C24.4543 10.3918 23.9819 10.0996 23.4632 10.0996H13.5947C13.0761 10.0996 12.6037 10.3821 12.3675 10.8544L9.97888 15.4904C9.75244 15.9238 9.77191 16.4254 10.0251 16.8418C10.2784 17.2582 10.7143 17.5041 11.2036 17.5041Z" fill="black"/>
<path d="M20.8194 8.29603H35.4677C35.9595 8.29603 36.3929 8.05011 36.6486 7.63375C36.9042 7.20764 36.9213 6.7182 36.6948 6.27264L34.3062 1.63663C34.07 1.174 33.5977 0.881836 33.079 0.881836H23.208C22.6893 0.881836 22.217 1.16428 21.9808 1.6269L19.5922 6.26292C19.3657 6.70607 19.3852 7.19791 19.6384 7.6143C19.8941 8.05014 20.3276 8.29603 20.8194 8.29603Z" fill="black"/>
<path d="M30.4341 17.5041H45.0824C45.5742 17.5041 46.0076 17.2582 46.2633 16.8418C46.5189 16.4157 46.536 15.9262 46.3095 15.4904L43.9209 10.8544C43.6847 10.3918 43.2124 10.0996 42.6937 10.0996H32.8252C32.3065 10.0996 31.8342 10.3821 31.5979 10.8544L29.2093 15.4904C28.9829 15.9238 29.0024 16.4254 29.2556 16.8418C29.5088 17.2582 29.9423 17.5041 30.4341 17.5041Z" fill="black"/>
<path d="M26.3438 10.1006L28.148 13.6044L29.9522 10.1006H26.3438Z" fill="black"/>
<path d="M35.959 19.3091L37.7632 22.8129L39.5747 19.3091H35.959Z" fill="black"/>
<path d="M34.3164 20.0537C34.0803 19.591 33.6079 19.3086 33.0892 19.3086H23.2207C22.702 19.3086 22.2297 19.591 21.9935 20.0537L19.6049 24.6897C19.3784 25.1328 19.3979 25.6247 19.6511 26.0508C19.9068 26.4769 20.3402 26.7131 20.832 26.7131H35.4902C35.9821 26.7131 36.4155 26.4671 36.6711 26.0508C36.9268 25.6247 36.9438 25.1352 36.7174 24.6994L34.3164 20.0537Z" fill="black"/>
<path d="M16.7207 19.3091L18.5322 22.8129L20.3365 19.3091H16.7207Z" fill="black"/>
<path d="M55.9326 24.6926L53.544 20.0566C53.3078 19.594 52.8354 19.3115 52.3168 19.3115H42.4482C41.9296 19.3115 41.4572 19.594 41.221 20.0566L38.8324 24.6926C38.606 25.1358 38.6254 25.6276 38.8787 26.0537C39.1343 26.4798 39.5677 26.716 40.0596 26.716H54.7178C55.2096 26.716 55.6431 26.4701 55.8987 26.0537C56.1519 25.6276 56.159 25.1357 55.9326 24.6926Z" fill="black"/>
<path d="M15.0877 20.0537C14.8515 19.591 14.3792 19.3086 13.8605 19.3086H3.97946C3.46083 19.3086 2.98849 19.591 2.75224 20.0537L0.363644 24.6897C0.137201 25.1328 0.15668 25.6247 0.409907 26.0508C0.665572 26.4769 1.099 26.7131 1.59081 26.7131H16.249C16.7409 26.7131 17.1743 26.4671 17.4299 26.0508C17.6856 25.6247 17.7026 25.1352 17.4762 24.6994L15.0877 20.0537Z" fill="black"/>
</svg>
