<svg width="49" height="46" viewBox="0 0 49 46" fill="none" xmlns="http://www.w3.org/2000/svg">
<rect x="8.06543" y="32.9186" width="4.52197" height="10.2302" fill="#C5A253"/>
<rect x="25.2637" y="28.2893" width="4.52197" height="10.2302" fill="#C5A253"/>
<rect x="42.7686" y="18.9824" width="4.52197" height="10.2302" fill="#C5A253"/>
<path d="M12.0134 31.7646H11.1703V30.5434C11.1703 30.1788 10.8752 29.8837 10.5106 29.8837C10.146 29.8837 9.85082 30.1788 9.85082 30.5434V31.7646H9.00586C8.01235 31.7646 7.20211 32.5806 7.20211 33.5838V42.19C7.20211 43.1912 8.01042 44.0073 9.00586 44.0073H9.85082V45.2285C9.85082 45.5931 10.146 45.8882 10.5106 45.8882C10.8752 45.8882 11.1703 45.593 11.1703 45.2285V44.0073H12.0134C13.0088 44.0073 13.8191 43.1932 13.8191 42.19L13.821 33.5838C13.821 32.5807 13.0108 31.7646 12.0134 31.7646ZM12.5015 42.1897C12.5015 42.4598 12.2777 42.6893 12.0134 42.6893H9.00967C8.74537 42.6893 8.52351 42.4617 8.52351 42.1897V33.5835C8.52351 33.3077 8.74151 33.082 9.00967 33.082H12.0134C12.2777 33.082 12.5015 33.3115 12.5015 33.5835V42.1897ZM10.3176 27.5569H2.51005C2.14544 27.5569 1.8503 27.2617 1.8503 26.8971C1.8503 26.5325 2.14546 26.2373 2.51005 26.2373H10.0396L17.4901 18.6095C17.6135 18.4822 17.7833 18.4108 17.9608 18.4108H34.3414L45.7488 3.41355L43.5939 4.10225C43.2466 4.21414 42.8762 4.02123 42.7662 3.6759C42.6544 3.32866 42.8473 2.95827 43.1926 2.84828L47.3345 1.52294C47.3461 1.51908 47.3596 1.51715 47.3712 1.51329L47.3943 1.5075C47.4078 1.50364 47.4213 1.50172 47.4348 1.49979C47.4464 1.49786 47.458 1.49593 47.4696 1.49593C47.4811 1.494 47.4927 1.494 47.5043 1.49207C47.5255 1.49014 47.5467 1.49014 47.5699 1.49207H47.5737C47.6007 1.494 47.6258 1.49593 47.6528 1.50172C47.7531 1.51908 47.8515 1.55959 47.9383 1.62518C48.137 1.77758 48.2258 2.02066 48.1911 2.25215L47.9094 6.57927C47.8863 6.92845 47.5969 7.19468 47.2516 7.19468C47.2381 7.19468 47.2226 7.19468 47.2091 7.19275C46.8465 7.1696 46.5706 6.85515 46.5937 6.49245L46.7365 4.2932L35.1943 19.4698C35.0689 19.6338 34.876 19.7302 34.6696 19.7302H18.2386L10.7881 27.358C10.6646 27.4853 10.4951 27.5569 10.3176 27.5569ZM20.6676 23.4824H19.8227V22.2613C19.8227 21.8967 19.5275 21.6015 19.1629 21.6015C18.7983 21.6015 18.5031 21.8967 18.5031 22.2613V23.4824H17.6601C16.6647 23.4824 15.8544 24.2965 15.8544 25.2997L15.8564 33.9059C15.8564 34.9071 16.6666 35.7232 17.662 35.7232H18.5051V36.9482C18.5051 37.3128 18.8002 37.608 19.1648 37.608C19.5294 37.608 19.8246 37.3128 19.8246 36.9482V35.7232H20.6695C21.6631 35.7232 22.4733 34.9091 22.4733 33.9059L22.4714 25.2997C22.4714 24.2985 21.6631 23.4824 20.6676 23.4824ZM21.1538 33.9055C21.1538 34.1814 20.9358 34.4052 20.6676 34.4052H17.6639C17.3938 34.4052 17.1758 34.1814 17.1758 33.9055V25.2994C17.1758 25.0235 17.3958 24.7997 17.6639 24.7997H20.6676C20.9358 24.7997 21.1538 25.0235 21.1538 25.2994V33.9055ZM29.3219 27.464H28.4769V26.2428C28.4769 25.8782 28.1817 25.5831 27.8171 25.5831C27.4525 25.5831 27.1574 25.8782 27.1574 26.2428V27.464H26.3182C25.3228 27.464 24.5125 28.2781 24.5125 29.2813V37.8874C24.5125 38.8887 25.3228 39.7047 26.3182 39.7047H27.1612V40.9298C27.1612 41.2944 27.4564 41.5895 27.821 41.5895C28.1856 41.5895 28.4807 41.2944 28.4807 40.9298V39.7047H29.3257C30.3192 39.7047 31.1295 38.8906 31.1295 37.8874L31.1275 29.2793C31.1256 28.2781 30.3173 27.464 29.3219 27.464ZM29.808 37.8856C29.808 38.1615 29.59 38.3853 29.3219 38.3853H26.3181C26.0481 38.3853 25.8301 38.1615 25.8301 37.8856V29.2795C25.8301 29.0036 26.05 28.7798 26.3181 28.7798H29.3219C29.59 28.7798 29.808 29.0036 29.808 29.2795V37.8856ZM37.9741 23.2355H37.1311V22.0143C37.1311 21.6497 36.8359 21.3546 36.4713 21.3546C36.1067 21.3546 35.8116 21.6497 35.8116 22.0143V23.2355H34.9666C33.9731 23.2355 33.1628 24.0496 33.1628 25.0528V33.6589C33.1628 34.6621 33.9712 35.4782 34.9666 35.4782H35.8116V36.6993C35.8116 37.064 36.1067 37.3591 36.4713 37.3591C36.8359 37.3591 37.1311 37.0639 37.1311 36.6993V35.4782H37.9741C38.9696 35.4782 39.7798 34.6621 39.7798 33.6589V25.0508C39.7798 24.0496 38.9696 23.2355 37.9741 23.2355ZM38.4622 33.6571C38.4622 33.9291 38.2384 34.1587 37.9741 34.1587H34.9704C34.7023 34.1587 34.4843 33.933 34.4843 33.6571V25.051C34.4843 24.7751 34.7023 24.5513 34.9704 24.5513H37.9741C38.2442 24.5513 38.4622 24.7751 38.4622 25.051V33.6571ZM46.6283 17.8207H45.7853V16.5996C45.7853 16.2349 45.4901 15.9398 45.1255 15.9398C44.7609 15.9398 44.4658 16.235 44.4658 16.5996V17.8207H43.6208C42.6273 17.8207 41.817 18.6368 41.817 19.64V28.2461C41.817 29.2473 42.6254 30.0634 43.6208 30.0634H44.4658V31.2846C44.4658 31.6492 44.7609 31.9443 45.1255 31.9443C45.4901 31.9443 45.7853 31.6492 45.7853 31.2846V30.0634H46.6283C47.6237 30.0634 48.434 29.2493 48.434 28.2461V19.64C48.434 18.6368 47.6237 17.8207 46.6283 17.8207ZM47.1164 28.2458C47.1164 28.5217 46.8965 28.7455 46.6283 28.7455H43.6246C43.3564 28.7455 43.1384 28.5217 43.1384 28.2458L43.1365 19.6397C43.1365 19.3638 43.3545 19.1381 43.6227 19.1381H46.6264C46.8907 19.1381 47.1145 19.3677 47.1145 19.6397L47.1164 28.2458ZM6.83353 11.5061V11.2052C6.83353 10.8406 7.1287 10.5454 7.49329 10.5454C7.85791 10.5454 8.15305 10.8406 8.15305 11.2052V11.5061C8.15305 11.8708 7.85789 12.1659 7.49329 12.1659C7.12868 12.164 6.83353 11.8688 6.83353 11.5061ZM4.90824 22.9155L0.737374 17.7625C0.577252 17.5657 0.546385 17.2937 0.654419 17.0641C0.764384 16.8345 0.995884 16.6898 1.24859 16.6898H2.68585V13.9793C2.68585 13.6147 2.98101 13.3196 3.34561 13.3196C3.7102 13.3196 4.00536 13.6147 4.00536 13.9793V17.3477C4.00536 17.7123 3.7102 18.0074 3.34561 18.0074H2.62989L5.41946 21.4549L8.21095 18.0074H7.49331C7.1287 18.0074 6.83355 17.7123 6.83355 17.3477V13.9465C6.83355 13.5819 7.12872 13.2868 7.49331 13.2868C7.85792 13.2868 8.15307 13.5819 8.15307 13.9465V16.6898H9.59417C9.84882 16.6898 10.0784 16.8365 10.1883 17.0641C10.2983 17.2937 10.2655 17.5657 10.1054 17.7625L5.9326 22.9175C5.8072 23.0718 5.62008 23.1625 5.42135 23.1625C5.22071 23.1605 5.03173 23.0698 4.90824 22.9155ZM25.4057 6.81637C25.2958 6.5868 25.3286 6.3148 25.4887 6.11799L29.6615 0.964974C29.7869 0.81064 29.974 0.719971 30.1727 0.719971C30.3714 0.719971 30.5605 0.81064 30.6859 0.964974L34.8568 6.11997C35.0169 6.31675 35.0478 6.58876 34.9397 6.81835C34.8298 7.04792 34.5983 7.19261 34.3456 7.19261H32.9083V9.9031C32.9083 10.2677 32.6131 10.5629 32.2486 10.5629C31.8839 10.5629 31.5888 10.2677 31.5888 9.9031V6.53477C31.5888 6.17016 31.884 5.87502 32.2486 5.87502H32.9643L30.1747 2.42757L27.3832 5.87502H28.1009C28.4655 5.87502 28.7606 6.17018 28.7606 6.53477V9.9359C28.7606 10.3005 28.4654 10.5957 28.1009 10.5957C27.7363 10.5957 27.4411 10.3005 27.4411 9.9359V7.19261H26C25.7473 7.19261 25.5157 7.04594 25.4057 6.81637ZM28.7606 12.3744V12.6753C28.7606 13.0399 28.4654 13.3351 28.1008 13.3351C27.7362 13.3351 27.4411 13.0399 27.4411 12.6753V12.3744C27.4411 12.0098 27.7362 11.7146 28.1008 11.7146C28.4654 11.7165 28.7606 12.0117 28.7606 12.3744Z" fill="black"/>
</svg>
