<svg width="38" height="44" viewBox="0 0 38 44" fill="none" xmlns="http://www.w3.org/2000/svg">
<path d="M30.2142 18.9386C30.2142 12.8402 25.2514 7.87927 19.153 7.87927C13.0527 7.87927 8.0918 12.8402 8.0918 18.9386C8.0918 25.037 13.0546 29.9998 19.153 29.9998C25.2514 29.9998 30.2142 25.037 30.2142 18.9386ZM19.153 28.6406C13.8028 28.6406 9.44901 24.2884 9.44901 18.9386C9.44901 13.5902 13.8012 9.23839 19.153 9.23839C24.5032 9.23839 28.857 13.5906 28.857 18.9386C28.857 24.2888 24.5047 28.6406 19.153 28.6406Z" fill="white"/>
<path d="M37.8775 38.0859L31.8124 27.5813C32.034 27.3431 32.3113 27.1513 32.639 27.0173L33.983 26.4644C35.0049 26.0418 35.7272 25.2637 36.0716 24.2101C36.4123 23.1565 36.2857 22.101 35.7049 21.1591L34.9435 19.9211C34.4725 19.1523 34.4725 18.2718 34.9435 17.5049L35.7049 16.2669C36.2857 15.325 36.4123 14.2695 36.0697 13.2141C35.7253 12.1586 35.0031 11.3786 33.9811 10.9597L32.6371 10.405C31.8031 10.0606 31.2856 9.34953 31.2167 8.45223L31.1069 7.00209C31.0213 5.89635 30.5038 4.96932 29.6084 4.31964C28.7149 3.6681 27.6724 3.46147 26.5946 3.72023L25.1798 4.06462C24.3031 4.27683 23.4672 4.00505 22.8827 3.31815L21.9408 2.21055C21.2241 1.3673 20.2598 0.920532 19.1522 0.920532C18.0445 0.920532 17.0803 1.3673 16.3636 2.21055L15.4216 3.31815C14.839 4.00505 14.0013 4.27683 13.1245 4.06462L11.7098 3.72023C10.6319 3.46148 9.59134 3.66811 8.69781 4.31778C7.80242 4.96746 7.28303 5.89449 7.19744 7.00023L7.08761 8.44852C7.01874 9.34577 6.50122 10.0587 5.66726 10.4013L4.3251 10.956C3.29756 11.3767 2.57526 12.1567 2.23462 13.2122C1.89396 14.2658 2.01868 15.3195 2.59762 16.2632L3.36086 17.4993C3.83182 18.2681 3.83182 19.1486 3.36272 19.9155L2.59762 21.1553C2.01871 22.0973 1.89395 23.1528 2.23462 24.2045C2.5753 25.2562 3.29757 26.0363 4.3251 26.4607L5.66912 27.0136C5.99675 27.1476 6.2741 27.3412 6.49565 27.5776L0.430594 38.0822C0.309594 38.2926 0.309594 38.5513 0.430594 38.7617C0.551595 38.972 0.776837 39.1005 1.01885 39.1005H6.0617L8.58222 43.4676C8.70322 43.678 8.92846 43.8064 9.17047 43.8064C9.41247 43.8064 9.63772 43.6761 9.75873 43.4676L15.2653 33.9309C15.3211 33.9849 15.3751 34.0407 15.4254 34.1003L16.3673 35.2079C17.084 36.0512 18.0482 36.4979 19.1559 36.4979C20.2635 36.4979 21.2278 36.0512 21.9445 35.2079L22.8864 34.1003C22.9367 34.0407 22.9907 33.9849 23.0465 33.9309L28.5511 43.4676C28.6721 43.678 28.8955 43.8064 29.1394 43.8064C29.3814 43.8064 29.6066 43.678 29.7276 43.4676L30.6565 41.863L32.2519 39.0986H37.2947C37.5367 39.0986 37.762 38.9683 37.883 38.7598C38.004 38.5495 38.004 38.2907 37.883 38.0803L37.8775 38.0859ZM9.16725 41.7755L7.03955 38.0878C6.91855 37.8774 6.69331 37.749 6.4513 37.749H2.19213L7.10632 29.2364L7.19753 30.424C7.28316 31.5298 7.80066 32.4568 8.69604 33.1065C9.59144 33.758 10.6339 33.9647 11.7098 33.704L13.1246 33.3634C13.4429 33.287 13.7557 33.274 14.0517 33.3206L9.16893 41.7774L9.16725 41.7755ZM21.8497 33.2271L20.9077 34.3347C20.4498 34.8727 19.8597 35.1463 19.1542 35.1463C18.4486 35.1463 17.8567 34.8727 17.4006 34.3347L16.4587 33.2271C15.7438 32.3876 14.7554 31.9315 13.6999 31.9315C13.4057 31.9315 13.106 31.9668 12.8045 32.0394L11.3897 32.382C10.7028 32.5476 10.0662 32.4229 9.49464 32.0059C8.92316 31.5927 8.60669 31.0249 8.55269 30.3194L8.44286 28.8692C8.39447 28.2475 8.20273 27.6723 7.88997 27.179C7.87694 27.1585 7.86391 27.138 7.84902 27.1175C7.45623 26.5237 6.88848 26.0509 6.18481 25.7605L4.8408 25.2076C4.18554 24.9376 3.74249 24.4592 3.52657 23.7891C3.30877 23.117 3.38509 22.4693 3.75367 21.8699L4.51877 20.6301C5.25595 19.4294 5.25595 17.9942 4.51691 16.7916L3.75367 15.5555C3.38323 14.9543 3.3069 14.3064 3.5247 13.6344C3.7425 12.9624 4.18367 12.4859 4.83893 12.2159L6.18294 11.6612C7.48788 11.1232 8.33113 9.96349 8.44098 8.55619L8.55081 7.1079C8.60479 6.40237 8.92311 5.83461 9.49462 5.41949C10.0642 5.00437 10.7028 4.87779 11.3897 5.0416L12.8044 5.38598C14.1782 5.71919 15.5446 5.27429 16.4568 4.20018L17.3987 3.09258C17.8567 2.55461 18.4467 2.28097 19.1523 2.28097C19.8578 2.28097 20.4498 2.55462 20.9058 3.09258L21.8478 4.20018C22.7618 5.27614 24.1263 5.71919 25.4983 5.38598L26.913 5.04346C27.5999 4.87778 28.2384 5.00437 28.8099 5.42135C29.3814 5.83461 29.6979 6.40238 29.7519 7.10791L29.8617 8.55805C29.9697 9.96349 30.8148 11.1251 32.1179 11.6631L33.4638 12.2197C34.1153 12.4859 34.5584 12.9643 34.778 13.6363C34.9958 14.3102 34.9195 14.9543 34.5472 15.5574L33.7839 16.7953C33.0468 17.996 33.0468 19.4312 33.7839 20.6338L34.5472 21.8717C34.9176 22.473 34.9958 23.1189 34.778 23.7891C34.5583 24.4611 34.1153 24.9395 33.4638 25.2094L32.1198 25.7623C31.4161 26.0527 30.8483 26.5256 30.4556 27.1175C30.4407 27.138 30.4276 27.1585 30.4146 27.179C30.1037 27.6723 29.9101 28.2475 29.8617 28.8692L29.7519 30.3175C29.6979 31.0231 29.3796 31.5908 28.8081 32.0059C28.2366 32.4211 27.5999 32.5476 26.913 32.3801L25.4982 32.0394C24.6159 31.8254 23.7372 31.9333 22.9796 32.3243C22.9572 32.3336 22.9349 32.3447 22.9144 32.3578C22.9088 32.3615 22.9051 32.3652 22.8995 32.3671C22.5105 32.5793 22.1531 32.8678 21.8478 33.2271L21.8497 33.2271ZM31.8534 37.7469C31.6114 37.7469 31.3862 37.8772 31.2652 38.0857L29.4744 41.1889L29.1356 41.7752L24.2548 33.3165C24.5507 33.2699 24.8635 33.283 25.1799 33.3593L26.5947 33.7C27.6707 33.9624 28.7131 33.7558 29.6085 33.1043C30.5039 32.4546 31.0233 31.5276 31.1089 30.4218L31.2001 29.2342L36.1143 37.7468L31.8534 37.7469Z" fill="white"/>
<path d="M23.8772 13.8568C23.3467 13.8568 22.8497 14.0634 22.4792 14.4357L18.1195 18.7935L15.8299 16.5039C15.4576 16.1297 14.9605 15.923 14.43 15.923C13.8995 15.923 13.4025 16.1297 13.032 16.502C12.6578 16.8743 12.4512 17.3713 12.4512 17.9018C12.4512 18.4324 12.6578 18.9294 13.0301 19.2998L16.7103 22.9801C16.7252 22.995 16.742 23.0136 16.7643 23.0341C16.7755 23.0452 16.7904 23.0583 16.8053 23.0713C16.8071 23.0731 16.809 23.075 16.8109 23.0769C16.822 23.088 16.8351 23.0973 16.8462 23.1067C16.8499 23.1085 16.8518 23.1122 16.8555 23.1141C16.8574 23.116 16.8611 23.1178 16.863 23.1197C16.8853 23.1402 16.9095 23.1588 16.9356 23.1774C16.9449 23.1848 16.9542 23.1904 16.9635 23.1979C16.9821 23.2128 17.0026 23.2258 17.0231 23.2388C17.0398 23.25 17.0547 23.2593 17.0696 23.2686C17.0845 23.2779 17.0975 23.2872 17.1106 23.2947C17.1329 23.3077 17.1534 23.3189 17.172 23.3282C17.185 23.3356 17.1962 23.3412 17.2111 23.3487L17.2688 23.3784C17.2893 23.3877 17.3135 23.4008 17.3414 23.4119C17.3507 23.4157 17.3619 23.4213 17.3749 23.425C17.3916 23.4324 17.4103 23.4399 17.4326 23.4473C17.4512 23.4548 17.4698 23.4622 17.4884 23.4678C17.5033 23.4734 17.5201 23.479 17.5368 23.4827C17.5536 23.4883 17.5704 23.4939 17.5871 23.4976L17.6169 23.505C17.6262 23.5069 17.6374 23.5106 17.6467 23.5125L17.6783 23.5199C17.6932 23.5236 17.7081 23.5274 17.7249 23.5311C17.7435 23.5348 17.7695 23.5404 17.803 23.546C17.8179 23.5478 17.8366 23.5516 17.857 23.5534C17.8775 23.5571 17.8998 23.559 17.9203 23.5609C17.9389 23.5627 17.9575 23.5646 17.9743 23.5665C17.9929 23.5683 18.0097 23.5702 18.0264 23.5702C18.0488 23.572 18.0711 23.5739 18.0934 23.5739H18.1567C18.1772 23.5739 18.1995 23.572 18.2219 23.5702C18.2368 23.5702 18.2554 23.5683 18.274 23.5665C18.2908 23.5646 18.3094 23.5646 18.328 23.5609C18.3503 23.559 18.3708 23.5571 18.3931 23.5534C18.4136 23.5516 18.4304 23.5478 18.4453 23.546C18.4788 23.5423 18.5048 23.5348 18.5235 23.5311C18.5383 23.5274 18.5532 23.5236 18.5681 23.5199L18.6165 23.5087C18.6314 23.505 18.6445 23.5032 18.6593 23.4994C18.6761 23.4957 18.6947 23.4901 18.7115 23.4845C18.7264 23.4808 18.7413 23.4752 18.7561 23.4697C18.7785 23.4622 18.799 23.4548 18.8213 23.4455C18.8362 23.4399 18.8511 23.4343 18.8641 23.4287C18.879 23.4231 18.8939 23.4175 18.9051 23.4119C18.9386 23.3989 18.9628 23.3859 18.9795 23.3784L19.0354 23.3505C19.0484 23.3431 19.0614 23.3375 19.0745 23.33C19.0931 23.3207 19.1136 23.3096 19.1359 23.2965C19.1489 23.2891 19.1638 23.2798 19.1769 23.2705C19.1899 23.263 19.2066 23.2519 19.2215 23.2407C19.242 23.2277 19.2625 23.2146 19.2811 23.1997C19.2904 23.1941 19.2997 23.1867 19.309 23.1793C19.3351 23.1625 19.3593 23.142 19.3816 23.1215L19.3872 23.116C19.3909 23.1141 19.3928 23.1104 19.3965 23.1085C19.4095 23.0992 19.4207 23.088 19.4319 23.0787C19.4412 23.0713 19.4486 23.0638 19.4579 23.0564C19.4617 23.0527 19.4654 23.049 19.4691 23.0471C19.4952 23.0229 19.5175 23.0024 19.5343 22.9838L25.2824 17.2357C25.6566 16.8633 25.8632 16.3663 25.8632 15.8358C25.8632 15.3071 25.6566 14.8101 25.2843 14.4378C24.912 14.0636 24.415 13.8589 23.8863 13.8589L23.8772 13.8568ZM24.3147 16.2731L18.5475 22.0403C18.54 22.0459 18.5344 22.0514 18.527 22.0589C18.5251 22.0607 18.5233 22.0626 18.5214 22.0645C18.5195 22.0663 18.5158 22.0682 18.514 22.0719C18.5084 22.0775 18.5028 22.0812 18.4972 22.0868C18.4935 22.0887 18.4916 22.0905 18.4879 22.0943C18.4823 22.098 18.4767 22.1036 18.4693 22.1073C18.4544 22.1147 18.4414 22.124 18.4283 22.1333C18.4265 22.1333 18.4265 22.1352 18.4246 22.1352C18.419 22.1371 18.4134 22.1408 18.4097 22.1445L18.3818 22.1594C18.3762 22.1613 18.3706 22.1631 18.3669 22.165C18.3613 22.1669 18.3557 22.1687 18.3501 22.1706C18.3408 22.1743 18.3315 22.178 18.3222 22.1817C18.3204 22.1817 18.3185 22.1836 18.3185 22.1836C18.3111 22.1855 18.3036 22.1873 18.298 22.1892H18.2943L18.2385 22.2022C18.2329 22.2022 18.2273 22.2041 18.2198 22.2059C18.2143 22.2059 18.2087 22.2078 18.2012 22.2078H18.1975H18.1938C18.1882 22.2078 18.1826 22.2078 18.177 22.2097C18.1659 22.2097 18.1565 22.2115 18.1454 22.2115C18.1379 22.2115 18.1305 22.2115 18.123 22.2134H18.1156C18.1063 22.2134 18.097 22.2115 18.0895 22.2115C18.0821 22.2115 18.0728 22.2097 18.0653 22.2097C18.0579 22.2097 18.0504 22.2078 18.043 22.2078H18.0374C18.0318 22.2078 18.0262 22.2059 18.0207 22.2059C18.0151 22.2041 18.0095 22.2041 18.0039 22.2041L17.9741 22.1966C17.9648 22.1948 17.9555 22.1911 17.9443 22.1892C17.935 22.1873 17.9276 22.1836 17.9201 22.1817C17.9183 22.1817 17.9164 22.1799 17.9164 22.1799C17.9071 22.1762 17.8978 22.1724 17.8885 22.1687C17.8848 22.1669 17.8792 22.165 17.8755 22.1631C17.868 22.1594 17.8606 22.1575 17.855 22.1538L17.8289 22.1408C17.8233 22.1371 17.8178 22.1352 17.8122 22.1315C17.8103 22.1296 17.8084 22.1296 17.8066 22.1278C17.7954 22.1203 17.7824 22.1129 17.7712 22.1054C17.7656 22.0998 17.7582 22.0961 17.7526 22.0924C17.7489 22.0905 17.747 22.0887 17.7433 22.0849C17.7377 22.0794 17.7321 22.0756 17.7265 22.0701C17.7228 22.0682 17.721 22.0645 17.7172 22.0626C17.7154 22.0607 17.7135 22.0589 17.7116 22.057C17.7098 22.0552 17.7061 22.0533 17.7042 22.0496C17.6893 22.0328 17.6726 22.0179 17.6558 22.003L13.9923 18.3396C13.875 18.2241 13.8118 18.0678 13.8118 17.9021C13.8118 17.7364 13.875 17.5801 13.9942 17.4628C14.1096 17.3474 14.266 17.2822 14.4316 17.2822C14.5973 17.2822 14.7537 17.3455 14.8691 17.4646L17.6409 20.2364C17.7675 20.363 17.9406 20.4356 18.1212 20.4356C18.3017 20.4356 18.4749 20.3649 18.6014 20.2364L23.4413 15.3966C23.5567 15.2812 23.7131 15.216 23.8787 15.216C24.0444 15.216 24.2008 15.2793 24.3162 15.3966L24.3181 15.3985C24.4335 15.5139 24.4986 15.6702 24.4986 15.8359C24.4986 16.0016 24.4353 16.158 24.3181 16.2734L24.3147 16.2731Z" fill="white"/>
</svg>
