<svg width="49" height="43" viewBox="0 0 49 43" fill="none" xmlns="http://www.w3.org/2000/svg">
<path d="M48.1131 29.6008L42.8446 17.874C42.4856 17.0792 41.5525 16.724 40.7576 17.0811L36.6682 18.9185C35.9981 19.2199 35.6237 19.9437 35.7658 20.6637L33.5982 21.6371C32.9281 21.9386 32.573 22.6797 32.7573 23.392L32.548 23.4592C31.0293 23.0137 26.0085 21.8137 24.8338 21.9751L21.3895 22.4358V22.4339C20.8442 22.503 20.3277 22.72 19.8957 23.0636L16.3112 23.3036H16.3131C16.2997 23.1846 16.2747 23.0675 16.2344 22.9542C16.1 22.5779 15.8216 22.2688 15.4607 22.0979L13.3122 21.0823C13.4678 20.3642 13.1087 19.6346 12.4444 19.3198L8.39337 17.4018C7.60426 17.0312 6.66352 17.3672 6.29105 18.1544L0.790624 29.774C0.418157 30.5631 0.754145 31.502 1.53938 31.8783L5.59238 33.7982C6.2567 34.1111 7.04959 33.9268 7.50654 33.3508L9.65304 34.3665C9.85272 34.4605 10.0735 34.5105 10.2962 34.5105C10.6514 34.5105 10.9951 34.3857 11.2677 34.1572L11.8015 34.4356C11.2888 35.3706 11.5864 36.5437 12.483 37.1196C12.8401 37.375 13.2664 37.5132 13.7041 37.5171C13.827 37.5171 13.9499 37.5056 14.0708 37.4806C14.0113 38.1583 14.2686 38.8246 14.7678 39.2873C15.1499 39.654 15.6567 39.8633 16.1866 39.8709C16.6378 39.8671 17.0736 39.7058 17.4211 39.4178C17.5018 39.8383 17.6976 40.228 17.9875 40.5448C18.3715 40.9711 18.9167 41.2207 19.4908 41.2322C19.6502 41.2322 19.8095 41.211 19.9631 41.1688C20.013 41.4261 20.109 41.6718 20.2473 41.8946C20.5775 42.4475 21.1688 42.7912 21.812 42.8065C22.173 42.8008 22.5262 42.6971 22.8334 42.507C23.5207 42.1019 24.114 41.7525 24.8263 41.284C24.8705 41.2552 24.9146 41.2226 24.955 41.1919H24.953C25.1085 41.2207 25.2641 41.2379 25.4215 41.2379C26.0839 41.2495 26.7079 40.9365 27.0976 40.4028C27.2608 40.1743 27.3799 39.917 27.4432 39.6425L27.6237 39.7692H27.6256C28.5798 40.4393 29.8969 40.2242 30.5881 39.2854C30.7973 38.9954 30.9317 38.6576 30.974 38.3023C31.6536 38.4463 32.3602 38.2486 32.8651 37.7725C33.37 37.2963 33.6101 36.6032 33.5083 35.9159C34.3108 35.7815 34.9655 35.194 35.1806 34.4068C35.7854 34.1745 36.4093 33.9537 37.0659 33.7214L37.3865 33.6081C37.6745 33.9499 38.0988 34.1477 38.5443 34.1477C38.7574 34.1477 38.9667 34.1016 39.1587 34.0152L41.3263 33.0418C41.7698 33.6273 42.5608 33.829 43.2309 33.5275L47.3203 31.6901H47.3184C48.1133 31.333 48.4684 30.398 48.1133 29.6031L48.1131 29.6008ZM6.14691 32.6209L2.09391 30.7048C1.95568 30.6376 1.89424 30.4706 1.95952 30.3285L7.45995 18.7069C7.50795 18.609 7.60778 18.5456 7.71914 18.5456C7.75946 18.5456 7.79977 18.5552 7.83625 18.5725L11.8892 20.4905V20.4886C12.0275 20.5577 12.087 20.7247 12.0217 20.8649L6.52474 32.488C6.45562 32.6281 6.28858 32.6876 6.14651 32.6224L6.14691 32.6209ZM10.3688 33.1988C10.317 33.218 10.2575 33.2142 10.2076 33.1911L8.09754 32.1928L12.7937 22.2703L14.9037 23.2686H14.9018C15.0074 23.3205 15.0535 23.4453 15.0055 23.5509L10.4898 33.089C10.4668 33.1408 10.4226 33.1796 10.3688 33.1988ZM13.2315 36.0576C12.8782 35.856 12.7496 35.4087 12.9435 35.0515C13.4561 34.2893 14.2567 33.1834 14.7866 32.4692C14.9133 32.2619 15.136 32.1294 15.3779 32.1159C15.5431 32.1236 15.7043 32.1793 15.8349 32.2791C16.1901 32.4807 16.3168 32.9281 16.1229 33.2871C15.6102 34.0513 14.8096 35.1552 14.2797 35.8694V35.8675C14.178 36.048 14.0033 36.1728 13.7998 36.2112C13.5982 36.2477 13.3889 36.192 13.2315 36.0576ZM15.6583 38.3423C15.3357 38.0927 15.2724 37.6319 15.5162 37.3055C15.8752 36.9043 18.1484 34.7751 18.4076 34.5158C18.5458 34.3546 18.7455 34.2547 18.9586 34.2451C19.1526 34.2547 19.3369 34.3373 19.4713 34.4755C19.7938 34.7251 19.8553 35.1878 19.6134 35.5142C19.2543 35.9155 16.9811 38.0447 16.7219 38.3039C16.5971 38.4671 16.4051 38.5669 16.1978 38.5746C15.9924 38.5823 15.7927 38.4978 15.6563 38.3423L15.6583 38.3423ZM18.9414 39.6651C18.6361 39.3925 18.6073 38.9279 18.8722 38.6188C19.5385 37.9756 20.1087 37.4764 20.7692 36.8985C20.9112 36.7584 21.0994 36.6758 21.2991 36.6662C21.5947 36.695 21.852 36.8793 21.9768 37.15C22.1016 37.4188 22.0728 37.7356 21.9019 37.9794C21.2357 38.6226 20.6655 39.1218 20.0069 39.6997H20.0088C19.8706 39.8552 19.6728 39.9416 19.4655 39.9359C19.2581 39.9282 19.0642 39.8303 18.9394 39.6651L18.9414 39.6651ZM24.112 40.1989C23.4266 40.6501 22.8468 40.9918 22.1748 41.3873V41.3892C22.0461 41.491 21.8791 41.5313 21.7178 41.4948C21.5566 41.4603 21.4222 41.3547 21.3473 41.2068C21.1495 40.9534 21.1898 40.5867 21.4394 40.3813C22.1229 39.9301 22.7047 39.5883 23.3767 39.1928H23.3747C23.4842 39.1218 23.6109 39.0814 23.7414 39.0757C23.9373 39.0872 24.112 39.2005 24.2022 39.3733C24.4 39.6286 24.3597 39.9953 24.1101 40.1989L24.112 40.1989ZM33.8094 34.316C33.5348 34.6827 33.0164 34.7634 32.6421 34.4965L28.781 31.7932C28.4873 31.5897 28.0841 31.6608 27.8787 31.9545C27.6733 32.2463 27.7443 32.6515 28.038 32.8569L31.8952 35.5563C32.2619 35.827 32.3445 36.3416 32.0776 36.7121C31.8011 37.0788 31.2847 37.1595 30.9103 36.8926L27.0474 34.1874V34.1893C26.7536 33.9935 26.3581 34.0684 26.1565 34.3583C25.9549 34.6482 26.0221 35.0437 26.3063 35.253L29.4607 37.4609C29.7391 37.7508 29.7718 38.1982 29.5375 38.5246C29.2611 38.8913 28.7446 38.9719 28.3702 38.7051L24.4996 35.9979C24.204 35.7964 23.8008 35.8693 23.5973 36.165C23.3938 36.4606 23.4686 36.8638 23.7643 37.0673L26.0586 38.6743C26.1278 38.7703 26.1738 38.8797 26.193 38.9949C26.2334 39.2215 26.1796 39.4557 26.0452 39.642C25.9435 39.7859 25.7918 39.8858 25.6171 39.9223C25.642 39.4884 25.5307 39.0583 25.3003 38.6897C24.9086 38.0196 24.1349 37.6702 23.3707 37.818C23.4437 37.1729 23.2287 36.5297 22.7871 36.0575C22.3512 35.5679 21.7042 35.3164 21.0515 35.3836C21.1283 34.6924 20.871 34.007 20.3603 33.5347C19.9763 33.1488 19.4522 32.9376 18.9088 32.951C18.3655 32.9625 17.851 33.1987 17.4862 33.6019C17.4478 33.6403 17.4055 33.6825 17.3595 33.7267V33.7286C17.7396 32.8147 17.4151 31.7587 16.5838 31.2192C16.1499 30.8909 15.6008 30.7565 15.0632 30.8467C14.5276 30.937 14.0514 31.2422 13.748 31.6934C13.4082 32.1504 12.957 32.7686 12.5385 33.3561L11.9453 33.0451L15.9291 24.6281L18.8955 24.4303L17.8952 26.1582V26.1563C17.3691 27.026 17.5995 28.155 18.427 28.7482C19.1508 29.3031 20.1261 29.401 20.9478 29.0036L23.7011 27.3928L25.9858 27.7345L33.6213 33.1583C33.9899 33.4271 34.0725 33.9455 33.8075 34.316L33.8094 34.316ZM35.1111 33.047C34.9613 32.6687 34.7079 32.3404 34.3757 32.1043L26.6095 26.5881C26.5269 26.5286 26.4309 26.4902 26.3311 26.4748L23.6681 26.0755C23.5222 26.0525 23.3724 26.0812 23.2438 26.1561L20.2929 27.8821L20.2948 27.8841C19.9127 28.0127 19.4903 27.9397 19.1755 27.6882C18.899 27.4809 18.8318 27.095 19.0219 26.807L20.4503 24.3418H20.4484C20.7229 23.9923 21.1261 23.7677 21.5677 23.7178L25.012 23.257C25.8146 23.1495 30.8909 24.288 32.3595 24.7546C32.4882 24.7968 32.6245 24.7968 32.7531 24.7546L33.2754 24.5895L36.7966 32.4403L36.6314 32.4998C36.1284 32.6764 35.6139 32.8607 35.1089 33.047L35.1111 33.047ZM38.6304 32.83V32.8319C38.5228 32.878 38.398 32.83 38.3481 32.7244L34.0244 23.0998C33.9783 22.9923 34.0263 22.8675 34.1319 22.8175L36.2611 21.8614L40.7595 31.8739L38.6304 32.83ZM46.9358 30.3494C46.9089 30.4186 46.8552 30.4762 46.788 30.5069L42.6985 32.3443C42.5564 32.4057 42.3894 32.3424 42.326 32.2003L37.0576 20.4735C36.9942 20.3295 37.0576 20.1644 37.1978 20.0991L41.2872 18.2617C41.3237 18.2463 41.3621 18.2386 41.4005 18.2386C41.5119 18.2386 41.6136 18.302 41.6616 18.4038L46.93 30.1325C46.9608 30.2017 46.9627 30.2784 46.9358 30.3494ZM44.5609 29.4336H44.5589C44.7068 29.76 44.5609 30.144 44.2345 30.2918C43.9081 30.4378 43.5241 30.2918 43.3762 29.9655L42.2569 27.4715C42.1321 27.1489 42.28 26.7861 42.5949 26.644C42.9097 26.5019 43.2803 26.6324 43.4377 26.9396L44.5609 29.4336ZM6.68452 27.7614L5.51528 30.2323C5.35976 30.5491 4.97767 30.6816 4.65706 30.5299C4.33643 30.3782 4.1982 29.9981 4.34411 29.6774L5.51335 27.2065C5.58439 27.0472 5.71687 26.9243 5.88006 26.8648C6.04325 26.8033 6.22373 26.8129 6.38115 26.8859C6.53858 26.9608 6.65954 27.0952 6.71714 27.2603C6.77473 27.4235 6.76324 27.604 6.68452 27.7614ZM16.3593 5.53603V5.20964C16.3535 5.033 16.4207 4.86405 16.5417 4.73926C16.6646 4.61254 16.8316 4.5415 17.0082 4.5415C17.183 4.5415 17.35 4.61254 17.4729 4.73926C17.5938 4.86405 17.661 5.03301 17.6553 5.20964V5.53603C17.661 5.71074 17.5938 5.8797 17.4729 6.00641C17.35 6.13121 17.183 6.20225 17.0082 6.20225C16.8316 6.20225 16.6646 6.13121 16.5417 6.00641C16.4207 5.8797 16.3535 5.71074 16.3593 5.53603ZM14.209 12.2652V12.2633C14.0496 12.0694 14.017 11.8025 14.1245 11.576C14.232 11.3494 14.4605 11.2054 14.7101 11.2035H16.3574V8.17383C16.3536 7.99911 16.4188 7.83016 16.5417 7.70344C16.6627 7.57865 16.8316 7.50761 17.0063 7.50761C17.181 7.50761 17.35 7.57865 17.471 7.70344C17.5938 7.83016 17.6591 7.99911 17.6553 8.17383V11.8544C17.6553 12.0252 17.5862 12.1904 17.4652 12.3113C17.3423 12.4342 17.1772 12.5014 17.0063 12.5014H16.079L19.2738 16.4046L22.4686 12.5014H21.5412C21.1841 12.5014 20.8923 12.2115 20.8923 11.8544V8.2103C20.9038 7.85896 21.1899 7.58059 21.5412 7.58059C21.8926 7.58059 22.1806 7.85898 22.1902 8.2103V11.2054H23.8375C24.0871 11.2054 24.3156 11.3494 24.4231 11.576C24.5306 11.8025 24.498 12.0713 24.3386 12.2633L19.7769 17.8389C19.6521 17.9887 19.4697 18.077 19.2738 18.077C19.0799 18.077 18.8956 17.9887 18.7728 17.8389L14.209 12.2652Z" fill="white"/>
<path d="M28.8966 7.22582C28.7891 6.99926 28.8217 6.73048 28.9811 6.53658L33.5448 0.964882C33.6677 0.813208 33.852 0.726807 34.0459 0.726807C34.2398 0.726807 34.4241 0.813203 34.547 0.964882L39.1107 6.53855C39.2682 6.73246 39.3027 6.99933 39.1952 7.22586C39.0877 7.45242 38.8592 7.59833 38.6077 7.59833H36.9604V10.628C36.9661 10.8027 36.9009 10.9736 36.778 11.0984C36.6551 11.2232 36.4881 11.2942 36.3134 11.2942C36.1367 11.2942 35.9697 11.2232 35.8468 11.0984C35.7259 10.9736 35.6587 10.8027 35.6644 10.628V6.9494C35.6644 6.59037 35.9543 6.30046 36.3134 6.30046H37.2407L34.0478 2.39915L30.8511 6.30046H31.7784C32.1375 6.30046 32.4274 6.59037 32.4274 6.9494V10.5915C32.4178 10.9429 32.1298 11.2232 31.7784 11.2232C31.4271 11.2232 31.141 10.9429 31.1295 10.5915V7.59838H29.4841C29.2326 7.59646 29.0041 7.45237 28.8966 7.22582ZM36.9602 13.2659V13.5942C36.9506 13.9456 36.6646 14.2239 36.3132 14.2239C35.9619 14.2239 35.6739 13.9456 35.6643 13.5942V13.2659C35.6585 13.0912 35.7257 12.9222 35.8467 12.7955C35.9696 12.6707 36.1366 12.5997 36.3132 12.5997C36.488 12.5997 36.655 12.6707 36.7779 12.7955C36.9007 12.9222 36.966 13.0912 36.9602 13.2659Z" fill="white"/>
</svg>
