<svg width="56" height="63" viewBox="0 0 56 63" fill="none" xmlns="http://www.w3.org/2000/svg">
<path fill-rule="evenodd" clip-rule="evenodd" d="M27.9246 16.2224C30.7067 16.2229 33.4363 16.9807 35.8204 18.4146C38.2046 19.8484 40.1535 21.9043 41.4581 24.3616C42.7626 26.8189 43.3736 29.585 43.2256 32.3632C43.0775 35.1414 42.1759 37.8269 40.6176 40.1316C40.5672 40.2588 40.4882 40.3727 40.3867 40.4644C39.8929 41.1417 39.3501 41.7818 38.7628 42.3798C35.8878 45.2534 31.9894 46.8676 27.9246 46.8676C23.8598 46.8676 19.9614 45.2534 17.0864 42.3798C16.4923 41.788 15.9491 41.1473 15.4625 40.4644C15.3574 40.3759 15.2777 40.2611 15.2316 40.1316C13.672 37.8271 12.7695 35.1415 12.6208 32.3628C12.4722 29.5842 13.083 26.8176 14.3878 24.3598C15.6926 21.9021 17.642 19.8461 20.0269 18.4125C22.4117 16.9788 25.142 16.2217 27.9246 16.2224ZM5.27923 13.6096C4.06238 13.6087 2.88941 14.064 1.99182 14.8856C1.09423 15.7073 0.53724 16.8355 0.430772 18.0477C0.324303 19.2599 0.676094 20.468 1.41671 21.4335C2.15733 22.399 3.23298 23.0518 4.43135 23.2631V39.8295C3.67931 39.9632 2.96933 40.2721 2.35889 40.7312C1.74846 41.1904 1.25472 41.7868 0.917658 42.4722C0.580598 43.1576 0.409691 43.9128 0.418774 44.6766C0.427858 45.4404 0.616677 46.1913 0.969943 46.8685C1.32321 47.5457 1.83099 48.1302 2.45218 48.5747C3.07336 49.0192 3.79049 49.3111 4.54549 49.4269C5.30049 49.5427 6.07214 49.479 6.79797 49.2411C7.5238 49.0032 8.1834 48.5977 8.72336 48.0574C8.82169 47.9588 8.91478 47.8551 9.00221 47.7466L16.13 51.8623C16.1427 51.8723 16.1667 51.8809 16.1786 51.8902L23.3437 56.0318C23.1574 56.5651 23.0631 57.1261 23.0649 57.691C23.0649 58.9802 23.577 60.2167 24.4886 61.1283C25.4003 62.0399 26.6367 62.552 27.9259 62.552C29.2151 62.552 30.4516 62.0399 31.3632 61.1283C32.2748 60.2167 32.787 58.9802 32.787 57.691C32.7845 57.1255 32.6861 56.5645 32.4961 56.0318L39.6732 51.8902L46.8377 47.7486C46.9348 47.8565 47.032 47.9609 47.1285 48.0594C47.6688 48.5976 48.3282 49.0011 49.0533 49.2373C49.7784 49.4736 50.5489 49.5359 51.3025 49.4193C52.0562 49.3027 52.7719 49.0105 53.3917 48.5662C54.0115 48.1219 54.5181 47.538 54.8706 46.8618C55.2231 46.1855 55.4115 45.4358 55.4207 44.6732C55.4298 43.9107 55.2595 43.1566 54.9234 42.4721C54.5873 41.7875 54.0948 41.1917 53.4859 40.7326C52.8769 40.2735 52.1685 39.9642 51.4178 39.8295V23.2631C52.1699 23.1295 52.8799 22.8207 53.4904 22.3617C54.101 21.9027 54.5948 21.3063 54.932 20.6209C55.2692 19.9355 55.4402 19.1804 55.4312 18.4166C55.4223 17.6528 55.2336 16.9019 54.8804 16.2246C54.5272 15.5473 54.0196 14.9627 53.3984 14.5182C52.7773 14.0736 52.0602 13.7815 51.3052 13.6656C50.5503 13.5497 49.7786 13.6133 49.0527 13.8511C48.3269 14.0889 47.6672 14.4943 47.1272 15.0345C47.0307 15.1336 46.9335 15.2381 46.8363 15.3446L39.7078 11.2303C39.6963 11.2208 39.6843 11.2119 39.6719 11.2037L32.4948 7.06073C32.6839 6.52793 32.7813 5.96693 32.783 5.40157C32.783 4.76321 32.6572 4.1311 32.4129 3.54133C32.1686 2.95156 31.8106 2.41568 31.3592 1.96429C30.9078 1.5129 30.3719 1.15484 29.7822 0.910552C29.1924 0.666262 28.5603 0.540527 27.9219 0.540527C27.2836 0.540527 26.6515 0.666262 26.0617 0.910552C25.4719 1.15484 24.936 1.5129 24.4847 1.96429C24.0333 2.41568 23.6752 2.95156 23.4309 3.54133C23.1866 4.1311 23.0609 4.76321 23.0609 5.40157C23.0591 5.96643 23.1534 6.52749 23.3397 7.06073L16.1773 11.2037L9.00088 15.3446C8.9157 15.2381 8.81853 15.1336 8.72202 15.0345C8.27016 14.5821 7.73345 14.2234 7.14266 13.9788C6.55187 13.7343 5.91862 13.6088 5.27923 13.6096ZM9.84943 16.8128C10.0455 17.3454 10.144 17.909 10.1403 18.4766C10.1435 19.6201 9.7427 20.728 9.00854 21.6048C8.27439 22.4815 7.25411 23.0707 6.12779 23.2684V39.8295C7.25411 40.0272 8.27439 40.6164 9.00854 41.4931C9.7427 42.3699 10.1435 43.4778 10.1403 44.6213C10.144 45.1889 10.0455 45.7525 9.84943 46.2851L16.9773 50.3994C16.9899 50.4081 17.0139 50.4167 17.0259 50.4254L24.2029 54.5663C24.2905 54.4587 24.3836 54.3556 24.4818 54.2575C24.9332 53.8042 25.4697 53.4445 26.0605 53.1991C26.6514 52.9536 27.2848 52.8273 27.9246 52.8273C28.5623 52.8256 29.1941 52.9506 29.7831 53.1953C30.3721 53.4399 30.9065 53.7992 31.3554 54.2522C31.4645 54.3514 31.5491 54.4519 31.6462 54.561L38.8107 50.4201H38.8233L45.9878 46.2785C45.7974 45.7443 45.6991 45.1817 45.6969 44.6147C45.6992 43.4726 46.102 42.3675 46.8352 41.4919C47.5684 40.6163 48.5855 40.0257 49.7094 39.8228V23.2631C48.5855 23.0603 47.5684 22.4696 46.8352 21.594C46.102 20.7184 45.6992 19.6133 45.6969 18.4713C45.6992 17.9042 45.7975 17.3416 45.9878 16.8074L38.8593 12.6984C38.8446 12.6872 38.8282 12.6784 38.8107 12.6725L31.6462 8.53156C31.5491 8.63804 31.4645 8.7412 31.3554 8.84036C30.9065 9.29341 30.3721 9.65269 29.7831 9.89731C29.1941 10.1419 28.5623 10.267 27.9246 10.2653C27.2852 10.266 26.652 10.1405 26.0612 9.89598C25.4704 9.65146 24.9337 9.29273 24.4818 8.84036C24.3836 8.74229 24.2905 8.63921 24.2029 8.53156L17.0259 12.6725L9.84943 16.8128ZM7.50943 16.2391C7.81304 16.5296 8.05561 16.8778 8.22294 17.2632C8.39027 17.6487 8.47899 18.0636 8.4839 18.4838C8.48882 18.904 8.40982 19.3209 8.25155 19.7102C8.09328 20.0995 7.85891 20.4532 7.56217 20.7507C7.26544 21.0483 6.91231 21.2836 6.52348 21.4429C6.13464 21.6022 5.71792 21.6823 5.29773 21.6786C4.87754 21.6748 4.46233 21.5872 4.07643 21.4209C3.69053 21.2546 3.3417 21.0129 3.05037 20.7101C2.74676 20.4196 2.50419 20.0714 2.33686 19.686C2.16953 19.3005 2.08081 18.8855 2.07589 18.4654C2.07098 18.0452 2.14998 17.6282 2.30825 17.239C2.46652 16.8497 2.70089 16.496 2.99763 16.1984C3.29436 15.9009 3.64749 15.6656 4.03632 15.5063C4.42516 15.3469 4.84188 15.2668 5.26207 15.2706C5.68226 15.2744 6.09747 15.362 6.48337 15.5283C6.86927 15.6946 7.2181 15.9362 7.50943 16.2391ZM7.50943 42.3851C7.81304 42.6756 8.05561 43.0238 8.22294 43.4093C8.39027 43.7947 8.47899 44.2097 8.4839 44.6299C8.48882 45.0501 8.40982 45.467 8.25155 45.8563C8.09328 46.2455 7.85891 46.5993 7.56217 46.8968C7.26544 47.1943 6.91231 47.4296 6.52348 47.589C6.13464 47.7483 5.71792 47.8284 5.29773 47.8246C4.87754 47.8208 4.46233 47.7332 4.07643 47.5669C3.69053 47.4006 3.3417 47.159 3.05037 46.8562C2.74676 46.5656 2.50419 46.2175 2.33686 45.832C2.16953 45.4466 2.08081 45.0316 2.07589 44.6114C2.07098 44.1912 2.14998 43.7743 2.30825 43.385C2.46652 42.9958 2.70089 42.642 2.99763 42.3445C3.29436 42.047 3.64749 41.8116 4.03632 41.6523C4.42516 41.493 4.84188 41.4129 5.26207 41.4167C5.68226 41.4205 6.09747 41.5081 6.48337 41.6744C6.86927 41.8407 7.2181 42.0823 7.50943 42.3851ZM30.1554 55.4555C30.451 55.7479 30.6857 56.0961 30.8459 56.4798C31.006 56.8635 31.0885 57.2752 31.0885 57.691C31.0885 58.1068 31.006 58.5185 30.8459 58.9022C30.6857 59.2859 30.451 59.6341 30.1554 59.9265C29.8633 60.2208 29.5157 60.4542 29.1328 60.6132C28.7499 60.7722 28.3392 60.8537 27.9246 60.8529C27.504 60.8616 27.0859 60.7862 26.6948 60.6312C26.3037 60.4762 25.9475 60.2447 25.6469 59.9503C25.3464 59.6559 25.1077 59.3045 24.9447 58.9167C24.7817 58.5288 24.6978 58.1124 24.6978 57.6917C24.6978 57.271 24.7817 56.8545 24.9447 56.4667C25.1077 56.0788 25.3464 55.7274 25.6469 55.433C25.9475 55.1386 26.3037 54.9071 26.6948 54.7521C27.0859 54.5972 27.504 54.5218 27.9246 54.5304C28.3392 54.5297 28.7498 54.6111 29.1327 54.77C29.5156 54.9289 29.8632 55.1615 30.1554 55.4555ZM52.8008 42.3838C53.318 42.901 53.6399 43.5815 53.7117 44.3093C53.7835 45.0372 53.6009 45.7675 53.1948 46.3758C52.7888 46.9841 52.1844 47.4329 51.4846 47.6457C50.7849 47.8585 50.033 47.8223 49.357 47.543C48.681 47.2638 48.1227 46.7589 47.7771 46.1143C47.4315 45.4697 47.32 44.7252 47.4616 44.0077C47.6032 43.2901 47.9892 42.6438 48.5537 42.1788C49.1183 41.7138 49.8266 41.4589 50.558 41.4574C50.9744 41.4562 51.387 41.5375 51.772 41.6964C52.1569 41.8554 52.5066 42.0891 52.8008 42.3838ZM52.8008 16.2377C53.3198 16.7552 53.6434 17.4365 53.7164 18.1657C53.7894 18.8949 53.6073 19.6269 53.2011 20.2369C52.795 20.8469 52.1899 21.2973 51.4889 21.5112C50.788 21.7251 50.0346 21.6894 49.357 21.4101C48.6794 21.1309 48.1197 20.6253 47.773 19.9796C47.4264 19.3339 47.3144 18.588 47.456 17.869C47.5976 17.1499 47.9842 16.5022 48.5498 16.0362C49.1154 15.5702 49.8251 15.3148 50.558 15.3133C50.9743 15.312 51.3868 15.393 51.7717 15.5516C52.1566 15.7103 52.5063 15.9434 52.8008 16.2377ZM30.1554 3.16605C30.6733 3.68378 30.9955 4.36511 31.0672 5.09386C31.1389 5.82262 30.9556 6.55367 30.5485 7.16238C30.1414 7.77108 29.5358 8.21974 28.835 8.43185C28.1341 8.64396 27.3813 8.60639 26.705 8.32555C26.0288 8.04471 25.4708 7.53799 25.1264 6.89178C24.782 6.24558 24.6723 5.4999 24.8162 4.7819C24.9601 4.06391 25.3486 3.41804 25.9154 2.95444C26.4822 2.49085 27.1923 2.23821 27.9246 2.23963C28.3392 2.23886 28.7499 2.32035 29.1328 2.47937C29.5157 2.63839 29.8633 2.87179 30.1554 3.16605ZM38.0227 40.6794H35.4411C35.2046 41.2027 34.9416 41.7136 34.6531 42.2101C34.2799 42.8565 33.8499 43.4683 33.368 44.0383C34.9288 43.3544 36.3474 42.3837 37.5502 41.1765C37.7199 41.0141 37.8776 40.8471 38.0227 40.6774V40.6794ZM33.5636 40.6794H28.7731V45.0812C30.4583 44.7351 32.0103 43.3741 33.1863 41.3542C33.3194 41.1359 33.4405 40.9116 33.5616 40.6814L33.5636 40.6794ZM27.078 40.6794H22.2875C22.3967 40.9096 22.5298 41.1339 22.6509 41.3522C23.8389 43.3741 25.3796 44.7351 27.076 45.0792V40.6794H27.078ZM20.4101 40.6794H17.8145C17.9722 40.8491 18.13 41.0161 18.2877 41.1785C19.4944 42.3858 20.9165 43.3565 22.4805 44.0403C21.9947 43.4706 21.5606 42.8588 21.1834 42.2121C20.8989 41.7154 20.6399 41.2045 20.4074 40.6814L20.4101 40.6794ZM16.5067 38.9756H19.7439C19.0485 36.8496 18.6645 34.6342 18.6038 32.3982H14.3245C14.4731 34.742 15.2248 37.0077 16.5067 38.9756ZM21.5375 38.9756H27.078V32.3982H20.2996C20.3644 34.6419 20.7814 36.8614 21.5355 38.9756H21.5375ZM28.7751 38.9756H34.303C35.0633 36.8631 35.4808 34.6426 35.5396 32.3982H28.7731V38.9756H28.7751ZM36.1093 38.9756H39.3464C40.6291 37.0091 41.3764 34.7419 41.5147 32.3982H37.2473C37.1818 34.6334 36.7991 36.848 36.1106 38.9756H36.1093ZM39.6492 24.6148H36.265C36.8538 26.5904 37.184 28.6339 37.2473 30.6944H41.5147C41.3847 28.5482 40.7445 26.4639 39.6473 24.6148H39.6492ZM34.4854 24.6148H28.7751V30.6944H35.5376C35.4813 28.6276 35.1262 26.5799 34.4834 24.6148H34.4854ZM27.078 24.6148H21.3678C20.727 26.5807 20.3684 28.6277 20.3029 30.6944H27.076V24.6148H27.078ZM19.5862 24.6148H16.1919C15.0963 26.4644 14.4575 28.5485 14.3285 30.6944H18.6078C18.6652 28.6334 18.9956 26.589 19.5901 24.6148H19.5862ZM17.3899 22.913H20.1905C20.4773 22.2158 20.8092 21.5379 21.1841 20.8838C21.5608 20.2368 21.9949 19.6249 22.4812 19.0556C20.9172 19.7394 19.4951 20.7101 18.2884 21.9174C17.9718 22.234 17.6723 22.5672 17.3912 22.9157L17.3899 22.913ZM22.0453 22.913H27.076V18.0114C25.3789 18.3575 23.8389 19.7185 22.6509 21.7384C22.4266 22.1172 22.2244 22.5088 22.0453 22.911V22.913ZM28.7731 22.913H33.8039C33.61 22.5017 33.4041 22.1108 33.1863 21.7404C32.0103 19.7185 30.4576 18.3575 28.7731 18.0134V22.915V22.913ZM35.6587 22.913H38.4593C38.1687 22.5652 37.8656 22.2324 37.5502 21.9147C36.3474 20.7075 34.9288 19.7368 33.368 19.0529C33.8503 19.6226 34.2804 20.2344 34.6531 20.8812C35.0321 21.5359 35.368 22.2146 35.6587 22.913Z" fill="white"/>
</svg>
