<svg width="14" height="15" viewBox="0 0 14 15" fill="none" xmlns="http://www.w3.org/2000/svg">
<path d="M0.243844 5.39153H3.0222V14.3133H0.243844V5.39153ZM1.62749 0.963867C2.51302 0.963867 3.23251 1.68336 3.23251 2.56889C3.23251 3.45442 2.51302 4.17392 1.62749 4.17392C0.741955 4.17392 0.0224609 3.45442 0.0224609 2.56889C0.0224609 1.68336 0.741955 0.963867 1.62749 0.963867Z" fill="white"/>
<path d="M4.75977 5.39082H7.41636V6.60842H7.44957C7.82592 5.91107 8.72252 5.16943 10.073 5.16943C12.8845 5.16943 13.3937 7.01798 13.3937 9.41998V14.3125H10.6264V9.97344C10.6264 8.93294 10.6043 7.60465 9.18742 7.60465C7.77057 7.60465 7.52705 8.7337 7.52705 9.89596V14.3125H4.75977V5.39082Z" fill="white"/>
</svg>
