<svg width="59" height="43" viewBox="0 0 59 43" fill="none" xmlns="http://www.w3.org/2000/svg">
<path d="M14.9687 32.2991C17.5723 32.2991 19.7856 34.2072 20.1672 36.7852H41.4473C41.8289 34.2072 44.0394 32.2991 46.643 32.2991C49.2465 32.2991 51.457 34.2072 51.8386 36.7852H56.6527V33.6927H53.6619C53.2351 33.6899 52.8902 33.3479 52.8902 32.921V28.7063C52.8902 28.2822 53.2351 27.9374 53.6619 27.9374H55.1403V25.6448H44.4294C44.0054 25.6448 43.6605 25.3028 43.6577 24.8787V18.3262C43.6605 17.9022 44.0026 17.5573 44.4294 17.5573H49.7834C48.9862 16.5594 48.1919 15.3298 46.8548 15.3298H39.6549V32.9213C39.6549 33.139 39.5616 33.3453 39.4033 33.4895C39.2422 33.6365 39.0302 33.7072 38.8153 33.6902H22.2275C21.8035 33.6902 21.4587 33.3453 21.4587 32.9213C21.4587 32.4973 21.8035 32.1552 22.2275 32.1552H38.1112V8.90758H20.5624C19.4713 17.8405 18.8069 19.5078 11.1352 24.3107C10.8441 24.4917 10.4738 24.4888 10.1883 24.3023C8.44699 23.2676 6.79327 22.0917 5.24702 20.7857V32.1523H7.8703C8.29714 32.1523 8.64201 32.4971 8.64201 32.9212C8.64201 33.348 8.29714 33.6929 7.8703 33.6929H5.24702V35.4596L7.17211 36.7825H9.77281V36.7797C10.1544 34.2045 12.365 32.2964 14.9685 32.2936L14.9687 32.2991ZM46.6406 36.0729C47.2399 36.07 47.7798 36.4319 48.0116 36.9831C48.2406 37.5371 48.1134 38.1731 47.6922 38.5972C47.2682 39.0212 46.6322 39.1484 46.0781 38.9195C45.5268 38.6905 45.165 38.1506 45.165 37.5513C45.165 37.1584 45.3205 36.7824 45.5975 36.5054C45.8745 36.2284 46.2505 36.0729 46.6406 36.0729ZM14.9687 36.0729C15.5652 36.0729 16.1051 36.4319 16.3341 36.9859C16.5631 37.5371 16.4387 38.1731 16.0146 38.5972C15.5935 39.0212 14.9546 39.1484 14.4033 38.9195C13.8493 38.6905 13.4903 38.1506 13.4903 37.5513C13.4903 36.7372 14.1489 36.0729 14.9659 36.0729L14.9687 36.0729ZM8.22682 12.941C8.07135 12.7657 7.99219 12.5339 8.00915 12.2993C8.02612 12.0647 8.13636 11.847 8.31445 11.6944C8.49537 11.5417 8.72717 11.4654 8.96179 11.4852C9.19359 11.5078 9.41125 11.618 9.56107 11.799L10.3187 12.6922L13.3349 9.89087H13.3377C13.6911 9.56014 14.2479 9.57992 14.5787 9.93327C14.9094 10.2895 14.8896 10.8463 14.5334 11.1771L10.8416 14.6032H10.8444C10.6692 14.7643 10.4345 14.8491 10.1971 14.835C9.95964 14.8209 9.73631 14.7106 9.58084 14.5297L8.22682 12.941ZM11.1356 20.3137C10.8444 20.4974 10.4741 20.4917 10.1886 20.3052C4.65091 16.8367 4.52651 15.7879 3.66999 8.58257C3.60497 8.0483 3.53995 7.48014 3.44384 6.7169C3.38731 6.25895 3.6926 5.83779 4.14206 5.74444C6.30458 5.14233 8.3003 4.61936 10.4967 4.17554C10.6154 4.1501 10.7398 4.1501 10.8585 4.17554C13.0154 4.5939 15.1496 5.12252 17.2527 5.76137C17.6711 5.87727 17.9425 6.2815 17.8916 6.71118C17.8916 6.71118 17.6881 8.40158 17.6683 8.57968C16.8146 15.7937 16.6873 16.8338 11.1327 20.3139L11.1356 20.3137ZM10.6663 18.5356C15.0479 15.7343 15.1751 14.6488 15.9213 8.37323C15.9638 8.00574 16.0118 7.61845 16.0542 7.24815C14.2338 6.74215 12.5179 6.30399 10.6663 5.93087C8.81758 6.30118 7.1017 6.74217 5.28126 7.24815C5.32649 7.61846 5.37172 8.00575 5.41694 8.37323C6.16036 14.6488 6.29041 15.7343 10.6663 18.5356ZM20.7469 7.36661H38.8834C39.3074 7.36661 39.6523 7.71148 39.6523 8.13551V13.7863H46.8493C48.2429 13.857 49.5206 14.5807 50.298 15.7396L56.0223 22.8886C56.5029 23.5472 56.7347 24.3557 56.6781 25.1698V28.0644C57.5827 28.3924 58.1876 29.2517 58.1904 30.2157V37.5514C58.1904 37.9783 57.8456 38.3203 57.4216 38.3232H51.8386C51.457 40.8984 49.2465 42.8065 46.643 42.8065C44.0394 42.8065 41.8289 40.8984 41.4473 38.3232H20.1673C19.7856 40.8984 17.5723 42.8065 14.9688 42.8065C12.3652 42.8065 10.1547 40.8984 9.77308 38.3232H6.93776C6.75402 38.3232 6.57593 38.2581 6.43742 38.1366L4.04029 36.4886L4.04311 36.4914C3.83393 36.3473 3.70955 36.1098 3.70955 35.8582V19.1604C1.68836 16.5541 1.31524 13.4248 0.543523 6.90882C0.444584 6.07777 0.339993 5.19012 0.204306 4.08769L0.20148 4.08487C0.14777 3.62975 0.450239 3.20859 0.899698 3.11531C4.15618 2.20508 7.1837 1.41072 10.4998 0.743645C10.6214 0.721031 10.7429 0.721031 10.8616 0.743645C14.1945 1.4136 17.2304 2.21355 20.5037 3.13231H20.5065C20.9249 3.24821 21.1963 3.65244 21.1426 4.08494L20.7469 7.36661ZM2.03665 4.62176C2.12146 5.31433 2.20626 6.02668 2.28541 6.70229C3.44725 16.4833 3.63663 18.0746 10.6669 22.5324C17.7056 18.0745 17.895 16.483 19.057 6.70229C19.139 6.02386 19.221 5.31431 19.3058 4.62176C16.3856 3.80764 13.6437 3.09527 10.6667 2.49882C7.69287 3.09528 4.95656 3.80764 2.0334 4.62176H2.03665ZM34.4857 28.4346C34.6949 28.4289 34.8984 28.5081 35.0482 28.6523C35.1952 28.7964 35.28 28.9971 35.28 29.2063C35.28 29.4155 35.1952 29.6134 35.0482 29.7604C34.8984 29.9045 34.6949 29.9837 34.4857 29.9752H21.8693C21.663 29.9837 21.4595 29.9045 21.3096 29.7604C21.1598 29.6134 21.075 29.4155 21.075 29.2063C21.075 28.9971 21.1598 28.7964 21.3096 28.6523C21.4595 28.5081 21.663 28.429 21.8693 28.4346H28.1775H34.4857ZM34.4857 24.9689C34.9125 24.9689 35.2574 25.3138 35.2574 25.7406C35.2574 26.1646 34.9125 26.5095 34.4857 26.5095H27.8427C27.4158 26.5095 27.071 26.1646 27.071 25.7406C27.071 25.3138 27.4158 24.9689 27.8427 24.9689H34.4857ZM54.4313 29.4777V32.1518H56.6531V30.2211C56.6531 29.212 55.1125 29.4777 54.4313 29.4777ZM44.017 28.9943C43.593 28.9943 43.2481 28.6494 43.2481 28.2226C43.2481 27.7957 43.593 27.4509 44.017 27.4509H45.4332C45.8601 27.4509 46.205 27.7957 46.205 28.2226C46.205 28.6494 45.8601 28.9943 45.4332 28.9943H44.017ZM51.0191 19.0975H45.2015V24.1066L54.9767 24.1038C54.9399 24.0133 54.8891 23.9314 54.8269 23.855L51.0191 19.0975ZM49.2692 34.9276C48.2063 33.8647 46.6092 33.5482 45.2241 34.122C43.8361 34.6958 42.9315 36.0499 42.9315 37.5509C42.9315 39.0519 43.8361 40.406 45.2241 40.9798C46.6093 41.5537 48.2064 41.2371 49.2692 40.1742C50.7166 38.7268 50.7166 36.3778 49.2692 34.9276ZM17.5945 34.9276C16.5345 33.8647 14.9373 33.5482 13.5494 34.122C12.1614 34.6958 11.2568 36.0499 11.2568 37.5509C11.2568 39.0519 12.1614 40.406 13.5494 40.9798C14.9374 41.5537 16.5345 41.2371 17.5945 40.1742C18.2899 39.4788 18.6828 38.5346 18.6828 37.5509C18.6828 36.5671 18.2899 35.623 17.5945 34.9276Z" fill="white"/>
</svg>
