<svg width="244" height="29" viewBox="0 0 244 29" fill="none" xmlns="http://www.w3.org/2000/svg">
<path d="M174.571 0.00504684C166.793 0.00504684 160.484 6.48055 160.484 14.4652C160.484 22.4498 166.793 28.9253 174.571 28.9253C182.349 28.9253 188.658 22.4498 188.658 14.4652C188.658 6.48055 182.354 0.00504684 174.571 0.00504684ZM174.571 23.4996C169.711 23.4996 165.774 19.4568 165.774 14.4702C165.774 9.48361 169.711 5.44084 174.571 5.44084C179.431 5.44084 183.368 9.48361 183.368 14.4702C183.368 19.4568 179.431 23.4996 174.571 23.4996Z" fill="#C4A053"/>
<path d="M47.4938 0.00504684C39.7162 0.00504684 33.4072 6.48055 33.4072 14.4652C33.4072 22.4498 39.7162 28.9253 47.4938 28.9253C55.2715 28.9253 61.5805 22.4498 61.5805 14.4652C61.5805 6.48055 55.2766 0.00504684 47.4938 0.00504684ZM47.4938 23.4996C42.6334 23.4996 38.6966 19.4568 38.6966 14.4702C38.6966 9.48361 42.6334 5.44084 47.4938 5.44084C52.3543 5.44084 56.291 9.48361 56.291 14.4702C56.291 19.4568 52.3543 23.4996 47.4938 23.4996Z" fill="#C4A053"/>
<path d="M141.114 0.00504684H127.638C127.638 0.00504684 127.628 0.010094 127.628 0.0151412V28.9101V28.9202H127.638H141.114C145.005 28.9202 148.523 27.3001 151.072 24.6857C153.621 22.0712 155.196 18.4524 155.196 14.4601C155.201 6.48055 148.892 0.00504684 141.114 0.00504684ZM147.332 20.8498C145.742 22.4851 143.542 23.4945 141.114 23.4945H132.917V5.43579H141.114C145.974 5.43579 149.911 9.47856 149.911 14.4652C149.911 16.9585 148.927 19.2145 147.337 20.8498H147.332Z" fill="#C4A053"/>
<path d="M244 5.43579V0.00504684H227.117H225.013V28.9253H227.117H230.302H244V23.4996H230.302V17.1805H241.33V11.7498H230.302V5.43579H244Z" fill="#C4A053"/>
<path d="M212.122 17.7811C212.728 17.3925 213.293 16.9332 213.798 16.4134C215.493 14.6721 216.538 12.2696 216.538 9.61484C216.538 4.31027 212.344 0.00504684 207.176 0.00504684H193.952V28.9253H199.242V5.4156H207.166C209.422 5.4156 211.249 7.29315 211.249 9.60979C211.249 10.7656 210.789 11.8154 210.053 12.5775C209.765 12.8703 209.437 13.1226 209.073 13.3195C208.503 13.6324 207.852 13.809 207.161 13.809H201.906V19.2398H206.651L213.263 28.9354H219.718L212.117 17.7862L212.122 17.7811Z" fill="#C4A053"/>
<path d="M86.9275 17.2815L72.1595 4.56263L66.8701 0.00504684V7.0963V28.9253H72.1595V11.6488L86.9275 24.3727L92.2169 28.9253V21.8391V0.00504684H86.9275V17.2815Z" fill="#C4A053"/>
<path d="M97.5059 5.43579H107.277V28.9253H112.567V5.43579H122.338V0.00504684H97.5059V5.43579Z" fill="#C4A053"/>
<path d="M0 0V9.46847V28.9253H5.28942V17.2209L14.0614 28.9253L22.8333 17.231V28.9253H28.1228V9.47856V0.0100943L14.0614 19.4618L0 0Z" fill="#C4A053"/>
</svg>
