<svg width="56" height="56" viewBox="0 0 56 56" fill="none" xmlns="http://www.w3.org/2000/svg">
<path d="M52.6679 15.9967C52.4231 15.4865 51.8109 15.2722 51.3109 15.5171C50.8008 15.762 50.5865 16.3742 50.8314 16.8741C55.484 26.598 53.4842 38.2703 45.8523 45.9019C41.0262 50.728 34.6285 53.3808 27.8131 53.3808C20.9978 53.3808 14.6003 50.7279 9.78447 45.9019C4.95841 41.0861 2.30566 34.6782 2.30566 27.8733C2.30566 21.0684 4.95848 14.65 9.78447 9.83414C17.4167 2.20188 29.0787 0.202392 38.8123 4.8652C39.7714 5.31414 40.6897 5.85489 41.5773 6.42627L39.598 8.40564C39.4041 8.5995 39.3021 8.85458 39.3021 9.13008V13.1399C38.3838 12.4256 37.4043 11.7829 36.3738 11.2625C29.1196 7.52814 20.3648 8.89539 14.5903 14.6601C7.29503 21.9555 7.29503 33.8218 14.5903 41.1171C18.2328 44.7596 23.0284 46.586 27.8136 46.586C32.5988 46.586 37.3944 44.7596 41.0368 41.1171C46.8118 35.3421 48.1794 26.5878 44.4345 19.3337C44.1794 18.8337 43.5672 18.6398 43.057 18.8949C42.5571 19.15 42.3632 19.7724 42.6183 20.2724C45.9445 26.7411 44.7304 34.5365 39.588 39.6789C33.0886 46.1782 22.5179 46.1782 16.0186 39.6789C9.51929 33.1795 9.51922 22.6088 16.0186 16.1095C21.161 10.9671 28.9558 9.75292 35.4251 13.0792C36.6495 13.7016 37.7922 14.4872 38.833 15.4157L33.9967 20.2519C32.9152 19.3744 31.6704 18.7317 30.344 18.3847C26.9565 17.4665 23.304 18.4357 20.8245 20.9253C16.978 24.7719 16.978 31.0266 20.8245 34.8727C22.7427 36.7909 25.2731 37.7602 27.7934 37.7602C30.3136 37.7602 32.8439 36.8011 34.7622 34.8727C37.2517 32.3934 38.2211 28.7407 37.3027 25.3533C37.1599 24.8125 36.5987 24.486 36.0477 24.639C35.507 24.7819 35.1805 25.343 35.3335 25.894C36.0579 28.5775 35.2927 31.4752 33.3235 33.444C30.2727 36.4948 25.3138 36.4948 22.263 33.444C19.2122 30.3933 19.2122 25.4343 22.263 22.3835C24.2322 20.4143 27.1197 19.6389 29.8234 20.3735C30.8131 20.6286 31.7416 21.0878 32.5578 21.7101L27.0788 27.1892C26.6809 27.5871 26.6809 28.2299 27.0788 28.6278C27.2828 28.8319 27.5379 28.9237 27.8032 28.9237C28.0685 28.9237 28.3236 28.8217 28.5277 28.6278L40.7309 16.4246H46.5569C46.8324 16.4246 47.0875 16.3123 47.2814 16.1287L53.5359 9.87417C53.8317 9.57828 53.9134 9.13955 53.7603 8.76205C53.6073 8.38455 53.2298 8.12945 52.8216 8.12945H47.5875V2.89527C47.5875 2.48714 47.3426 2.10964 46.9549 1.95658C46.5773 1.80353 46.1386 1.88515 45.8427 2.18105L43.0369 4.98692C41.9656 4.27267 40.8432 3.60948 39.6801 3.05855C29.1707 -1.97158 16.5697 0.191486 8.33605 8.42543C3.13243 13.6291 0.265625 20.5464 0.265625 27.9136C0.265625 35.2807 3.13269 42.1875 8.33605 47.3912C13.5394 52.595 20.457 55.4617 27.8137 55.4617C35.1704 55.4617 42.0877 52.5946 47.3019 47.3912C55.546 39.1471 57.6989 26.5462 52.6687 16.0472L52.6679 15.9967ZM46.5767 10.1299H50.3621L46.1482 14.3437H41.3425V9.53806L45.5564 5.32418V9.10956C45.5564 9.67074 46.0155 10.1299 46.5767 10.1299Z" fill="#404040"/>
</svg>
