<svg width="38" height="34" viewBox="0 0 38 34" fill="none" xmlns="http://www.w3.org/2000/svg">
<path d="M31.5003 27.0404L29.6931 28.7202L27.9951 27.0768L29.6992 23.2441L31.5003 27.0404Z" fill="black"/>
<path d="M29.3652 29.2545V30.7585L26.418 27.9022L27.5217 27.4595L29.3652 29.2545Z" fill="black"/>
<path d="M33.0584 27.8536L29.9717 30.7281V29.2848L31.9487 27.4473L33.0584 27.8536Z" fill="black"/>
<path d="M29.7479 17.8717C29.6247 17.8624 29.5011 17.8624 29.3779 17.8717V18.1931C29.3779 18.2735 29.4099 18.3506 29.4667 18.4075C29.5236 18.4644 29.6007 18.4963 29.6811 18.4963C29.7616 18.4963 29.8387 18.4644 29.8956 18.4075C29.9524 18.3506 29.9844 18.2735 29.9844 18.1931V17.902L29.7479 17.8717Z" fill="black"/>
<path d="M30.9668 19.1153C30.9668 19.4124 30.4695 19.7217 29.7539 19.7217C29.0383 19.7217 28.541 19.3882 28.541 19.1153C28.541 18.8424 29.0383 18.4785 29.7539 18.4785C30.4695 18.4785 30.9668 18.7999 30.9668 19.1153Z" fill="black"/>
<path d="M33.046 27.1986L32.0758 26.8408L29.6864 21.7892L27.4487 26.8348H27.4001L26.4541 27.2411L29.4863 20.3398H29.7289H29.7834L33.046 27.1986Z" fill="black"/>
<path d="M29.9844 14.8696V18.1929C29.9844 18.2733 29.9524 18.3504 29.8956 18.4073C29.8387 18.4642 29.7616 18.4961 29.6811 18.4961C29.6007 18.4961 29.5236 18.4642 29.4667 18.4073C29.4099 18.3504 29.3779 18.2733 29.3779 18.1929V14.8696C29.3779 14.7892 29.4099 14.7121 29.4667 14.6552C29.5236 14.5984 29.6007 14.5664 29.6811 14.5664C29.7611 14.568 29.8373 14.6004 29.8938 14.6569C29.9504 14.7135 29.9828 14.7897 29.9844 14.8696Z" fill="black"/>
<path d="M20.4454 29.5272L18.6382 31.2071L16.9463 29.5636L18.6443 25.731L20.4454 29.5272Z" fill="black"/>
<path d="M22.0098 30.3399L18.917 33.2205V31.7711L20.9061 29.9336L22.0098 30.3399Z" fill="black"/>
<path d="M18.3104 31.7408V33.2509L15.3691 30.3946L16.4607 29.9458L18.3104 31.7408Z" fill="black"/>
<path d="M18.6983 20.3578C18.5731 20.3486 18.4474 20.3486 18.3223 20.3578V20.6368C18.3223 20.7172 18.3542 20.7943 18.4111 20.8512C18.4679 20.9081 18.5451 20.94 18.6255 20.94C18.7059 20.94 18.783 20.9081 18.8399 20.8512C18.8968 20.7943 18.9287 20.7172 18.9287 20.6368V20.3457L18.6983 20.3578Z" fill="black"/>
<path d="M21.9978 29.7151L21.0275 29.3633L18.6018 24.2996L16.3883 29.3269H16.3459L15.3877 29.7151L18.4502 22.832H18.6988H18.7473L21.9978 29.7151Z" fill="black"/>
<path d="M19.9112 21.6016C19.9112 21.8684 19.5292 22.1534 18.9531 22.208H18.6984C18.5853 22.2147 18.4719 22.2147 18.3588 22.208C17.8433 22.117 17.5098 21.8502 17.5098 21.6016C17.5098 21.3529 18.0131 20.9951 18.7226 20.9951C19.4322 20.9951 19.9112 21.2983 19.9112 21.6016Z" fill="black"/>
<path d="M18.9287 18.326V20.6607C18.9287 20.7412 18.8968 20.8183 18.8399 20.8751C18.783 20.932 18.7059 20.964 18.6255 20.964C18.5451 20.964 18.4679 20.932 18.4111 20.8751C18.3542 20.8183 18.3223 20.7412 18.3223 20.6607V18.326C18.322 18.2512 18.35 18.1791 18.4006 18.124C18.4511 18.0689 18.5206 18.0349 18.5952 18.0288H18.6861C18.7546 18.0428 18.8162 18.08 18.8604 18.1342C18.9046 18.1883 18.9287 18.2561 18.9287 18.326Z" fill="black"/>
<path d="M9.86262 27.1078L8.05544 28.7876L6.35742 27.1442L8.0615 23.3115L9.86262 27.1078Z" fill="black"/>
<path d="M7.72755 29.3211V30.8251L4.78027 27.9688L5.87792 27.52L7.72755 29.3211Z" fill="black"/>
<path d="M11.4207 27.9205L8.33398 30.795V29.3517L10.311 27.5142L11.4207 27.9205Z" fill="black"/>
<path d="M8.11622 17.9381C7.99106 17.9288 7.86539 17.9288 7.74023 17.9381V18.217C7.74023 18.2975 7.77218 18.3746 7.82904 18.4315C7.88591 18.4883 7.96303 18.5203 8.04345 18.5203C8.12387 18.5203 8.20099 18.4883 8.25786 18.4315C8.31472 18.3746 8.34667 18.2975 8.34667 18.217V17.9502L8.11622 17.9381Z" fill="black"/>
<path d="M9.32927 19.1817C9.32927 19.4789 8.83199 19.7882 8.1164 19.7882C7.99047 19.7878 7.86476 19.7777 7.74041 19.7578C7.22494 19.6669 6.89746 19.4 6.89746 19.1514C6.89746 18.9028 7.39474 18.5146 8.11033 18.5146C8.82592 18.5146 9.32927 18.8785 9.32927 19.1817Z" fill="black"/>
<path d="M11.4088 27.2899L10.4385 26.9321L8.04305 21.832L5.83563 26.9018H5.78711L4.80469 27.2899L7.83686 20.3887H8.0855H8.13402L11.4088 27.2899Z" fill="black"/>
<path d="M8.34667 14.9364V18.2415C8.34667 18.3219 8.31472 18.399 8.25786 18.4559C8.20099 18.5128 8.12387 18.5447 8.04345 18.5447C7.96303 18.5447 7.88591 18.5128 7.82904 18.4559C7.77218 18.399 7.74023 18.3219 7.74023 18.2415V14.9364C7.74023 14.856 7.77218 14.7789 7.82904 14.722C7.88591 14.6652 7.96303 14.6332 8.04345 14.6332C8.07928 14.6242 8.11678 14.6242 8.15261 14.6332C8.18248 14.6588 8.21501 14.6812 8.24964 14.6999C8.28239 14.7296 8.3081 14.7663 8.32489 14.8072C8.34167 14.8481 8.34912 14.8923 8.34667 14.9364Z" fill="black"/>
<path d="M36.0429 1.61309C35.9822 1.74419 35.8932 1.86018 35.7822 1.95269C35.6401 2.0648 35.4658 2.12854 35.2849 2.13462C35.1424 2.14015 35.0013 2.10435 34.8786 2.03153C34.7026 1.94097 34.5629 1.79295 34.4827 1.61204C34.4024 1.43113 34.3865 1.22822 34.4375 1.037C34.4885 0.845774 34.6033 0.677745 34.763 0.56081C34.9227 0.443875 35.1175 0.385068 35.3152 0.394155C35.3956 0.382287 35.4774 0.382287 35.5578 0.394155H35.6427C35.7741 0.445788 35.8878 0.534224 35.9702 0.648857C36.0745 0.785219 36.1369 0.948966 36.1498 1.12016C36.1627 1.29136 36.1256 1.46262 36.0429 1.61309Z" fill="black"/>
<path d="M34.6961 4.01455C34.6729 4.05829 34.6444 4.09903 34.6112 4.13583C34.4777 4.29358 34.2909 4.39679 34.0863 4.42586C33.8817 4.45493 33.6736 4.40783 33.5014 4.29351C33.3122 4.16194 33.1808 3.96261 33.1345 3.73681C33.0882 3.51101 33.1306 3.27606 33.2528 3.08064C33.3353 2.95649 33.447 2.85451 33.5781 2.78366C33.7092 2.71281 33.8557 2.67527 34.0048 2.67433C34.1598 2.67357 34.3124 2.71329 34.4475 2.78955C34.5415 2.84291 34.6235 2.91518 34.6882 3.00182C34.7529 3.08845 34.799 3.18756 34.8235 3.29289C34.8575 3.41505 34.8637 3.54329 34.8416 3.66817C34.8196 3.79305 34.7699 3.91141 34.6961 4.01455Z" fill="black"/>
<path d="M33.1256 6.24025C33.054 6.33733 32.9633 6.41865 32.8589 6.47916C32.7546 6.53967 32.6389 6.57807 32.5191 6.59198C32.4114 6.60531 32.3021 6.5966 32.1979 6.56636C32.0936 6.53613 31.9966 6.48501 31.9127 6.41611C31.7664 6.2993 31.6612 6.13883 31.6124 5.95808C31.5636 5.77733 31.5738 5.58572 31.6415 5.41115C31.7091 5.23658 31.8307 5.08817 31.9886 4.98751C32.1465 4.88685 32.3323 4.83921 32.5191 4.85151C32.6992 4.85053 32.8751 4.90564 33.0225 5.00918C33.1124 5.07114 33.1885 5.1511 33.246 5.24401C33.3034 5.33692 33.3409 5.44075 33.356 5.54891C33.3681 5.67385 33.3538 5.79994 33.3141 5.91902C33.2744 6.0381 33.2102 6.14753 33.1256 6.24025Z" fill="black"/>
<path d="M31.633 7.65327C31.6428 7.77577 31.6268 7.89897 31.5861 8.01491C31.5453 8.13085 31.4807 8.23697 31.3965 8.32641C31.3212 8.41536 31.2286 8.4881 31.1244 8.54022C31.0201 8.59234 30.9064 8.62276 30.79 8.62963C30.6785 8.63567 30.5669 8.61829 30.4624 8.5786C30.358 8.53891 30.263 8.47779 30.1836 8.39919C30.0585 8.27762 29.9723 8.12158 29.9361 7.95091C29.8999 7.78024 29.9153 7.60266 29.9803 7.44077C30.0454 7.27887 30.1571 7.13998 30.3012 7.04175C30.4454 6.94353 30.6156 6.89041 30.79 6.88916C30.9966 6.88853 31.1966 6.96165 31.354 7.09535C31.4363 7.16424 31.5035 7.24932 31.5515 7.34531C31.5995 7.44129 31.6272 7.54612 31.633 7.65327Z" fill="black"/>
<path d="M29.7902 9.60619C29.7879 9.7313 29.7597 9.85458 29.7075 9.96831C29.6554 10.0821 29.5803 10.1838 29.487 10.2672C29.4 10.3521 29.2963 10.418 29.1826 10.4608C29.0688 10.5036 28.9474 10.5223 28.826 10.5158C28.7183 10.5113 28.6127 10.4848 28.5157 10.4378C28.4187 10.3909 28.3324 10.3246 28.262 10.2429C28.1128 10.0724 28.0357 9.85056 28.047 9.62424C28.0583 9.39792 28.1572 9.18486 28.3226 9.03007C28.4861 8.87493 28.7038 8.79002 28.9291 8.79356C29.1555 8.79643 29.3723 8.88532 29.5355 9.0422C29.615 9.11325 29.6787 9.20013 29.7225 9.29726C29.7664 9.39438 29.7894 9.49962 29.7902 9.60619Z" fill="black"/>
<path d="M27.6011 10.8188C27.5168 10.7235 27.4132 10.6471 27.2971 10.5948C27.1811 10.5425 27.0552 10.5155 26.928 10.5156H26.8734C26.6961 10.5217 26.5258 10.5856 26.3882 10.6976C26.2522 10.7978 26.154 10.9409 26.1093 11.1039C26.0732 11.1946 26.0547 11.2913 26.0547 11.3889C26.0542 11.5736 26.1114 11.7538 26.2184 11.9044C26.2796 11.9918 26.3579 12.0659 26.4486 12.1222C26.5393 12.1785 26.6405 12.2158 26.746 12.2318C26.8693 12.2475 26.9945 12.2384 27.1143 12.2051C27.234 12.1718 27.3459 12.1149 27.4434 12.0378C27.5391 11.9654 27.6191 11.8743 27.6785 11.7701C27.738 11.6658 27.7756 11.5506 27.7891 11.4313C27.8013 11.3218 27.7909 11.211 27.7585 11.1056C27.7262 11.0003 27.6726 10.9027 27.6011 10.8188ZM27.6011 10.8188C27.5168 10.7235 27.4132 10.6471 27.2971 10.5948C27.1811 10.5425 27.0552 10.5155 26.928 10.5156H26.8734L26.1093 11.1221C26.0732 11.2128 26.0547 11.3095 26.0547 11.4071C26.0542 11.5918 26.1114 11.772 26.2184 11.9226C26.2796 12.01 26.3579 12.0841 26.4486 12.1404C26.5393 12.1967 26.6405 12.234 26.746 12.25C26.8693 12.2657 26.9945 12.2566 27.1143 12.2233C27.234 12.19 27.3459 12.1331 27.4434 12.056C27.5391 11.9836 27.6191 11.8925 27.6785 11.7883C27.738 11.684 27.7756 11.5688 27.7891 11.4495C27.8039 11.3371 27.7947 11.2228 27.7624 11.1141C27.73 11.0055 27.675 10.9048 27.6011 10.8188Z" fill="black"/>
<path d="M27.7891 11.4191C27.7756 11.5384 27.738 11.6536 27.6785 11.7579C27.6191 11.8621 27.5391 11.9532 27.4434 12.0256C27.3459 12.1027 27.234 12.1596 27.1143 12.1929C26.9945 12.2262 26.8693 12.2353 26.746 12.2196C26.6405 12.2036 26.5393 12.1663 26.4486 12.11C26.3579 12.0537 26.2796 11.9796 26.2184 11.8922C26.1114 11.7416 26.0542 11.5614 26.0547 11.3767C26.0547 11.2791 26.0732 11.1824 26.1093 11.0917C26.154 10.9287 26.2522 10.7856 26.3882 10.6853C26.5258 10.5734 26.6961 10.5095 26.8734 10.5034H26.928C27.0552 10.5033 27.1811 10.5303 27.2971 10.5826C27.4132 10.6349 27.5168 10.7113 27.6011 10.8066C27.6726 10.8905 27.7262 10.9881 27.7585 11.0934C27.7909 11.1988 27.8013 11.3096 27.7891 11.4191Z" fill="black"/>
<path d="M25.6181 13.0387C25.5949 13.1635 25.5456 13.282 25.4735 13.3865C25.4014 13.491 25.3081 13.5791 25.1997 13.6451C25.0925 13.7126 24.9726 13.7572 24.8473 13.776C24.722 13.7948 24.5942 13.7874 24.472 13.7543C24.3696 13.7281 24.274 13.6806 24.1914 13.6147C24.1088 13.5488 24.0411 13.4662 23.9929 13.3722C23.8882 13.1735 23.8612 12.9429 23.9173 12.7254C23.9733 12.5079 24.1084 12.319 24.2961 12.1957C24.4331 12.1123 24.5905 12.0682 24.7509 12.0684C24.895 12.068 25.037 12.1026 25.1648 12.1691C25.2926 12.2357 25.4024 12.3322 25.4847 12.4504C25.6054 12.6211 25.6534 12.8326 25.6181 13.0387Z" fill="black"/>
<path d="M23.2532 14.3786C23.2076 14.4969 23.1384 14.6048 23.0497 14.6955C22.9611 14.7862 22.8549 14.8579 22.7377 14.9062C22.6189 14.9573 22.491 14.9836 22.3617 14.9836C22.2324 14.9836 22.1045 14.9573 21.9857 14.9062C21.8905 14.8616 21.8057 14.7976 21.7367 14.7182C21.6678 14.6388 21.6163 14.5459 21.5855 14.4453C21.5596 14.3566 21.5453 14.2648 21.543 14.1724C21.541 13.9969 21.5905 13.8247 21.6853 13.677C21.7802 13.5294 21.9162 13.4127 22.0767 13.3416C22.1806 13.2986 22.2917 13.276 22.4042 13.2749C22.5704 13.2764 22.7331 13.3229 22.8751 13.4094C23.0171 13.4958 23.1331 13.6191 23.2107 13.7661C23.2578 13.8604 23.2857 13.963 23.293 14.0681C23.3003 14.1732 23.2868 14.2787 23.2532 14.3786Z" fill="black"/>
<path d="M20.657 15.2941C20.5834 15.4052 20.4875 15.4999 20.3754 15.5721C20.2633 15.6443 20.1374 15.6924 20.0058 15.7135C19.8741 15.7346 19.7396 15.7281 19.6105 15.6946C19.4815 15.661 19.3608 15.601 19.2562 15.5185C19.1765 15.4542 19.1123 15.3729 19.0683 15.2805C19.0242 15.1882 19.0014 15.0871 19.0014 14.9848C18.9945 14.7641 19.0645 14.5478 19.1995 14.373C19.3345 14.1982 19.526 14.0758 19.7413 14.0267C19.9588 14.0049 20.177 14.0596 20.3586 14.1813C20.5401 14.3031 20.6735 14.4843 20.7359 14.6937C20.7687 14.7933 20.7786 14.899 20.765 15.0029C20.7513 15.1069 20.7144 15.2064 20.657 15.2941Z" fill="black"/>
<path d="M18.116 14.9851C18.1161 15.0875 18.0933 15.1885 18.0492 15.2809C18.0051 15.3732 17.9409 15.4545 17.8613 15.5188C17.7569 15.6048 17.6349 15.6667 17.5039 15.7003C17.3729 15.7338 17.2361 15.7381 17.1033 15.7129C16.9717 15.693 16.8458 15.6455 16.7339 15.5734C16.622 15.5012 16.5268 15.4061 16.4544 15.2944C16.3992 15.2047 16.3636 15.1042 16.35 14.9997C16.3364 14.8951 16.3451 14.7889 16.3756 14.688C16.4349 14.4984 16.5511 14.3315 16.7084 14.2101C16.8656 14.0886 17.0564 14.0183 17.2549 14.0088H17.3762C17.5947 14.0585 17.7887 14.1836 17.924 14.3622C18.0593 14.5408 18.1273 14.7614 18.116 14.9851Z" fill="black"/>
<path d="M15.5388 14.4395C15.508 14.54 15.4565 14.633 15.3875 14.7123C15.3186 14.7917 15.2338 14.8558 15.1386 14.9004C15.0198 14.9514 14.8918 14.9777 14.7626 14.9777C14.6333 14.9777 14.5053 14.9514 14.3866 14.9004C14.2686 14.8516 14.1619 14.7791 14.0732 14.6873C13.9845 14.5955 13.9157 14.4863 13.8711 14.3667C13.8374 14.2679 13.8237 14.1633 13.831 14.0592C13.8383 13.955 13.8664 13.8534 13.9136 13.7603C13.9907 13.6128 14.1065 13.4892 14.2486 13.4027C14.3907 13.3161 14.5537 13.2699 14.7201 13.269C14.8325 13.2707 14.9435 13.2933 15.0476 13.3358C15.2495 13.4288 15.4106 13.592 15.501 13.7951C15.5914 13.9982 15.6048 14.2272 15.5388 14.4395Z" fill="black"/>
<path d="M13.1131 13.3421C13.0634 13.4349 12.9953 13.5167 12.9129 13.5824C12.8305 13.648 12.7357 13.6963 12.6341 13.7241C12.5116 13.7558 12.3841 13.7625 12.2591 13.7437C12.134 13.725 12.0141 13.6812 11.9063 13.615C11.7979 13.5489 11.7046 13.4608 11.6325 13.3563C11.5604 13.2518 11.5111 13.1333 11.4879 13.0085C11.4671 12.9041 11.4676 12.7965 11.4895 12.6923C11.5114 12.588 11.5542 12.4893 11.6152 12.4021C11.6972 12.2835 11.8069 12.1867 11.9348 12.1201C12.0626 12.0535 12.2049 12.0192 12.349 12.02C12.5095 12.0199 12.6668 12.064 12.8039 12.1474C12.9973 12.2702 13.1368 12.4619 13.1942 12.6837C13.2516 12.9055 13.2226 13.1408 13.1131 13.3421Z" fill="black"/>
<path d="M10.8993 11.9103C10.8381 11.9978 10.7598 12.0719 10.6691 12.1282C10.5784 12.1845 10.4772 12.2218 10.3717 12.2378C10.1237 12.2666 9.87417 12.1993 9.67428 12.0498C9.57957 11.9764 9.50028 11.8851 9.44096 11.781C9.38164 11.677 9.34346 11.5622 9.32861 11.4433C9.31582 11.3347 9.32594 11.2247 9.35832 11.1202C9.3907 11.0157 9.44463 10.9192 9.51661 10.8369C9.60089 10.7415 9.7045 10.6652 9.82056 10.6129C9.93661 10.5606 10.0625 10.5336 10.1898 10.5337C10.3858 10.5331 10.5762 10.5994 10.7295 10.7217C10.9019 10.8622 11.0152 11.0626 11.0466 11.2828C11.0781 11.5031 11.0255 11.7271 10.8993 11.9103Z" fill="black"/>
<path d="M8.86828 10.2426C8.79792 10.3242 8.71157 10.3905 8.61456 10.4374C8.51756 10.4844 8.41196 10.5109 8.3043 10.5154C8.18199 10.5221 8.05963 10.5034 7.94486 10.4606C7.83009 10.4178 7.72536 10.3519 7.63722 10.2668C7.54796 10.1822 7.4763 10.0808 7.42634 9.96837C7.37639 9.85598 7.34913 9.73482 7.34613 9.61186C7.34244 9.49896 7.36269 9.38655 7.40554 9.28203C7.44839 9.17751 7.51288 9.08324 7.59477 9.00543C7.75897 8.85107 7.97585 8.76514 8.2012 8.76514C8.42656 8.76514 8.64344 8.85107 8.80764 9.00543C8.9789 9.16193 9.08138 9.37978 9.09274 9.6115C9.1041 9.84322 9.02342 10.07 8.86828 10.2426Z" fill="black"/>
<path d="M6.9451 8.39918C6.86615 8.47842 6.77124 8.53994 6.66668 8.57968C6.56213 8.61941 6.45031 8.63643 6.33866 8.62963C6.21704 8.6242 6.09769 8.59472 5.98751 8.54291C5.87734 8.4911 5.77852 8.41797 5.69676 8.32776C5.615 8.23754 5.55193 8.13203 5.51118 8.0173C5.47042 7.90257 5.45281 7.78091 5.45933 7.65933C5.46719 7.55053 5.49704 7.44444 5.54707 7.3475C5.59711 7.25057 5.66628 7.16478 5.75042 7.09535C5.906 6.96253 6.10378 6.88944 6.30834 6.88916C6.43256 6.88998 6.55529 6.91622 6.66898 6.96629C6.78266 7.01635 6.88489 7.08917 6.96936 7.18025C7.12224 7.34785 7.20496 7.56774 7.20045 7.79456C7.19593 8.02137 7.10453 8.2378 6.9451 8.39918Z" fill="black"/>
<path d="M5.22898 6.41568C5.1451 6.48458 5.04809 6.5357 4.94383 6.56593C4.83958 6.59616 4.73027 6.60488 4.62254 6.59154C4.50313 6.57627 4.38797 6.53729 4.28383 6.47689C4.17968 6.41649 4.08866 6.33588 4.01611 6.23981C3.94253 6.14417 3.88858 6.03493 3.85735 5.91836C3.82613 5.8018 3.81826 5.68022 3.83418 5.5606C3.84936 5.45244 3.88684 5.34862 3.94426 5.25571C4.00167 5.16279 4.07777 5.08283 4.16772 5.02088C4.2999 4.92183 4.45779 4.86288 4.62254 4.85107C4.75774 4.85145 4.89112 4.88216 5.01287 4.94093C5.13462 4.99971 5.24163 5.08505 5.32601 5.19068C5.46866 5.36891 5.53804 5.59481 5.52001 5.82239C5.50198 6.04997 5.39791 6.26212 5.22898 6.41568Z" fill="black"/>
<path d="M3.60965 4.29337C3.52289 4.35544 3.42419 4.3988 3.3198 4.42073C3.21541 4.44265 3.1076 4.44265 3.00321 4.42072C2.87929 4.39714 2.76153 4.34837 2.65722 4.27744C2.55291 4.20651 2.46426 4.11492 2.39678 4.00835C2.33086 3.90732 2.2866 3.79373 2.26676 3.67474C2.24693 3.55576 2.25197 3.43395 2.28155 3.31701C2.30596 3.21086 2.35193 3.11086 2.41661 3.02323C2.48129 2.9356 2.5633 2.8622 2.65754 2.8076C2.85442 2.68967 3.08961 2.65338 3.31288 2.70648C3.53615 2.75959 3.72981 2.89788 3.85251 3.09182C3.97521 3.28577 4.01723 3.52 3.96958 3.7445C3.92194 3.969 3.78841 4.16598 3.59752 4.29337H3.60965Z" fill="black"/>
<path d="M2.23953 2.03151C2.14807 2.08269 2.04726 2.11496 1.94309 2.12642C1.83891 2.13788 1.73349 2.12829 1.6331 2.09822C1.5132 2.06012 1.40266 1.99724 1.30863 1.91366C1.2146 1.83009 1.1392 1.72767 1.08731 1.61307C1.00386 1.4461 0.96818 1.25932 0.984211 1.07335C0.997792 0.958448 1.03631 0.847902 1.09706 0.749439C1.15781 0.650975 1.23934 0.56697 1.33594 0.503297L1.47542 0.442654C1.57872 0.406464 1.68739 0.38801 1.79683 0.388075C1.99371 0.382272 2.18676 0.443195 2.34465 0.560949C2.50253 0.678703 2.61597 0.846373 2.66655 1.03673C2.71712 1.22709 2.70186 1.42895 2.62324 1.60954C2.54462 1.79013 2.40726 1.93884 2.23347 2.03151H2.23953Z" fill="black"/>
<path d="M37.055 0C36.7214 10.176 28.8378 18.0596 18.8619 18.0596H18.5708C14.8804 18.0014 11.2911 16.8444 8.26145 14.7364C8.23422 14.7075 8.20114 14.6847 8.16442 14.6697C5.78527 13.0061 3.82013 10.8181 2.42063 8.2746C1.02114 5.73111 0.224697 2.90009 0.0927734 0C0.209285 0.085624 0.338098 0.153098 0.474828 0.200124C0.554762 0.229804 0.638449 0.248174 0.723466 0.254703C0.537476 0.459241 0.417072 0.714837 0.377798 0.988489C0.337679 1.28123 0.379669 1.57936 0.499085 1.84963C0.497094 1.86371 0.497094 1.878 0.499085 1.89208C0.58891 2.07792 0.716028 2.24328 0.872524 2.37786C1.02902 2.51245 1.21155 2.61338 1.40874 2.67438C1.54612 2.71767 1.6892 2.74016 1.83324 2.74109C1.74923 2.87139 1.68773 3.01489 1.65131 3.16559C1.60079 3.36348 1.59195 3.56971 1.62535 3.77119C1.65876 3.97268 1.73368 4.16502 1.84537 4.33601C1.98524 4.55881 2.18067 4.74138 2.41246 4.86578C2.64425 4.99018 2.90442 5.05213 3.1674 5.04554H3.3372C3.26725 5.18252 3.22014 5.33001 3.19772 5.48217C3.16797 5.68243 3.17895 5.88662 3.23001 6.08253C3.28107 6.27844 3.37116 6.46202 3.49487 6.62227C3.6176 6.78699 3.77203 6.92549 3.94908 7.02964C4.12613 7.13378 4.32222 7.20147 4.52581 7.22871H4.68955C4.78775 7.2293 4.88561 7.21707 4.98064 7.19232C4.92154 7.33301 4.88669 7.48269 4.87755 7.63502C4.86359 7.8384 4.89064 8.04251 4.95708 8.23524C5.02351 8.42797 5.12799 8.6054 5.2643 8.75698C5.40062 8.90857 5.56599 9.03122 5.75061 9.11768C5.93523 9.20413 6.13534 9.25262 6.33905 9.26026H6.3815C6.51931 9.26185 6.65648 9.24138 6.78782 9.19962C6.73919 9.34004 6.71459 9.48765 6.71504 9.63625C6.71857 9.84176 6.76272 10.0445 6.84494 10.2329C6.92716 10.4213 7.04584 10.5916 7.19413 10.7339C7.47545 10.9972 7.84584 11.1445 8.23113 11.1463H8.30997C8.46352 11.1363 8.61475 11.1036 8.75873 11.0492C8.7187 11.1953 8.70636 11.3475 8.72234 11.498C8.74513 11.7054 8.81082 11.9057 8.91522 12.0864C9.01962 12.267 9.16046 12.4239 9.32878 12.5471C9.59996 12.7566 9.93219 12.8716 10.2748 12.8746C10.3495 12.8806 10.4245 12.8806 10.4992 12.8746C10.6443 12.8535 10.7854 12.8105 10.9176 12.7473C10.8934 12.8959 10.8934 13.0474 10.9176 13.196C10.9585 13.3995 11.0417 13.5922 11.1618 13.7614C11.282 13.9307 11.4364 14.0728 11.615 14.1784C11.8598 14.328 12.1408 14.4077 12.4277 14.4089C12.5585 14.4081 12.6888 14.3918 12.8158 14.3604C12.9596 14.3177 13.0964 14.2544 13.2221 14.1724C13.2232 14.3259 13.252 14.4779 13.307 14.6211C13.3793 14.8196 13.4922 15.0007 13.6384 15.1532C13.7845 15.3056 13.9608 15.4259 14.156 15.5065C14.348 15.5872 14.5542 15.6285 14.7624 15.6278C14.9823 15.6284 15.1997 15.5808 15.3992 15.4884C15.5372 15.4214 15.6641 15.3334 15.7752 15.2276C15.8044 15.3786 15.862 15.5226 15.945 15.6521C16.0616 15.8389 16.2175 15.998 16.4018 16.1184C16.5861 16.2389 16.7944 16.3177 17.0123 16.3495C17.1031 16.3585 17.1945 16.3585 17.2852 16.3495C17.6422 16.3523 17.9884 16.2276 18.2616 15.9978C18.3838 15.8934 18.4865 15.7682 18.5648 15.6278C18.6403 15.77 18.7434 15.8958 18.868 15.9978C19.1417 16.2267 19.4876 16.3513 19.8444 16.3495C19.9351 16.3585 20.0265 16.3585 20.1173 16.3495C20.3344 16.3176 20.5421 16.2394 20.7262 16.1201C20.9104 16.0008 21.0667 15.8433 21.1846 15.6582C21.2674 15.5264 21.325 15.3804 21.3544 15.2276C21.4622 15.3346 21.5873 15.4227 21.7243 15.4884C21.9262 15.5802 22.1454 15.6278 22.3671 15.6278C22.575 15.625 22.7806 15.5839 22.9736 15.5065C23.1755 15.4187 23.356 15.2881 23.5026 15.1237C23.6492 14.9593 23.7584 14.7651 23.8226 14.5544C23.8776 14.4112 23.9063 14.2591 23.9075 14.1057C24.0296 14.19 24.1649 14.2535 24.3077 14.2937C24.4368 14.3251 24.5691 14.3414 24.7019 14.3422C24.9887 14.341 25.2698 14.2613 25.5145 14.1117C25.6932 14.0061 25.8476 13.864 25.9677 13.6947C26.0879 13.5255 26.1711 13.3328 26.2119 13.1293C26.2361 12.9807 26.2361 12.8292 26.2119 12.6806C26.3442 12.7438 26.4853 12.7868 26.6304 12.8079C26.705 12.8142 26.7801 12.8142 26.8547 12.8079C27.1974 12.8049 27.5296 12.6899 27.8008 12.4804C27.9691 12.3572 28.1099 12.2003 28.2143 12.0196C28.3187 11.839 28.3844 11.6387 28.4072 11.4313C28.4232 11.2808 28.4109 11.1285 28.3708 10.9825C28.514 11.0397 28.6656 11.0725 28.8196 11.0796H28.8802C29.2639 11.0786 29.6327 10.9311 29.9112 10.6672C30.0606 10.5257 30.1799 10.3556 30.2622 10.167C30.3445 9.97848 30.3881 9.77528 30.3903 9.56954C30.3884 9.43001 30.368 9.29134 30.3296 9.15717C30.4589 9.1989 30.594 9.21939 30.7299 9.21781H30.7784C30.9811 9.21056 31.1802 9.1622 31.3637 9.07568C31.5472 8.98915 31.7112 8.86627 31.8457 8.71447C32.0359 8.50711 32.1637 8.25017 32.2141 7.97332C32.2645 7.69647 32.2356 7.411 32.1307 7.14987C32.2258 7.17462 32.3236 7.18685 32.4218 7.18625H32.5856C32.7883 7.15891 32.9834 7.09114 33.1595 6.98697C33.3355 6.8828 33.4889 6.74435 33.6104 6.57982C33.7361 6.42056 33.8279 6.23724 33.8801 6.04116C33.9322 5.84508 33.9436 5.64039 33.9137 5.43972C33.8903 5.28585 33.8432 5.13652 33.7742 4.99702H33.944C34.1555 4.99644 34.3645 4.9507 34.5569 4.86285C34.7493 4.775 34.9208 4.64707 35.0598 4.48762C35.1135 4.43059 35.1603 4.3675 35.1993 4.29962C35.3124 4.12923 35.389 3.93732 35.4245 3.73593C35.46 3.53453 35.4535 3.32798 35.4055 3.1292C35.3714 2.97585 35.3098 2.82996 35.2235 2.69864H35.2963C35.605 2.70131 35.9066 2.60574 36.1575 2.42574C36.3414 2.27574 36.4904 2.08741 36.5941 1.87388C36.7152 1.62925 36.7662 1.35589 36.7416 1.08404C36.717 0.812187 36.6177 0.552444 36.4546 0.333539C36.4337 0.302561 36.4093 0.274076 36.3818 0.248638C36.6253 0.231328 36.8587 0.145089 37.055 0Z" fill="black"/>
</svg>
