<svg width="53" height="54" viewBox="0 0 53 54" fill="none" xmlns="http://www.w3.org/2000/svg">
<path fill-rule="evenodd" clip-rule="evenodd" d="M24.7586 53.4441L1.04113 25.5653C0.892624 25.4229 0.799805 25.2187 0.799805 24.996C0.799805 24.798 0.874058 24.6123 0.994717 24.4762L9.19387 12.998L9.20625 12.9795L9.21243 12.9671L9.21862 12.9578L9.23409 12.9423L9.24028 12.9331L9.25265 12.9269L9.30525 12.8743H9.30834L9.31763 12.8681L9.32381 12.865L9.33619 12.8526C9.39497 12.8031 9.45685 12.766 9.52491 12.7381L9.55586 12.7258H9.56204L9.59917 12.7134L9.61154 12.7103H9.61773L9.62392 12.7072L9.6363 12.7041V12.6917L9.65486 12.6855L9.66723 12.6825H9.67961L9.68889 12.6794H9.69199L9.71055 12.6763L9.72292 12.6732H9.7353L9.75696 12.6701H40.9529C41.2406 12.6701 41.4912 12.8217 41.6304 13.0506L49.8106 24.4979C49.9219 24.6341 49.9931 24.8104 49.9931 25.0022C49.9931 25.225 49.9003 25.4292 49.7518 25.5715L26.0311 53.444V53.4471L26.0249 53.4533C26.0156 53.4657 26.0064 53.4781 25.9971 53.4904V53.4935H25.9909L25.9847 53.4997L25.9816 53.5059L25.9012 53.5863H25.8981L25.8888 53.5956L25.8826 53.5987C25.864 53.6142 25.8455 53.6266 25.8238 53.642H25.8176L25.8114 53.6482L25.8053 53.6513L25.796 53.6575L25.7898 53.6637L25.7836 53.6668L25.7558 53.6792L25.731 53.6915H25.7248L25.7124 53.6977H25.7093L25.6939 53.7039L25.6877 53.7101L25.6753 53.7163H25.6722L25.6598 53.7225H25.6506L25.6382 53.7287H25.6258L25.6196 53.7317H25.6165L25.6042 53.7348H25.598L25.5887 53.741L25.5825 53.7441H25.5763L25.5639 53.7472H25.5577L25.5268 53.7534H25.2762L25.2607 53.7503L25.2484 53.7472H25.2422L25.2329 53.7441L25.2205 53.741H25.2174L25.2019 53.7379L25.1896 53.7348L25.1772 53.7287L25.1648 53.7256C25.1463 53.7194 25.1277 53.7132 25.1091 53.707C25.0225 53.6699 24.9452 53.6235 24.8802 53.5647L24.8307 53.5152L24.8214 53.5028L24.7997 53.4935L24.7967 53.4873L24.7874 53.4781L24.7781 53.4657V53.4626L24.7657 53.4471L24.7586 53.4441ZM37.2514 6.80985C37.6877 6.80985 38.0434 7.16565 38.0434 7.60189C38.0434 8.04122 37.6877 8.39392 37.2514 8.39392H35.3734V10.2719C35.3734 10.7113 35.0176 11.064 34.5814 11.064C34.1451 11.064 33.7893 10.7113 33.7893 10.2719V8.39392H31.9114C31.4751 8.39392 31.1193 8.04122 31.1193 7.60189C31.1193 7.16565 31.4751 6.80985 31.9114 6.80985H33.7893V4.93186C33.7893 4.49252 34.1451 4.13982 34.5814 4.13982C35.0207 4.13982 35.3734 4.49252 35.3734 4.93186V6.80985H37.2514ZM52.034 14.1207H50.156V12.2427C50.156 11.8065 49.8002 11.4507 49.3639 11.4507C48.9246 11.4507 48.5719 11.8065 48.5719 12.2427V14.1207H46.6939C46.2577 14.1207 45.9019 14.4765 45.9019 14.9128C45.9019 15.3521 46.2577 15.7048 46.6939 15.7048H48.5719V17.5828C48.5719 18.019 48.9277 18.3748 49.3639 18.3748C49.8002 18.3748 50.156 18.019 50.156 17.5828V15.7048H52.034C52.4702 15.7048 52.826 15.3521 52.826 14.9128C52.826 14.4734 52.4702 14.1207 52.034 14.1207ZM48.9525 4.07139C49.3887 4.07139 49.7445 4.42409 49.7445 4.86342C49.7445 5.29966 49.3887 5.65546 48.9525 5.65546H46.3753V8.23267C46.3753 8.6689 46.0226 9.0247 45.5832 9.0247C45.147 9.0247 44.7912 8.6689 44.7912 8.23267V5.65546H42.214C41.7778 5.65546 41.422 5.29966 41.422 4.86342C41.422 4.42409 41.7778 4.07139 42.214 4.07139H44.7912V1.49418C44.7912 1.05795 45.147 0.702148 45.5832 0.702148C46.0226 0.702148 46.3753 1.05795 46.3753 1.49418V4.07139H48.9525ZM17.1847 23.5816L23.8552 14.2475H11.2753L17.1847 23.5816ZM26.9307 14.2475L33.6012 23.5816L39.5135 14.2475H26.9307ZM32.1037 24.2034L25.3961 14.8138L18.6854 24.2034H32.1037ZM40.9895 14.8692L35.0771 24.2034H47.6602L40.9895 14.8692ZM34.2325 25.7874L27.2032 49.6317L47.4896 25.7874H34.2325ZM25.3965 50.1797L32.5867 25.7874H18.2065L25.3965 50.1797ZM23.5866 49.6321L16.5573 25.7879H3.30017L23.5866 49.6321ZM15.7126 24.2038L9.80025 14.8697L3.12981 24.2038H15.7126Z" fill="#404040"/>
</svg>
