<svg width="65" height="43" viewBox="0 0 65 43" fill="none" xmlns="http://www.w3.org/2000/svg">
<path fill-rule="evenodd" clip-rule="evenodd" d="M24.4234 42.1121H17.2836C16.8695 42.1121 16.5352 41.7754 16.5352 41.3637V18.5653C16.5352 18.1512 16.8694 17.8169 17.2836 17.8169H24.4234C24.8375 17.8169 25.1718 18.1512 25.1718 18.5653V41.3637C25.1718 41.7778 24.8376 42.1121 24.4234 42.1121ZM18.032 40.6153H23.6749V19.3138H18.032V40.6153Z" fill="#404040"/>
<path fill-rule="evenodd" clip-rule="evenodd" d="M36.8873 42.1121H29.7474C29.3333 42.1121 28.999 41.7753 28.999 41.3637V25.9044C28.999 25.4903 29.3333 25.156 29.7474 25.156H36.8873C37.3014 25.156 37.6357 25.4928 37.6357 25.9044V41.3637C37.6357 41.7778 37.3014 42.1121 36.8873 42.1121ZM30.4959 40.6153H36.1388V26.653H30.4959V40.6153Z" fill="#404040"/>
<path fill-rule="evenodd" clip-rule="evenodd" d="M11.9635 42.1121H4.8236C4.40949 42.1121 4.0752 41.7753 4.0752 41.3637V25.9044C4.0752 25.4903 4.40948 25.156 4.8236 25.156H11.9635C12.3776 25.156 12.7119 25.4928 12.7119 25.9044V41.3637C12.7119 41.7778 12.3776 42.1121 11.9635 42.1121ZM5.57208 40.6153H11.2149V26.653H5.57208V40.6153Z" fill="#404040"/>
<path fill-rule="evenodd" clip-rule="evenodd" d="M63.9915 42.1121H1.63513C1.22102 42.1121 0.886719 41.7753 0.886719 41.3636C0.886719 40.952 1.221 40.6152 1.63513 40.6152H63.9915C64.4056 40.6152 64.7399 40.952 64.7399 41.3636C64.7399 41.7753 64.4056 42.1121 63.9915 42.1121Z" fill="#404040"/>
<path fill-rule="evenodd" clip-rule="evenodd" d="M10.0222 19.5155C9.83513 19.5155 9.64554 19.4457 9.50084 19.3035C9.20398 19.0166 9.1965 18.5426 9.48587 18.2458L17.6137 9.86378C17.9006 9.56692 18.3746 9.55944 18.6714 9.84882C18.9683 10.1357 18.9757 10.6097 18.6864 10.9065L10.5585 19.2885C10.4114 19.4407 10.2168 19.5155 10.0222 19.5155ZM35.5776 18.9093C35.388 18.9093 35.1959 18.837 35.0487 18.6923C34.7569 18.4004 34.7544 17.9265 35.0462 17.6346L44.2961 8.32978C44.588 8.0379 45.062 8.03541 45.3538 8.32728C45.6457 8.61915 45.6482 9.09313 45.3563 9.38498L36.1064 18.6898C35.9593 18.837 35.7672 18.9118 35.5751 18.9118L35.5776 18.9093ZM31.1571 18.8744C30.9625 18.8744 30.7654 18.7971 30.6182 18.6474L23.1418 10.9091C22.8549 10.6123 22.8624 10.1383 23.1593 9.85143C23.4561 9.56454 23.9301 9.57203 24.217 9.86889L31.6934 17.6046C31.9803 17.9015 31.9728 18.3754 31.6759 18.6623C31.5312 18.802 31.3441 18.8718 31.157 18.8718L31.1571 18.8744Z" fill="#404040"/>
<path fill-rule="evenodd" clip-rule="evenodd" d="M8.39401 23.5395C6.69015 23.5395 5.30566 22.1525 5.30566 20.4487C5.30566 18.7449 6.69021 17.3604 8.39401 17.3604C10.0978 17.3604 11.4824 18.7474 11.4824 20.4487C11.4824 22.1526 10.0978 23.5395 8.39401 23.5395ZM8.39401 18.8571C7.5159 18.8571 6.80242 19.5706 6.80242 20.4487C6.80242 21.3268 7.5159 22.0403 8.39401 22.0403C9.27212 22.0403 9.9856 21.3268 9.9856 20.4487C9.9856 19.5706 9.27212 18.8571 8.39401 18.8571Z" fill="#404040"/>
<path fill-rule="evenodd" clip-rule="evenodd" d="M20.9172 12.2561C18.3128 12.2561 16.1924 10.1381 16.1924 7.53123C16.1924 4.92684 18.3128 2.8064 20.9172 2.8064C23.5216 2.8064 25.642 4.92684 25.642 7.53123C25.642 10.1356 23.5241 12.2561 20.9172 12.2561ZM20.9172 4.30577C19.1385 4.30577 17.6891 5.75265 17.6891 7.53385C17.6891 9.31256 19.136 10.7619 20.9172 10.7619C22.6959 10.7619 24.1453 9.31505 24.1453 7.53385C24.1453 5.75514 22.6984 4.30577 20.9172 4.30577Z" fill="#404040"/>
<path fill-rule="evenodd" clip-rule="evenodd" d="M33.347 24.2975C31.1941 24.2975 29.4453 22.5462 29.4453 20.3933C29.4453 18.2405 31.1966 16.4917 33.347 16.4917C35.4998 16.4917 37.2511 18.2429 37.2511 20.3933C37.2511 22.5462 35.4998 24.2975 33.347 24.2975ZM33.347 17.9885C32.0198 17.9885 30.9421 19.0687 30.9421 20.3933C30.9421 21.7205 32.0223 22.8007 33.347 22.8007C34.6741 22.8007 35.7543 21.7205 35.7543 20.3933C35.7543 19.0662 34.6741 17.9885 33.347 17.9885Z" fill="#404040"/>
<path fill-rule="evenodd" clip-rule="evenodd" d="M46.2596 10.0083C46.2122 10.0083 46.1673 10.0033 46.1199 9.99583C43.4382 9.48941 41.1132 7.83796 39.7436 5.46552C39.6089 5.23352 39.6089 4.94913 39.7436 4.71711C41.4175 1.82336 44.5333 0.0246582 47.8734 0.0246582C51.2134 0.0246582 54.3267 1.82329 56.0012 4.71711C56.1359 4.94911 56.1359 5.2335 56.0012 5.46552C54.6292 7.83541 52.3066 9.48691 49.6249 9.99327C49.2182 10.0706 48.8266 9.80368 48.7492 9.39706C48.6719 8.99043 48.9388 8.59877 49.3455 8.52143C51.4534 8.12229 53.2995 6.88245 54.4744 5.0888C53.0226 2.87608 50.5329 1.51899 47.871 1.51899C45.2091 1.51899 42.7196 2.87608 41.2676 5.0888C42.4425 6.88245 44.2886 8.12478 46.3965 8.52143C46.8032 8.59876 47.0701 8.99043 46.9927 9.39457C46.9254 9.75379 46.6111 10.0033 46.2593 10.0033L46.2596 10.0083Z" fill="#404040"/>
<path fill-rule="evenodd" clip-rule="evenodd" d="M46.2603 9.87336C46.168 9.87336 46.0732 9.8559 45.9834 9.81848C44.0375 9.04012 42.7803 7.18414 42.7803 5.08867C42.7803 2.28221 45.0654 -0.00292969 47.8744 -0.00292969C50.6808 -0.00292969 52.966 2.28215 52.966 5.08867C52.966 7.18165 51.7086 9.04018 49.7653 9.81848C49.3837 9.97315 48.9471 9.78605 48.7925 9.40188C48.6378 9.0177 48.8249 8.58367 49.2091 8.42899C50.5836 7.87768 51.4692 6.56796 51.4692 5.08864C51.4692 3.10538 49.8552 1.49386 47.8744 1.49386C45.8912 1.49386 44.2797 3.10787 44.2797 5.08864C44.2797 6.56796 45.1677 7.88015 46.5398 8.42899C46.924 8.58116 47.1111 9.01773 46.9564 9.40188C46.8392 9.69375 46.5571 9.87336 46.2603 9.87336Z" fill="#404040"/>
<path fill-rule="evenodd" clip-rule="evenodd" d="M59.1649 26.5502C58.7508 26.5502 58.4165 26.2134 58.4165 25.8017V12.3758C58.4165 11.9617 58.7532 11.6274 59.1649 11.6274C59.5765 11.6274 59.9133 11.9617 59.9133 12.3758V25.8017C59.9133 26.2159 59.579 26.5502 59.1649 26.5502ZM46.3623 19.0437C45.9781 19.0437 45.6488 18.7469 45.6164 18.3577L45.5141 17.0954C45.4817 16.6838 45.786 16.3221 46.1976 16.2871C46.6017 16.2497 46.9709 16.559 47.0059 16.9707L47.1081 18.233C47.1406 18.6446 46.8362 19.0063 46.4246 19.0412C46.4047 19.0437 46.3822 19.0437 46.3623 19.0437Z" fill="#404040"/>
<path fill-rule="evenodd" clip-rule="evenodd" d="M59.165 17.8067C58.7509 17.8067 58.4166 17.4724 58.4166 17.0583V12.3758C58.4166 11.8994 58.0299 11.5102 57.551 11.5102C57.0745 11.5102 56.6853 11.8993 56.6853 12.3758V17.0583C56.6853 17.4724 56.3485 17.8067 55.9369 17.8067C55.5252 17.8067 55.1885 17.4724 55.1885 17.0583V12.3758C55.1885 11.0736 56.2487 10.0134 57.5509 10.0134C58.8531 10.0134 59.9133 11.0737 59.9133 12.3758V17.0583C59.9133 17.4724 59.5767 17.8067 59.165 17.8067Z" fill="#404040"/>
<path fill-rule="evenodd" clip-rule="evenodd" d="M55.9385 17.8067C55.5244 17.8067 55.1901 17.4724 55.1901 17.0583V12.3758C55.1901 11.8994 54.8034 11.5102 54.3244 11.5102C53.8479 11.5102 53.4587 11.8993 53.4587 12.3758V17.0583C53.4587 17.4724 53.122 17.8067 52.7103 17.8067C52.2987 17.8067 51.9619 17.4724 51.9619 17.0583V12.3758C51.9619 11.0736 53.0222 10.0134 54.3243 10.0134C55.6266 10.0134 56.6867 11.0737 56.6867 12.3758V17.0583C56.6867 17.4724 56.3501 17.8067 55.9385 17.8067Z" fill="#404040"/>
<path fill-rule="evenodd" clip-rule="evenodd" d="M52.7114 17.8067C52.2973 17.8067 51.963 17.4724 51.963 17.0583V12.3758C51.963 11.8994 51.5763 11.5102 51.0973 11.5102C50.6208 11.5102 50.2341 11.8993 50.2341 12.3758V17.0583C50.2341 17.4724 49.8974 17.8067 49.4857 17.8067C49.0741 17.8067 48.7373 17.4724 48.7373 17.0583V12.3758C48.7373 11.0736 49.7976 10.0134 51.0997 10.0134C52.402 10.0134 53.4621 11.0737 53.4621 12.3758V17.0583C53.4621 17.4724 53.1254 17.8067 52.7137 17.8067H52.7114Z" fill="#404040"/>
<path fill-rule="evenodd" clip-rule="evenodd" d="M49.4844 17.8065C49.0703 17.8065 48.736 17.4722 48.736 17.0581V6.70275C48.736 6.22627 48.3493 5.83709 47.8703 5.83709C47.3938 5.83709 47.0046 6.22625 47.0046 6.70275V17.0581C47.0046 17.4722 46.6679 17.8065 46.2562 17.8065C45.8446 17.8065 45.5078 17.4722 45.5078 17.0581V6.70275C45.5078 5.40052 46.5681 4.34033 47.8702 4.34033C49.1724 4.34033 50.2326 5.40058 50.2326 6.70275V17.0581C50.2326 17.4722 49.896 17.8065 49.4844 17.8065Z" fill="#404040"/>
<path fill-rule="evenodd" clip-rule="evenodd" d="M48.9536 31.8691C48.5395 31.8691 48.2052 31.5323 48.2052 31.1207V28.1471C45.3039 26.2262 44.2138 23.996 44.1664 23.8963L41.4971 18.7124C41.3999 18.5552 40.382 16.7715 41.0057 15.2947C41.3475 14.484 41.8963 14.2445 42.2979 14.1871C43.6899 13.9925 45.1568 15.6414 46.5538 17.3527C46.7085 17.5423 46.8332 17.697 46.9155 17.7843C47.1949 18.0887 47.175 18.5627 46.8731 18.842C46.5688 19.1214 46.0973 19.104 45.8154 18.7996C45.7206 18.6973 45.5759 18.5202 45.3963 18.3007C43.3507 15.796 42.6971 15.6314 42.51 15.6713C42.5125 15.6713 42.4551 15.7112 42.3828 15.8784C42.1209 16.4995 42.5549 17.5672 42.8044 17.9889L45.5061 23.2326C45.5261 23.2725 46.5738 25.3805 49.3478 27.1018C49.5674 27.239 49.7021 27.4785 49.7021 27.7379V31.1207C49.7021 31.5323 49.3678 31.8691 48.9536 31.8691Z" fill="#404040"/>
<path fill-rule="evenodd" clip-rule="evenodd" d="M58.1771 31.6366C57.763 31.6366 57.4287 31.2998 57.4287 30.8882V27.7399C57.4287 27.4855 57.5584 27.2485 57.773 27.1088C58.4116 26.6997 58.4166 25.8191 58.4166 25.8091C58.4141 25.3974 58.7459 25.0606 59.155 25.0557H59.1649C59.5716 25.0557 59.9033 25.3775 59.9134 25.7841C59.9158 25.8464 59.9283 27.2061 58.9255 28.1066V30.8881C58.9255 31.3022 58.5888 31.6366 58.1771 31.6366Z" fill="#404040"/>
<path fill-rule="evenodd" clip-rule="evenodd" d="M59.5461 42.112H47.5795C47.1654 42.112 46.8311 41.7752 46.8311 41.3635V36.2421C46.8311 35.8279 47.1678 35.4937 47.5795 35.4937H59.5461C59.9602 35.4937 60.2945 35.8304 60.2945 36.2421V41.3635C60.2945 41.7777 59.9602 42.112 59.5461 42.112ZM48.3279 40.6151H58.7957V36.9904H48.3279V40.6151Z" fill="#404040"/>
<path fill-rule="evenodd" clip-rule="evenodd" d="M58.1775 36.9904H48.9525C48.5384 36.9904 48.2041 36.6536 48.2041 36.242V31.1205C48.2041 30.7064 48.5409 30.3721 48.9525 30.3721H58.1775C58.5916 30.3721 58.9259 30.7088 58.9259 31.1205V36.242C58.9259 36.6536 58.5916 36.9904 58.1775 36.9904ZM49.701 35.4936H57.4297V31.8713H49.701V35.4936Z" fill="#404040"/>
</svg>
