<svg width="49" height="49" viewBox="0 0 49 49" fill="none" xmlns="http://www.w3.org/2000/svg">
<circle cx="24.4609" cy="24.539" r="24.4609" fill="#FEFDFC"/>
<path d="M39.0806 24.539L33.8025 20.5673L34.8009 13.9256L28.3308 14.9461L24.4646 9.52722L20.594 14.9461L14.1239 13.9212L15.118 20.5629L9.83984 24.5346L15.118 28.5108L14.1195 35.1524L20.5896 34.132L24.4558 39.5509L28.3264 34.132L34.7965 35.1568L33.8025 28.5152L39.0806 24.5434V24.539ZM24.4602 34.1276L22.4501 26.6019L15.118 24.539L22.4501 22.4762L24.4602 14.9505V14.9593L26.4703 22.4762L33.8025 24.539L26.4703 26.6019L24.4646 34.1188V34.1276H24.4602Z" fill="#C4A053"/>
</svg>
