<svg width="14" height="14" viewBox="0 0 14 14" fill="none" xmlns="http://www.w3.org/2000/svg">
<path fill-rule="evenodd" clip-rule="evenodd" d="M0.316218 13.7919C0.392838 13.5045 0.450302 13.2651 0.517344 13.0161C0.737625 12.2307 0.957906 11.4454 1.15903 10.6505C1.18776 10.5355 1.17819 10.3727 1.12072 10.2674C-0.880961 6.46513 1.18776 1.85839 5.38268 0.871912C9.1945 -0.0187889 12.6232 2.54796 13.2458 5.98626C13.897 9.5778 11.5505 12.9874 7.98774 13.6099C6.57028 13.8589 5.21986 13.6482 3.92691 13.0161C3.81198 12.9586 3.64916 12.9395 3.52466 12.9682C1.80072 13.3992 0.661006 13.7248 0.306641 13.7919H0.316218ZM1.82945 12.3074C2.48072 12.135 3.07452 11.9913 3.66832 11.8189C3.83114 11.771 3.96522 11.7998 4.10888 11.886C5.22944 12.5276 6.42662 12.7671 7.71 12.566C10.6598 12.0967 12.6807 9.32878 12.2305 6.38851C11.7612 3.34289 8.90717 1.29332 5.89028 1.84881C2.2317 2.51923 0.297063 6.59922 2.1072 9.81723C2.30832 10.1716 2.36579 10.4685 2.2317 10.8516C2.06889 11.3113 1.97311 11.7902 1.82945 12.3074Z" fill="white"/>
<path fill-rule="evenodd" clip-rule="evenodd" d="M8.55363 10.3055C7.27983 10.2576 5.25899 9.26158 3.87984 6.85765C3.3914 6.00526 3.45844 5.02836 4.17675 4.35794C4.41618 4.12808 4.72266 4.18555 5.00998 4.23343C5.07702 4.24301 5.15364 4.34836 5.19195 4.43456C5.37392 4.85597 5.55589 5.27737 5.71871 5.70836C5.80491 5.93821 5.65167 6.14892 5.31646 6.52244C5.21111 6.63737 5.19195 6.7523 5.26857 6.89596C5.80491 7.79624 6.54237 8.4475 7.52885 8.8306C7.67251 8.88806 7.77786 8.84975 7.87363 8.73482C8.39081 8.10271 8.44828 7.92074 8.71645 8.04525C10.0286 8.67736 10.1339 8.69652 10.1339 8.84975C10.1818 9.96074 9.16659 10.3534 8.54405 10.3055H8.55363Z" fill="white"/>
</svg>
