<svg width="45" height="52" viewBox="0 0 45 52" fill="none" xmlns="http://www.w3.org/2000/svg">
<circle cx="14.5" cy="19.5" r="5.5" fill="#E9C985"/>
<path d="M27.8819 42.9896C28.1724 42.9077 28.4714 43.0847 28.5504 43.3855C28.6294 43.6863 28.4586 43.996 28.1681 44.0779L28.1425 44.0845C27.852 44.1664 27.553 43.9894 27.474 43.6886C27.3949 43.3878 27.5658 43.0781 27.8563 42.9962L27.8819 42.9896ZM13.2282 20.1465C13.0039 20.3523 12.6622 20.3301 12.4615 20.1001C12.2607 19.8678 12.2799 19.5117 12.5042 19.3038L12.9613 18.8791C13.1855 18.6712 13.5294 18.6911 13.7301 18.9234L15.0116 20.8345L15.9812 17.1427C16.0603 16.8419 16.3614 16.6627 16.6519 16.7446C16.9424 16.8264 17.1154 17.1383 17.0363 17.4392L15.757 22.3055C15.7228 22.4294 15.6502 22.5422 15.5392 22.6218C15.2914 22.7988 14.9518 22.7346 14.781 22.478L13.2282 20.1465ZM14.6891 13.3627C15.2401 13.3627 15.7741 13.4379 16.2824 13.5795V3.36921C16.2824 3.05732 16.528 2.80294 16.8292 2.80294H40.5022V1.13513H13.9718V13.4072C14.2067 13.3784 14.4481 13.3651 14.6916 13.3651L14.6891 13.3627ZM17.3759 14.002C17.9932 14.3139 18.5527 14.7275 19.0333 15.2252C20.1438 16.3754 20.8316 17.9658 20.8316 19.7243C20.8316 21.4807 20.1439 23.0711 19.0333 24.2235C18.5527 24.7212 17.9932 25.137 17.3759 25.4467V41.165H43.9063V3.93325H17.3759V14.002ZM16.2824 25.8691C15.7741 26.0107 15.2402 26.0859 14.6891 26.0859C14.4456 26.0859 14.2064 26.0704 13.9693 26.0439V38.3646H16.2803V25.8695L16.2824 25.8691ZM12.878 25.8028C11.9105 25.4931 11.0454 24.9445 10.3471 24.2212C9.23648 23.071 8.54871 21.4806 8.54871 19.7221C8.54871 17.9658 9.23643 16.3754 10.3471 15.223C11.0454 14.4997 11.9105 13.9511 12.878 13.6414V8.60255L3.62788 11.1707L12.9315 47.1351L25.7716 43.5716C26.0621 43.492 26.3632 43.6712 26.4402 43.972C26.5171 44.2728 26.344 44.5847 26.0536 44.6644L12.6859 48.3738C12.3954 48.4535 12.0943 48.2743 12.0173 47.9735L3.28012 14.2033L1.21698 14.7762L10.5228 50.7406L36.1522 43.6289L35.8083 42.2973H16.8319C16.5308 42.2973 16.2852 42.0429 16.2852 41.7311V39.497H13.4275C13.1263 39.497 12.8807 39.2426 12.8807 38.9307V25.8025L12.878 25.8028ZM18.2601 16.0257C17.346 15.0789 16.0838 14.495 14.6913 14.495C13.2966 14.495 12.0344 15.0812 11.1224 16.0257C10.2083 16.9724 9.64447 18.2797 9.64447 19.7219C9.64447 21.1663 10.2105 22.4735 11.1224 23.418C12.0365 24.3647 13.2988 24.9487 14.6913 24.9487C16.086 24.9487 17.3482 24.3625 18.2601 23.418C19.1743 22.4713 19.7381 21.164 19.7381 19.7219C19.7381 18.2774 19.1721 16.9702 18.2601 16.0257ZM25.7119 38.4661C25.4108 38.4661 25.1652 38.2117 25.1652 37.8998C25.1652 37.588 25.4108 37.3336 25.7119 37.3336H39.8806C40.1818 37.3336 40.4274 37.588 40.4274 37.8998C40.4274 38.2117 40.1818 38.4661 39.8806 38.4661H25.7119ZM21.2888 36.2453H23.3882C23.6893 36.2453 23.935 36.4997 23.935 36.8115V38.9859C23.935 39.2978 23.6893 39.5521 23.3882 39.5521H21.2888C20.9876 39.5521 20.742 39.2978 20.742 38.9859V36.8115C20.742 36.4997 20.9876 36.2453 21.2888 36.2453ZM22.8414 37.3778H21.8355V38.4196H22.8414V37.3778ZM25.7098 33.9824C25.4086 33.9824 25.163 33.7281 25.163 33.4162C25.163 33.1043 25.4086 32.8499 25.7098 32.8499H39.8785C40.1797 32.8499 40.4253 33.1043 40.4253 33.4162C40.4253 33.7281 40.1797 33.9824 39.8785 33.9824H25.7098ZM21.2866 31.7616H23.3861C23.6872 31.7616 23.9328 32.016 23.9328 32.3279V34.5022C23.9328 34.8141 23.6872 35.0685 23.3861 35.0685H21.2866C20.9855 35.0685 20.7399 34.8141 20.7399 34.5022V32.3279C20.7399 32.016 20.9855 31.7616 21.2866 31.7616ZM22.8393 32.8941H21.8334V33.9359H22.8393V32.8941ZM21.2866 30.5849C20.9855 30.5849 20.7399 30.3305 20.7399 30.0186C20.7399 29.7067 20.9855 29.4523 21.2866 29.4523H39.994C40.2951 29.4523 40.5407 29.7067 40.5407 30.0186C40.5407 30.3305 40.2951 30.5849 39.994 30.5849H21.2866ZM21.2866 28.7069C20.9855 28.7069 20.7399 28.4525 20.7399 28.1406C20.7399 27.8288 20.9855 27.5744 21.2866 27.5744H39.994C40.2951 27.5744 40.5407 27.8288 40.5407 28.1406C40.5407 28.4525 40.2951 28.7069 39.994 28.7069H21.2866ZM31.0599 25.6942C31.3611 25.6942 31.6067 25.9486 31.6067 26.2605C31.6067 26.5724 31.3611 26.8267 31.0599 26.8267H21.2866C20.9855 26.8267 20.7399 26.5724 20.7399 26.2605C20.7399 25.9486 20.9855 25.6942 21.2866 25.6942H31.0599ZM30.6413 5.5432C33.0462 5.5432 35.2226 6.55409 36.7967 8.18431C38.3708 9.81452 39.3469 12.0707 39.3469 14.5593C39.3469 17.0499 38.3708 19.3039 36.7967 20.9343C35.2227 22.5645 33.0463 23.5754 30.6413 23.5754C28.2386 23.5754 26.0601 22.5645 24.4859 20.9343C22.9119 19.3041 21.9358 17.0501 21.9358 14.5593C21.9358 12.0709 22.9119 9.81463 24.4859 8.18431C26.06 6.55409 28.2385 5.5432 30.6413 5.5432ZM36.0235 8.985C34.646 7.5583 32.743 6.67573 30.6413 6.67573C28.5397 6.67573 26.6368 7.5583 25.2591 8.985C23.8815 10.4117 23.0294 12.3826 23.0294 14.5592C23.0294 16.373 23.621 18.0452 24.6163 19.3768C24.8576 18.1204 25.4556 16.9968 26.2971 16.123C27.1173 15.2736 28.1681 14.6631 29.3427 14.4021C28.9647 14.2318 28.623 13.9885 28.3368 13.6921C27.7473 13.0816 27.3821 12.2388 27.3821 11.3054C27.3821 10.3742 27.7473 9.52918 28.3368 8.91869C28.9263 8.3082 29.7421 7.92994 30.6413 7.92994C31.5404 7.92994 32.3563 8.30819 32.9458 8.91869C33.5352 9.5292 33.9005 10.3742 33.9005 11.3054C33.9005 12.2366 33.5352 13.0816 32.9458 13.6921C32.6574 13.9907 32.3157 14.2318 31.9398 14.4021C33.1145 14.6631 34.1674 15.2736 34.9854 16.123C35.827 16.9946 36.4271 18.1182 36.6663 19.3768C37.6594 18.0452 38.2532 16.373 38.2532 14.5592C38.2532 12.3826 37.4011 10.4118 36.0235 8.985ZM25.5946 20.4609C26.938 21.693 28.7043 22.4428 30.6415 22.4428C32.5765 22.4428 34.3449 21.693 35.6884 20.4609C35.6478 19.0806 35.0903 17.8353 34.2125 16.9239C33.2984 15.9772 32.0362 15.3933 30.6437 15.3933C29.249 15.3933 27.9868 15.9795 27.0748 16.9239C26.1949 17.8353 25.6396 19.0806 25.599 20.4609H25.5946ZM32.1705 9.71944C31.7797 9.31466 31.2372 9.06247 30.6391 9.06247C30.0411 9.06247 29.4987 9.31463 29.1078 9.71944C28.7169 10.1242 28.4734 10.6861 28.4734 11.3054C28.4734 11.9248 28.7169 12.4844 29.1078 12.8914C29.4986 13.2962 30.0411 13.5484 30.6391 13.5484C31.2372 13.5484 31.7775 13.2962 32.1705 12.8914C32.5614 12.4866 32.8049 11.9248 32.8049 11.3054C32.8049 10.6861 32.5614 10.1243 32.1705 9.71944ZM12.8759 7.43446V0.566263C12.8759 0.254376 13.1215 0 13.4227 0H41.0488C41.3499 0 41.5955 0.254376 41.5955 0.566263V2.80034H44.4532C44.7544 2.80034 45 3.05471 45 3.3666V41.7309C45 42.0428 44.7544 42.2972 44.4532 42.2972H36.9353L37.3454 43.8831C37.4223 44.184 37.2493 44.4958 36.9588 44.5755L10.2742 51.9811C9.98374 52.0607 9.68261 51.8816 9.60568 51.5807L0.0182569 14.5239C-0.0586284 14.2231 0.114366 13.9112 0.404832 13.8316L2.99554 13.1127L2.4274 10.9206C2.35052 10.6198 2.52351 10.3079 2.81398 10.2283L12.8754 7.43677L12.8759 7.43446Z" fill="black"/>
<path d="M21.3536 36.1931H23.453C23.7542 36.1931 23.9998 36.4475 23.9998 36.7594V38.9337C23.9998 39.2456 23.7542 39.5 23.453 39.5H21.3536C21.0524 39.5 20.8068 39.2456 20.8068 38.9337V36.7594C20.8068 36.4475 21.0524 36.1931 21.3536 36.1931ZM22.9063 37.3257H21.9003V38.3675H22.9063V37.3257ZM21.3514 31.7095H23.4509C23.752 31.7095 23.9977 31.9638 23.9977 32.2757V34.4501C23.9977 34.762 23.752 35.0163 23.4509 35.0163H21.3514C21.0503 35.0163 20.8047 34.762 20.8047 34.4501V32.2757C20.8047 31.9638 21.0503 31.7095 21.3514 31.7095ZM22.9041 32.842H21.8982V33.8838H22.9041V32.842Z" fill="#E9C985"/>
</svg>
