<svg width="46" height="45" viewBox="0 0 46 45" fill="none" xmlns="http://www.w3.org/2000/svg">
<path fill-rule="evenodd" clip-rule="evenodd" d="M34.3893 5.41223C34.3893 5.79165 34.0779 6.09993 33.6947 6.09993C33.3114 6.09993 33 5.79166 33 5.41223C33 3.83333 34.2934 2.55481 35.8863 2.55481C37.4812 2.55481 38.7726 3.8353 38.7726 5.41223C38.7726 7.29351 37.6169 7.46541 36.9282 8.24002C36.5151 8.73009 36.5809 9.24192 36.5809 9.8387C36.5809 10.2181 36.2695 10.5264 35.8863 10.5264C35.503 10.5264 35.1916 10.2181 35.1916 9.8387C35.1916 9.26761 35.1617 8.80124 35.3493 8.24598C35.4611 7.92783 35.6308 7.63341 35.8603 7.35477C36.5809 6.50899 37.3774 6.46948 37.3774 5.40632C37.3774 4.09021 35.7625 3.42822 34.8284 4.35899C34.5569 4.62774 34.3892 4.99726 34.3892 5.40632L34.3893 5.41223ZM35.1857 12.06C35.1857 11.6806 35.4971 11.3723 35.8804 11.3723C36.2637 11.3723 36.575 11.6806 36.575 12.0699C36.575 12.4592 36.2637 12.7576 35.8804 12.7576C35.4971 12.7576 35.1857 12.4493 35.1857 12.06Z" fill="#C4A053"/>
<path d="M11 2.00005C10.6 2.00005 10.5 2.33339 10.5 2.50005V4.5V5.5C10.5 6 11 6.5 11 7C11 7.4 11.3333 7.5 11.5 7.5L12 8H12.5H13.5H15H16.5H18.5H21.5H23H23.5L24 7.5C24 7.33333 24.1 6.9 24.5 6.5C24.9 6.1 24.6667 6 24.5 6V4.5V3.5V3L24 2.5V2H23.5H23H21.5H19.5H17.5L15.5 2.00005C14.5 2.00005 13 1.50005 12 2.00005C11 2.50005 11.5 2.00005 11 2.00005Z" fill="#C4A053"/>
<path fill-rule="evenodd" clip-rule="evenodd" d="M23.68 2.57156H11.5995C11.2822 2.63282 11.0786 2.93121 11.1284 3.23948L11.7931 7.15414C11.8391 7.43673 12.0746 7.63039 12.366 7.63039H23.0213C23.3128 7.63039 23.5483 7.43278 23.5942 7.15414L24.253 3.23948C24.253 3.20983 24.2589 3.17822 24.2589 3.13869C24.2589 2.83042 24.0094 2.57155 23.6761 2.57155L23.68 2.57156ZM10.0006 16.2086C9.61735 16.2086 9.30596 15.9004 9.30596 15.5209C9.30596 15.1415 9.61734 14.8332 10.0006 14.8332H25.0592C25.4425 14.8332 25.7538 15.1415 25.7538 15.5209C25.7538 15.9004 25.4425 16.2086 25.0592 16.2086H10.0006ZM10.0006 23.4073C9.61735 23.4073 9.30596 23.0991 9.30596 22.7196C9.30596 22.3402 9.61734 22.0319 10.0006 22.0319H25.1149C25.4981 22.0319 25.8096 22.3402 25.8096 22.7196C25.8096 23.0991 25.4982 23.4073 25.1149 23.4073H10.0006ZM10.0006 30.606C9.61735 30.606 9.30596 30.2978 9.30596 29.9183C9.30596 29.5389 9.61734 29.2306 10.0006 29.2306H28.8416C29.2249 29.2306 29.5363 29.5389 29.5363 29.9183C29.5363 30.2978 29.2249 30.606 28.8416 30.606H10.0006ZM10.0006 37.8047C9.61735 37.8047 9.30596 37.4965 9.30596 37.117C9.30596 36.7376 9.61734 36.4293 10.0006 36.4293H30.9817C31.3649 36.4293 31.6763 36.7376 31.6763 37.117C31.6763 37.4965 31.3649 37.8047 30.9817 37.8047H10.0006ZM37.8698 39.9646L40.4807 41.998L40.4248 38.7097L37.8698 39.9646ZM28.4362 22.0669L31.7178 20.4525L30.8994 18.8241C30.6898 18.4052 30.1688 18.2372 29.7496 18.4447L28.0011 19.3043C27.5779 19.5118 27.4082 20.0276 27.6178 20.4426L28.4302 22.0669L28.4362 22.0669ZM32.3406 21.6875L29.059 23.302L36.8875 38.913L40.1691 37.2986L32.3406 21.6875ZM33.9874 18.8344V21.8756L32.153 18.2178C31.6021 17.1191 30.2467 16.6705 29.1429 17.2119L27.3943 18.0715C26.2845 18.6169 25.8314 19.9587 26.3783 21.0515L33.9876 36.2219V42.4645C33.9876 43.0968 33.4606 43.6185 32.8219 43.6185L2.56109 43.6165C1.92234 43.6165 1.39539 43.0948 1.39539 42.4625V6.28382C1.39539 5.65147 1.92234 5.1298 2.56109 5.1298H10.0426L10.4199 7.38057C10.5776 8.32713 11.396 9.00891 12.3621 9.00891H23.0174C23.9835 9.00891 24.7999 8.32516 24.9596 7.38057L25.3369 5.1298H26.758V13.5067C26.758 14.4987 27.5765 15.3069 28.5765 15.3069H32.7463V18.3976C32.7463 19.0102 33.4929 19.3125 33.926 18.8876L33.9819 18.8363L33.9874 18.8344ZM44.1716 15.309H37.6042L35.3766 17.4787V24.6522L41.7242 37.3053C41.7761 37.412 41.8 37.5227 41.796 37.6333L41.8938 43.4211C41.9038 44.0021 41.2252 44.3262 40.7701 43.9724L36.1451 40.3759C36.0533 40.3008 35.9814 40.2099 35.9355 40.1072L35.3786 38.9986V42.4647C35.3786 43.8618 34.2289 45 32.8177 45L2.56097 44.998C1.14974 44.998 0 43.8598 0 42.4627V6.28402C0 4.88692 1.14974 3.74869 2.56097 3.74869H9.80692C9.77099 3.54712 9.73107 3.33964 9.73107 3.13612C9.73107 2.05914 10.6193 1.18766 11.7032 1.18766H23.6815C24.7654 1.18766 25.6497 2.05717 25.6537 3.13612C25.6537 3.33768 25.6137 3.54517 25.5778 3.74869H26.7675V1.80023C26.7675 0.808248 27.5859 0 28.5859 0H44.1816C45.1836 0 46 0.810221 46 1.80023V13.5069C46 14.4988 45.1816 15.3071 44.1816 15.3071L44.1716 15.309ZM37.3232 13.9277H44.1695C44.3991 13.9277 44.5927 13.736 44.5927 13.5087L44.5947 1.80008C44.5947 1.57283 44.4011 1.38115 44.1715 1.38115H28.5758C28.3463 1.38115 28.1527 1.57283 28.1527 1.80008V13.5067C28.1527 13.734 28.3463 13.9256 28.5758 13.9256H33.4403C33.8395 13.9256 34.1549 14.2438 34.1349 14.6746V16.7535L36.8336 14.1233C36.9674 13.9909 37.145 13.9257 37.3187 13.9257L37.3232 13.9277Z" fill="black"/>
<path fill-rule="evenodd" clip-rule="evenodd" d="M6.9193 13.8502C7.18078 13.5716 7.62391 13.5617 7.90138 13.8206C8.18283 14.0794 8.19281 14.5181 7.93132 14.7928L5.65181 17.1898C5.37635 17.4783 4.91526 17.4783 4.63978 17.1898L3.5 15.9903C3.23851 15.7117 3.25049 15.2769 3.52994 15.0181C3.81139 14.7592 4.25055 14.7711 4.51203 15.0477L5.1448 15.7156L6.91735 13.8482L6.9193 13.8502ZM6.9193 21.0489C7.18078 20.7703 7.62391 20.7604 7.90138 21.0193C8.18283 21.2781 8.19281 21.7168 7.93132 21.9915L5.65181 24.3885C5.37635 24.6771 4.91526 24.6771 4.63978 24.3885L3.5 23.189C3.23851 22.9104 3.25049 22.4757 3.52994 22.2168C3.81139 21.9579 4.25055 21.9698 4.51203 22.2464L5.1448 22.9143L6.91735 21.0469L6.9193 21.0489ZM6.9193 28.2441C7.18078 27.9654 7.62391 27.9556 7.90138 28.2144C8.18283 28.4733 8.19281 28.912 7.93132 29.1867L5.65181 31.5837C5.37635 31.8722 4.91526 31.8722 4.63978 31.5837L3.5 30.3842C3.23851 30.1056 3.25049 29.6708 3.52994 29.412C3.81139 29.1531 4.25055 29.1649 4.51203 29.4416L5.1448 30.1095L6.91735 28.2421L6.9193 28.2441ZM6.9193 35.4413C7.18078 35.1626 7.62391 35.1528 7.90138 35.4116C8.18283 35.6705 8.19281 36.1092 7.93132 36.3839L5.65181 38.7809C5.37635 39.0694 4.91526 39.0694 4.63978 38.7809L3.5 37.5814C3.23851 37.3028 3.25049 36.868 3.52994 36.6091C3.81139 36.3503 4.25055 36.3621 4.51203 36.6388L5.1448 37.3067L6.91735 35.4393L6.9193 35.4413Z" fill="#C4A053"/>
</svg>
