<svg width="40" height="44" viewBox="0 0 40 44" fill="none" xmlns="http://www.w3.org/2000/svg">
<path d="M20 1L14.5 5.5L15 6H25L26 5.5L20 1Z" fill="#C4A053"/>
<circle cx="20" cy="17" r="3" fill="#C4A053"/>
<path d="M39.9979 17.2552C39.9979 17.0482 39.9075 16.8511 39.7505 16.7164L35.7792 13.3101V7.495C35.7792 6.37691 34.87 5.46735 33.7523 5.46735H26.6831C26.6764 5.46111 26.6717 5.45383 26.6644 5.44811L20.4583 0.168626C20.1921 -0.0570728 19.8017 -0.0560327 19.5365 0.170706L13.3626 5.46735H6.04395C4.92624 5.46735 4.017 6.37691 4.017 7.495V13.4833L0.247456 16.7169C0.0904565 16.8516 0 17.0487 0 17.2557C0 17.2635 0.00207952 17.2713 0.00259939 17.2791V42.1476C0.00259939 43.169 0.833344 44 1.85384 44H38.1488C39.1698 44 40 43.169 40 42.1476V17.2552H39.9979ZM14.5048 30.0228L1.42131 41.2453V18.8008L14.5048 30.0228ZM15.5944 30.9578L19.5371 34.3397C19.6696 34.4536 19.8344 34.5108 19.9987 34.5108C20.163 34.5108 20.3278 34.4536 20.4603 34.3397L24.403 30.9578L37.9522 42.5798H2.04515L15.5944 30.9578ZM25.4932 30.0233L38.5818 18.7966V41.25L25.4932 30.0233ZM38.1987 17.2552L35.7787 19.3307V15.1797L38.1987 17.2552ZM20.0008 1.64295L24.4966 5.46735H15.5424L20.0008 1.64295ZM6.04395 6.88655H33.7523C34.0876 6.88655 34.3605 7.15958 34.3605 7.495V13.4989C34.3454 13.5816 34.3459 13.6653 34.3605 13.748V20.5481L19.9987 32.8659L5.43571 20.3744V7.495C5.43623 7.15906 5.70864 6.88655 6.04395 6.88655ZM4.01752 15.3529V19.158L1.79925 17.2557L4.01752 15.3529ZM19.8984 25.6191C21.3535 25.6191 22.7862 25.2394 24.0422 24.5212C24.3822 24.3267 24.5002 23.893 24.3058 23.5529C24.1108 23.2128 23.6778 23.0942 23.3378 23.2893C22.296 23.8852 21.1065 24.2004 19.8984 24.2004C16.0701 24.2004 12.9561 21.0848 12.9561 17.2557C12.9561 13.4266 16.0706 10.311 19.8984 10.311C23.7261 10.311 26.8401 13.4266 26.8401 17.2557C26.8401 19.6775 25.7432 20.5959 25.006 20.6225C24.4456 20.6474 24.0318 20.1966 23.9725 19.4831V17.3769C23.9736 17.3363 23.9788 17.2968 23.9788 17.2557C23.9788 17.2146 23.9736 17.1751 23.9725 17.1345V13.8915C23.9725 13.4994 23.6549 13.1817 23.2629 13.1817C22.871 13.1817 22.5533 13.4994 22.5533 13.8915V14.163C21.839 13.5483 20.9121 13.1739 19.8978 13.1739C17.6479 13.1739 15.8174 15.005 15.8174 17.2557C15.8174 19.5065 17.6479 21.3375 19.8978 21.3375C20.9729 21.3375 21.9492 20.9163 22.6786 20.2345C23.0087 21.35 23.9325 22.0817 25.0565 22.0412C26.5989 21.9855 28.2583 20.4649 28.2583 17.2562C28.2583 12.6445 24.508 8.89236 19.8973 8.89236C15.2866 8.89236 11.5369 12.6434 11.5369 17.2552C11.5369 21.8669 15.2877 25.6191 19.8984 25.6191ZM19.8984 19.9178C18.4303 19.9178 17.2367 18.7233 17.2367 17.2552C17.2367 15.7871 18.4308 14.5926 19.8984 14.5926C21.3249 14.5926 22.4899 15.7221 22.5538 17.134V17.3764C22.4899 18.7883 21.3254 19.9178 19.8984 19.9178Z" fill="black"/>
</svg>
