<svg width="51" height="52" viewBox="0 0 51 52" fill="none" xmlns="http://www.w3.org/2000/svg">
<path d="M30.88 21.5034C30.88 21.9096 30.5563 22.2397 30.1579 22.2397H4.72217C4.32375 22.2397 4.00003 21.9096 4.00003 21.5034C4.00003 21.0971 4.32374 20.767 4.72217 20.767H30.1579C30.5563 20.767 30.88 21.0971 30.88 21.5034ZM34.1534 28.41C37.223 28.41 39.7199 30.9561 39.7199 34.0861C39.7199 37.2162 37.223 39.7622 34.1534 39.7622C31.0837 39.7622 28.5868 37.2162 28.5868 34.0861C28.5868 30.9561 31.0837 28.41 34.1534 28.41ZM34.1534 29.8827C31.8805 29.8827 30.0333 31.7686 30.0333 34.0838C30.0333 36.4014 31.8828 38.2849 34.1534 38.2849C36.4262 38.2849 38.2734 36.3991 38.2734 34.0838C38.2734 31.7686 36.4262 29.8827 34.1534 29.8827ZM51 11.2321C51 11.6384 50.6763 11.9685 50.2779 11.9685H40.7088V21.7257C40.7088 22.132 40.3851 22.4621 39.9867 22.4621C38.144 22.4621 36.4054 21.9958 34.8774 21.1764V25.2297C35.1378 25.3659 35.3619 25.5529 35.5588 25.7214C35.7014 25.8437 35.9188 26.0261 36.0093 26.0468C36.1021 26.0699 36.376 25.9984 36.5549 25.9522C36.994 25.8391 37.5396 25.6983 38.0557 25.9568C38.5741 26.2177 38.7982 26.7439 38.977 27.1687C39.0427 27.3233 39.1536 27.5842 39.2192 27.6442C39.2872 27.6973 39.5611 27.7481 39.7241 27.7804C40.1655 27.8658 40.7178 27.9697 41.0778 28.4267C41.4377 28.8838 41.4196 29.4539 41.406 29.9132C41.4015 30.0864 41.3924 30.3749 41.4286 30.4557C41.4694 30.5365 41.6958 30.7073 41.8316 30.8089C42.2006 31.0858 42.6579 31.4321 42.7937 32.0138C42.925 32.5863 42.6737 33.1056 42.47 33.5234C42.3772 33.7127 42.2527 33.9712 42.2527 34.0866C42.2527 34.2021 42.3794 34.4606 42.47 34.6499C42.6737 35.0677 42.925 35.587 42.7937 36.1595C42.6601 36.7412 42.2006 37.0874 41.8316 37.3644C41.6958 37.466 41.4671 37.6391 41.4264 37.7176C41.3902 37.7984 41.3969 38.0869 41.4037 38.26C41.4173 38.7194 41.4354 39.2896 41.0755 39.7466C40.7156 40.2036 40.1655 40.3075 39.7218 40.3929C39.5588 40.4252 39.2849 40.476 39.2147 40.5291C39.1491 40.5868 39.0404 40.8476 38.9748 41.0023C38.8593 41.277 38.7235 41.5932 38.5039 41.8541V50.381C38.5039 51.055 38.1055 51.6483 37.4875 51.8907C36.8695 52.1331 36.1836 51.9645 35.7421 51.4636L34.2549 49.7809C34.1892 49.707 34.1123 49.707 34.0466 49.7809L32.5593 51.4636C32.2514 51.8122 31.8259 51.9991 31.3867 51.9991C31.1966 51.9991 31.0019 51.9645 30.814 51.8907C30.196 51.6483 29.7976 51.0573 29.7976 50.381V49.5408H2.68706C1.20656 49.5408 0 48.3128 0 46.8009L0.00226347 8.18543C0.00226347 7.98923 0.0792297 7.80225 0.215058 7.66376L7.5199 0.21698C7.65573 0.0784803 7.83909 0 8.03151 0H32.1905C33.2092 0 34.1079 0.593225 34.563 1.46347C36.1657 0.535551 38.0152 0 39.9869 0C46.0585 0.00230813 51 5.03885 51 11.2321ZM43.1968 2.05216C43.9325 3.10938 44.5279 4.52664 44.9285 6.19091C46.563 6.60178 47.9552 7.21119 48.992 7.96137C48.0299 5.21223 45.8929 3.03552 43.1968 2.05216ZM45.2455 7.80903C45.3745 8.66078 45.456 9.56099 45.4854 10.4959H49.3745C48.8856 9.46408 47.4006 8.45768 45.2455 7.80903ZM39.2625 20.8069V16.8413C38.3457 16.8113 37.4651 16.7305 36.6275 16.5966C37.2659 18.7941 38.2529 20.306 39.2625 20.8069ZM35.0406 16.2734C33.4107 15.8649 32.0208 15.2555 30.9817 14.5076C31.9461 17.2544 34.0808 19.4357 36.7747 20.4168C36.0412 19.3596 35.4436 17.94 35.0406 16.2734ZM34.7237 14.6553C34.5607 13.5797 34.4724 12.4301 34.4724 11.2321C34.4724 10.0341 34.5607 8.88456 34.7237 7.80891C32.0547 8.61451 30.4158 9.96713 30.4158 11.2321C30.418 12.4947 32.0547 13.8497 34.7237 14.6553ZM35.0406 6.19097C35.4436 4.52209 36.0435 3.10016 36.7814 2.0407C34.0785 3.02405 31.9347 5.20998 30.9706 7.96586C32.0097 7.21108 33.4039 6.60184 35.0406 6.19097ZM36.6275 5.86781C37.6824 5.70162 38.8097 5.6116 39.9847 5.6116C41.1595 5.6116 42.2869 5.70162 43.3418 5.86781C42.5518 3.14633 41.2252 1.47515 39.9847 1.47515C38.7464 1.47515 37.4176 3.14633 36.6275 5.86781ZM2.47004 7.449H6.06486C6.74852 7.449 7.30538 6.88116 7.30538 6.18407V2.51854L2.47004 7.449ZM37.0604 50.3829V42.3316C36.8838 42.3039 36.7118 42.2601 36.5556 42.2208C36.3745 42.1746 36.1006 42.1031 36.01 42.1262C35.9195 42.1469 35.7022 42.3316 35.5595 42.4516C35.1996 42.7563 34.7514 43.1349 34.1537 43.1349C33.5561 43.1349 33.1079 42.7563 32.7502 42.4516C32.6076 42.3293 32.3903 42.1469 32.2975 42.1262C32.2069 42.1031 31.933 42.1746 31.7519 42.2208C31.5957 42.2601 31.4259 42.3039 31.2471 42.3316V50.3829C31.2471 50.4475 31.2765 50.4914 31.3376 50.5168C31.3965 50.5399 31.4486 50.5283 31.4916 50.4799L32.9789 48.7971C33.2845 48.4531 33.701 48.2616 34.156 48.2616C34.611 48.2616 35.0298 48.4508 35.3331 48.7971L36.8204 50.4799C36.8634 50.5283 36.9132 50.5422 36.9743 50.5168C37.0309 50.4914 37.0604 50.4475 37.0604 50.3829ZM34.6359 26.8548C34.4911 26.7325 34.2511 26.5294 34.1538 26.5109C34.0564 26.5294 33.8165 26.7325 33.6716 26.8548C33.3796 27.1018 33.0491 27.3811 32.628 27.4827C32.1956 27.5865 31.7723 27.4781 31.3988 27.3834C31.2335 27.3419 30.9551 27.2703 30.869 27.2888C30.8351 27.3303 30.7242 27.5958 30.6562 27.7527C30.5068 28.1082 30.3348 28.5122 29.993 28.7938C29.6625 29.0638 29.2618 29.1492 28.8996 29.2185C28.8951 29.2185 28.8928 29.2208 28.8883 29.2208C28.8747 29.2231 28.8611 29.2254 28.8498 29.2277C28.6981 29.2577 28.4537 29.3039 28.3608 29.3524C28.3337 29.4539 28.3405 29.7102 28.3473 29.8671C28.3586 30.2572 28.3722 30.6981 28.1775 31.1044C27.9851 31.5037 27.6387 31.7646 27.3354 31.9954C27.195 32.1016 26.9573 32.2793 26.9188 32.3647C26.9211 32.4339 27.0547 32.7086 27.1339 32.8725C27.3059 33.228 27.5029 33.6296 27.5029 34.0913C27.5029 34.5506 27.3082 34.9546 27.1339 35.3101C27.0547 35.474 26.9211 35.7486 26.9234 35.841C26.9573 35.8987 27.1928 36.0764 27.3331 36.1849C27.6387 36.4134 27.9828 36.6743 28.1752 37.0759C28.3699 37.4822 28.3563 37.923 28.345 38.3132C28.3405 38.4701 28.3337 38.724 28.3586 38.8279C28.4514 38.8764 28.6959 38.9226 28.8475 38.9526C29.2233 39.0241 29.6466 39.1049 29.9908 39.3888C30.3349 39.6704 30.5046 40.072 30.654 40.4298C30.7219 40.5891 30.8329 40.8546 30.9008 40.9123C30.9596 40.9123 31.2313 40.843 31.3965 40.8015C31.6614 40.7322 31.9511 40.6584 32.2522 40.6584C32.3745 40.6584 32.499 40.6699 32.6235 40.6999C33.0468 40.8015 33.3773 41.0808 33.6694 41.3278C33.8165 41.4524 34.061 41.6579 34.1538 41.6717C34.2421 41.6579 34.4866 41.4524 34.6315 41.3278C34.9235 41.0808 35.254 40.8015 35.6751 40.6999C36.1097 40.5961 36.5308 40.7045 36.9043 40.7992C37.0695 40.8407 37.3457 40.9146 37.434 40.8938C37.4679 40.8523 37.5789 40.5891 37.6468 40.4299C37.7962 40.0744 37.9682 39.6704 38.3123 39.3888C38.6564 39.1073 39.082 39.0264 39.4555 38.9526C39.6072 38.9226 39.8517 38.8764 39.9445 38.8279C39.9717 38.7263 39.9649 38.4701 39.9581 38.3132C39.9468 37.9231 39.9332 37.4822 40.1279 37.0759C40.3203 36.6766 40.6666 36.4157 40.97 36.1849C41.1103 36.0787 41.348 35.901 41.3865 35.8156C41.3842 35.7463 41.2507 35.474 41.1714 35.3101C40.9994 34.9546 40.8024 34.553 40.8024 34.0913C40.8024 33.632 40.9971 33.228 41.1714 32.8725C41.2507 32.7086 41.3842 32.4339 41.382 32.3416C41.348 32.2839 41.1126 32.1062 40.9722 31.9977C40.6666 31.7692 40.3225 31.5083 40.1301 31.1067C39.9354 30.7004 39.949 30.2596 39.9603 29.8694C39.9649 29.7125 39.9717 29.4562 39.9468 29.3547C39.8539 29.3062 39.6095 29.26 39.4578 29.23C39.082 29.1585 38.6587 29.0777 38.3146 28.7938C37.9705 28.5122 37.8007 28.1082 37.6513 27.7527C37.5834 27.5935 37.4725 27.3303 37.4046 27.2726C37.3502 27.2726 37.0741 27.3419 36.9088 27.3834C36.5353 27.4781 36.1142 27.5865 35.6796 27.4827C35.2585 27.3788 34.928 27.0995 34.6359 26.8548ZM33.4316 20.2507C31.7655 18.9881 30.4593 17.2546 29.7032 15.2487H4.72304C4.32462 15.2487 4.0009 14.9186 4.0009 14.5123C4.0009 14.1061 4.32461 13.776 4.72304 13.776H29.2622C29.0766 12.9589 28.9747 12.1071 28.9747 11.2322C28.9747 7.58284 30.6906 4.33739 33.3438 2.28276C33.1604 1.80956 32.7122 1.47485 32.1915 1.47485H8.75517V6.18378C8.75517 7.6934 7.55087 8.9237 6.06811 8.9237H1.45003V46.8029C1.45003 47.5 2.00692 48.0678 2.69055 48.0678H29.8011V43.2158L4.72351 43.2181C4.32509 43.2181 4.00137 42.888 4.00137 42.4818C4.00137 42.0755 4.32508 41.7454 4.72351 41.7454H29.7176C29.5456 41.5077 29.4301 41.2399 29.3305 41.0045C29.2649 40.8498 29.1539 40.589 29.0883 40.5313C29.0181 40.4782 28.7465 40.4274 28.5835 40.3951C28.142 40.3097 27.5897 40.2058 27.2298 39.7487C26.8698 39.2917 26.888 38.7215 26.9015 38.2622C26.9061 38.0891 26.9151 37.8006 26.8789 37.7198C26.8381 37.639 26.6118 37.4682 26.4759 37.3666C26.1228 37.1011 25.6881 36.7688 25.5365 36.2286L4.72362 36.2263C4.3252 36.2263 4.00148 35.8962 4.00148 35.4899C4.00148 35.0837 4.32519 34.7536 4.72362 34.7536H25.7903C25.8062 34.719 25.8243 34.6844 25.8401 34.652C25.9329 34.4628 26.0574 34.2042 26.0574 34.0888C26.0574 33.9734 25.9307 33.7149 25.8401 33.5256C25.6364 33.1078 25.3851 32.5885 25.5164 32.016C25.65 31.4343 26.1095 31.0881 26.4785 30.811C26.6144 30.7095 26.843 30.5387 26.8815 30.4579C26.9177 30.3771 26.9109 30.0885 26.9041 29.9154C26.8973 29.7054 26.8928 29.4722 26.92 29.2368H4.72377C4.32535 29.2368 4.00163 28.9067 4.00163 28.5005C4.00163 28.0942 4.32534 27.7641 4.72377 27.7641H28.6811C28.8396 27.7318 29.032 27.6902 29.0909 27.6464C29.1565 27.5887 29.2652 27.3278 29.3308 27.1732C29.5096 26.7485 29.7315 26.2199 30.2521 25.9613C30.7683 25.7028 31.3138 25.8436 31.753 25.9567C31.9341 26.0029 32.2057 26.0744 32.2985 26.0514C32.3891 26.0306 32.6064 25.8459 32.7513 25.7259C32.9482 25.5597 33.1723 25.3727 33.4327 25.2342L33.4316 20.2507ZM44.0351 10.4958C43.9989 9.39703 43.888 8.36983 43.7114 7.43269C42.5863 7.21341 41.3367 7.08644 39.983 7.08644C38.6315 7.08644 37.3797 7.21571 36.2546 7.43269C36.0395 8.5799 35.915 9.8541 35.915 11.2344C35.915 12.6125 36.0418 13.889 36.2546 15.0362C37.1759 15.2139 38.1833 15.3293 39.2586 15.3663L39.2631 11.2321C39.2631 10.8259 39.5868 10.4958 39.9853 10.4958L44.0351 10.4958ZM44.6259 16.1903C44.9089 16.4788 45.3661 16.4788 45.6469 16.1903C45.9298 15.9018 45.9298 15.4355 45.6469 15.1493L44.0939 13.5658C43.9581 13.4273 43.7747 13.3488 43.5823 13.3488C43.3899 13.3488 43.2065 13.4273 43.0707 13.5658L41.5178 15.1493C41.2348 15.4378 41.2348 15.9041 41.5178 16.1903C41.6581 16.3334 41.8438 16.4073 42.0294 16.4073C42.215 16.4073 42.3984 16.3357 42.541 16.1903L42.8602 15.8648V17.82C42.8602 18.2262 43.1839 18.5563 43.5823 18.5563C43.9807 18.5563 44.3045 18.2262 44.3045 17.82V15.8648L44.6259 16.1903ZM47.7228 18.8702L47.4036 19.1957V17.2406C47.4036 16.8343 47.0799 16.5042 46.6814 16.5042C46.283 16.5042 45.9593 16.8343 45.9593 17.2406V19.1957L45.6401 18.8702C45.3571 18.5817 44.8999 18.5817 44.6192 18.8702C44.3362 19.1588 44.3362 19.625 44.6192 19.9113L46.1721 21.4948C46.3125 21.6379 46.4981 21.7117 46.6837 21.7117C46.8693 21.7117 47.0527 21.6402 47.1953 21.4948L48.7483 19.9113C49.0312 19.6227 49.0312 19.1565 48.7483 18.8702C48.4608 18.584 48.0034 18.584 47.7228 18.8702Z" fill="black"/>
<path d="M34.12 29.8827C31.8472 29.8827 30 31.7686 30 34.0838C30 36.4014 31.8495 38.2849 34.12 38.2849C36.3929 38.2849 38.2401 36.3991 38.2401 34.0838C38.2401 31.7686 36.3929 29.8827 34.12 29.8827ZM44.5926 16.1903C44.8756 16.4788 45.3328 16.4788 45.6135 16.1903C45.8965 15.9018 45.8965 15.4355 45.6135 15.1493L44.0606 13.5658C43.9248 13.4273 43.7414 13.3488 43.549 13.3488C43.3566 13.3488 43.1732 13.4273 43.0374 13.5658L41.4844 15.1493C41.2015 15.4378 41.2015 15.9041 41.4844 16.1903C41.6248 16.3334 41.8104 16.4073 41.9961 16.4073C42.1817 16.4073 42.365 16.3357 42.5077 16.1903L42.8268 15.8648V17.82C42.8268 18.2262 43.1506 18.5563 43.549 18.5563C43.9474 18.5563 44.2711 18.2262 44.2711 17.82V15.8648L44.5926 16.1903ZM47.6894 18.8703L47.3702 19.1957V17.2406C47.3702 16.8343 47.0465 16.5043 46.6481 16.5043C46.2497 16.5043 45.926 16.8343 45.926 17.2406V19.1957L45.6068 18.8703C45.3238 18.5817 44.8666 18.5817 44.5858 18.8703C44.3029 19.1588 44.3029 19.625 44.5858 19.9113L46.1388 21.4948C46.2791 21.6379 46.4648 21.7117 46.6504 21.7117C46.836 21.7117 47.0194 21.6402 47.162 21.4948L48.7149 19.9113C48.9979 19.6227 48.9979 19.1565 48.7149 18.8703C48.4274 18.584 47.9701 18.584 47.6894 18.8703Z" fill="#C4A053"/>
</svg>
