<svg width="38" height="52" viewBox="0 0 38 52" fill="none" xmlns="http://www.w3.org/2000/svg">
<ellipse cx="19.5" cy="25" rx="5.5" ry="10" fill="#C4A053"/>
<path d="M32.8965 0.123338C32.5627 0.130967 32.2215 0.181839 31.8809 0.277877L5.59182 7.69264C5.31552 7.77058 5.05065 7.87324 4.79704 7.99698H4.40439C1.98168 7.99698 0 9.97778 0 12.4014V47.3936C3.05171e-06 49.8172 1.98168 51.798 4.40439 51.798H33.573C35.9957 51.798 37.9727 49.8172 37.9727 47.3936V12.4014C37.9727 10.9568 37.2709 9.66859 36.1907 8.8643V3.42544C36.1907 2.30786 35.7108 1.29868 34.8913 0.708382C34.3279 0.302556 33.6307 0.106279 32.8965 0.123338ZM32.9343 1.96993C33.3028 1.95894 33.5914 2.06112 33.8064 2.21596C34.119 2.44118 34.3362 2.80392 34.3362 3.42547V8.06482C34.0881 8.021 33.8333 7.99701 33.573 7.99701H11.3366L32.3824 2.06142C32.5841 2.00454 32.7668 1.97493 32.9343 1.96993ZM4.40438 9.84989H4.99574C5.00418 9.85 5.01262 9.85 5.02106 9.84989H33.5731C34.0047 9.84989 34.4079 9.95441 34.7605 10.1369C34.7925 10.1573 34.8257 10.1758 34.8599 10.1921C35.6179 10.6291 36.1183 11.4451 36.1183 12.4014V47.3936C36.1183 48.8237 35.0005 49.9436 33.5731 49.9436H4.4045C2.97716 49.9436 1.85459 48.8237 1.85459 47.3936V12.4014C1.85459 10.9713 2.97704 9.84989 4.40438 9.84989ZM18.9895 13.3854C12.6541 13.3854 7.49833 18.5411 7.49833 24.8813C7.49833 31.2214 12.6541 36.3787 18.9895 36.3787C25.3249 36.3787 30.4743 31.2214 30.4743 24.8813C30.4743 18.5411 25.3249 13.3854 18.9895 13.3854ZM18.9895 15.0002C19.9948 15.0002 21.0963 15.8875 21.9746 17.6762C22.7686 19.2931 23.315 21.5509 23.4128 24.0707H14.5599C14.6576 21.5509 15.2041 19.2931 15.998 17.6762C16.8764 15.8875 17.9841 15.0002 18.9895 15.0002ZM22.7 15.7193C26.0785 17.0876 28.5199 20.2712 28.8264 24.0707H25.0307C24.9346 21.3335 24.3543 18.8615 23.4238 16.9666C23.2051 16.5212 22.9631 16.1025 22.7 15.7193ZM15.2711 15.7223C15.0083 16.1048 14.767 16.5222 14.5488 16.9665C13.6184 18.8614 13.0381 21.3334 12.9419 24.0706H9.14781C9.45448 20.2738 11.8948 17.0923 15.2711 15.7223ZM9.14623 25.687H12.9419C13.0374 28.4267 13.6176 30.9011 14.5488 32.7974C14.7668 33.2412 15.0086 33.6578 15.2711 34.04C11.8935 32.6693 9.45111 29.4859 9.14623 25.687ZM14.5599 25.687H23.4128C23.3156 28.2091 22.7692 30.4697 21.9746 32.0878C21.0963 33.8765 19.9948 34.7638 18.9895 34.7638C17.9841 34.7638 16.8764 33.8765 15.998 32.0878C15.2035 30.4697 14.657 28.2091 14.5599 25.687ZM25.0307 25.687H28.828C28.5233 29.4887 26.0798 32.6741 22.7 34.0432C22.9628 33.6602 23.2053 33.2424 23.4238 32.7974C24.355 30.9011 24.9353 28.4267 25.0307 25.687ZM9.94258 41.2845C9.72927 41.2849 9.52479 41.3697 9.3738 41.5204C9.22282 41.6711 9.1376 41.8754 9.13677 42.0887C9.13636 42.1949 9.15688 42.3001 9.19717 42.3983C9.23746 42.4965 9.29673 42.5858 9.37158 42.6611C9.44642 42.7364 9.53538 42.7962 9.63336 42.837C9.73135 42.8779 9.83642 42.899 9.94258 42.8992H28.0301C28.1367 42.8999 28.2425 42.8793 28.3412 42.8388C28.4399 42.7984 28.5296 42.7387 28.6052 42.6633C28.6807 42.588 28.7405 42.4984 28.7812 42.3997C28.8219 42.3011 28.8426 42.1954 28.8422 42.0887C28.8418 41.9825 28.8204 41.8775 28.7794 41.7796C28.7383 41.6817 28.6784 41.5928 28.6029 41.5181C28.5275 41.4434 28.4381 41.3844 28.3398 41.3443C28.2415 41.3042 28.1362 41.2838 28.0301 41.2845H9.94258Z" fill="black"/>
</svg>
