<svg width="59" height="50" viewBox="0 0 59 50" fill="none" xmlns="http://www.w3.org/2000/svg">
<path d="M30.3267 18.2049L42.8263 19.7501H42.9533C43.4825 19.7501 43.9376 19.3585 44.0011 18.8188C44.0752 18.2366 43.6624 17.7075 43.0803 17.6439L30.5807 16.0987C30.0092 16.0246 29.4694 16.4374 29.3953 17.0195C29.3212 17.6016 29.734 18.1308 30.3161 18.1943L30.3267 18.2049Z" fill="black"/>
<path d="M29.7759 22.6823L42.2755 24.2276H42.4025C42.9317 24.2276 43.3868 23.8359 43.4503 23.2962C43.5244 22.714 43.1116 22.1849 42.5295 22.1213L30.0299 20.5761C29.4478 20.4914 28.9186 20.9148 28.8445 21.4969C28.7704 22.0791 29.1832 22.6082 29.7654 22.6718L29.7759 22.6823Z" fill="black"/>
<path d="M29.2251 27.1699L41.7247 28.7151H41.8517C42.3809 28.7151 42.836 28.3235 42.8995 27.7837C42.9736 27.2016 42.5609 26.6724 41.9787 26.6089L29.4792 25.0637C28.9076 24.9896 28.3679 25.4023 28.2938 25.9845C28.2197 26.5666 28.6324 27.0958 29.2146 27.1593L29.2251 27.1699Z" fill="black"/>
<path d="M57.6604 5.75883C56.1787 2.66832 52.9929 0.667969 49.5428 0.667969C48.9289 0.667969 48.3785 0.720888 47.9235 0.826731C43.637 1.57821 40.5252 5.30376 40.5252 9.68541C40.5252 10.0453 40.5569 10.3946 40.5993 10.7438L26.47 9.00804C25.8984 8.92337 25.3587 9.34673 25.2951 9.92886L25.2422 10.3946H20.7546C20.1725 10.3946 19.6962 10.8708 19.6962 11.453C19.6962 12.0351 20.1725 12.5113 20.7546 12.5113H24.9776L24.713 14.6387H11.3769C10.7948 14.6387 10.3185 15.115 10.3185 15.6971C10.3185 16.2792 10.7948 16.7555 11.3769 16.7555H24.4482L24.1201 19.4332L19.7807 21.0208H11.3772C10.7951 21.0208 10.3188 21.4971 10.3188 22.0792C10.3188 22.6614 10.7951 23.1376 11.3772 23.1376H17.2407L17.0502 24.6829H2.95267C2.37055 24.6829 1.89427 25.1591 1.89427 25.7413C1.89427 26.3234 2.37055 26.7996 2.95267 26.7996H16.7968L16.3417 30.4723H11.6742C11.0921 30.4723 10.6158 30.9486 10.6158 31.5307C10.6158 32.1128 11.0921 32.5891 11.6742 32.5891H16.0877L15.5691 36.8332H1.0584C0.476274 36.8332 0 37.3095 0 37.8916C0 38.4738 0.476274 38.95 1.0584 38.95H15.2941L14.7331 43.4482H5.74709C5.16497 43.4482 4.68869 43.9245 4.68869 44.5066C4.68869 45.0887 5.16497 45.565 5.74709 45.565H15.611L50.5065 49.8727H50.6336C50.75 49.8727 50.8664 49.8515 50.9722 49.8197C51.004 49.8092 51.0357 49.788 51.0675 49.7668C51.1416 49.7351 51.2157 49.7033 51.2792 49.6504C51.3533 49.5975 51.3956 49.5234 51.4485 49.4599C51.5649 49.3117 51.6496 49.1424 51.6814 48.9519L54.3803 27.1066V26.9161V26.842C54.3591 26.715 54.3274 26.5985 54.2639 26.4927V26.461C54.2639 26.4398 54.2427 26.4398 54.2321 26.4186C54.1792 26.334 54.1157 26.2599 54.031 26.1858L53.9675 26.1223C53.9569 26.1223 53.9463 26.1011 53.9358 26.0905L48.5485 22.4391L49.0142 18.6712C49.1942 18.6818 49.3741 18.6924 49.554 18.6924C53.3854 18.6924 56.8039 16.258 58.0632 12.6489C58.4019 11.7069 58.5712 10.7015 58.5712 9.67483C58.5712 8.27775 58.2643 6.95477 57.661 5.74816L57.6604 5.75883ZM41.1705 12.9451C42.1547 15.5064 44.3033 17.5068 46.9176 18.3005L45.4464 30.1864L34.4282 36.3568L25.2417 27.6993L27.2738 11.2412L41.1708 12.9558L41.1705 12.9451ZM33.5392 38.4204C33.7403 38.6109 34.0049 38.7062 34.2694 38.7062C34.4494 38.7062 34.6187 38.6638 34.7881 38.5686L39.4239 35.9755L48.2616 47.459L18.3196 43.7653L29.6765 34.7792L33.5392 38.4204ZM23.3257 25.889L20.3411 23.0737L23.8338 21.7931L23.3257 25.8784V25.889ZM18.3725 36.8326H17.6951L18.2137 32.5885H21.1454C21.7275 32.5885 22.2038 32.1122 22.2038 31.5301C22.2038 30.948 21.7275 30.4717 21.1454 30.4717H18.4783L19.1662 24.8728L28.1204 33.3081L17.0393 42.072L17.4309 38.9391H18.3728C18.9549 38.9391 19.4312 38.4629 19.4312 37.8807C19.4312 37.2986 18.9549 36.8223 18.3728 36.8223L18.3725 36.8326ZM49.9021 46.1357L41.2866 34.938L52.0291 28.9263L49.9021 46.1357ZM51.3204 26.8942L47.7431 28.8946L48.2511 24.8092L51.3204 26.8942ZM56.062 11.95C55.0883 14.723 52.4741 16.5858 49.5423 16.5858C49.1295 16.5858 48.7062 16.5435 48.2722 16.4588C45.7532 16.0037 43.6682 14.1198 42.9379 11.6431C42.7474 11.0292 42.6416 10.373 42.6416 9.67452C42.6416 6.32999 45.0124 3.48293 48.3357 2.90079C48.685 2.8267 49.0766 2.78437 49.5422 2.78437C52.1776 2.78437 54.612 4.30845 55.755 6.68983C56.2207 7.61065 56.4535 8.61614 56.4535 9.6851C56.4535 10.4789 56.3265 11.241 56.0619 11.9607L56.062 11.95Z" fill="black"/>
<path d="M52.107 6.71122L48.9 11.4528L46.4022 9.3466C45.9577 8.96558 45.2909 9.02909 44.9099 9.47361C44.5394 9.91814 44.5924 10.5849 45.0369 10.9659L48.4343 13.8236C48.6248 13.9824 48.8683 14.0671 49.1117 14.0671H49.2599C49.5562 14.0247 49.8208 13.8554 49.9902 13.612L53.8533 7.89662C54.1814 7.40976 54.0544 6.75355 53.5675 6.42543C53.0806 6.09731 52.4244 6.22434 52.0963 6.7112L52.107 6.71122Z" fill="black"/>
<path d="M30.0634 18.0911L42.6983 19.653H42.8267C43.3616 19.653 43.8217 19.2572 43.8859 18.7116C43.9608 18.1231 43.5435 17.5882 42.9551 17.524L30.3202 15.9621C29.7425 15.8872 29.1969 16.3044 29.122 16.8929C29.0471 17.4813 29.4643 18.0162 30.0528 18.0804L30.0634 18.0911Z" fill="#C4A053"/>
<path d="M29.5088 22.617L42.1436 24.1789H42.272C42.807 24.1789 43.267 23.7831 43.3312 23.2375C43.4061 22.649 42.9888 22.1141 42.4004 22.0499L29.7655 20.488C29.1771 20.4024 28.6422 20.8303 28.5673 21.4188C28.4924 22.0072 28.9096 22.5421 29.4981 22.6063L29.5088 22.617Z" fill="#C4A053"/>
<path d="M28.9502 27.1531L41.5851 28.7151H41.7134C42.2484 28.7151 42.7084 28.3192 42.7726 27.7736C42.8475 27.1852 42.4303 26.6503 41.8418 26.586L29.2069 25.0241C28.6292 24.9492 28.0836 25.3664 28.0087 25.9549C27.9338 26.5433 28.3511 27.0782 28.9395 27.1424L28.9502 27.1531Z" fill="#C4A053"/>
<path d="M52.0782 6.473L48.8365 11.2659L46.3116 9.13692C45.8623 8.75177 45.1883 8.81596 44.8032 9.2653C44.4287 9.71464 44.4822 10.3886 44.9316 10.7738L48.3658 13.6624C48.5583 13.8229 48.8044 13.9085 49.0505 13.9085H49.2003C49.4998 13.8657 49.7673 13.6945 49.9384 13.4484L53.8434 7.67123C54.175 7.1791 54.0467 6.51579 53.5545 6.18412C53.0624 5.85245 52.3991 5.98084 52.0674 6.47298L52.0782 6.473Z" fill="#C4A053"/>
</svg>
