<svg width="46" height="51" viewBox="0 0 46 51" fill="none" xmlns="http://www.w3.org/2000/svg">
<path d="M40.9273 0H19.2103C18.7509 0 18.375 0.375869 18.375 0.83527C18.375 1.29467 18.7509 1.67054 19.2103 1.67054H37.6113C37.0851 2.37217 36.751 3.23251 36.751 4.17635V14.1996C36.751 14.659 37.1269 15.0349 37.5863 15.0349C38.0457 15.0349 38.4215 14.659 38.4215 14.1996V10.0232H43.4332C44.352 10.0232 45.1037 9.27152 45.1037 8.3527V4.17635C45.1037 1.871 43.2326 0 40.9273 0ZM38.4215 8.3527V4.17635C38.4215 2.79817 39.5491 1.67054 40.9273 1.67054C42.3055 1.67054 43.4331 2.79817 43.4331 4.17635V8.3527H38.4215Z" fill="black"/>
<path d="M37.5872 39.2574C37.1278 39.2574 36.7519 39.6333 36.7519 40.0927V45.9399C36.7519 47.3181 35.6243 48.4457 34.2461 48.4457C33.5862 48.4457 32.9514 48.1868 32.4753 47.719C31.9992 47.2345 31.7403 46.6081 31.7403 45.9399V43.4341C31.7403 42.5152 30.9885 41.7635 30.0697 41.7635H1.67054C0.751716 41.7635 0 42.5152 0 43.4341V45.9399C0 48.2452 1.871 50.1162 4.17635 50.1162H18.3757C18.8351 50.1162 19.2109 49.7404 19.2109 49.281C19.2109 48.8216 18.8351 48.4457 18.3757 48.4457H4.17635C2.79817 48.4457 1.67054 47.3181 1.67054 45.9399V43.4341H30.0697V45.9399C30.0697 46.8503 30.3621 47.719 30.905 48.4457H21.7168C21.2574 48.4457 20.8815 48.8216 20.8815 49.281C20.8815 49.7404 21.2574 50.1162 21.7168 50.1162H34.2461C36.5514 50.1162 38.4224 48.2452 38.4224 45.9399V40.0927C38.4224 39.6333 38.0466 39.2574 37.5872 39.2574Z" fill="black"/>
<path d="M4.17511 40.093C4.63452 40.093 5.01038 39.7171 5.01038 39.2577V4.17635C5.01038 2.79817 6.13801 1.67054 7.51619 1.67054H15.8689C16.3283 1.67054 16.7042 1.29467 16.7042 0.83527C16.7042 0.375869 16.3283 0 15.8689 0H7.51619C5.21085 0 3.33984 1.871 3.33984 4.17635V39.2577C3.33984 39.7171 3.71571 40.093 4.17511 40.093Z" fill="black"/>
<path d="M20.0462 10.8588H32.5755C33.0349 10.8588 33.4108 10.4829 33.4108 10.0235C33.4108 9.5641 33.0349 9.18823 32.5755 9.18823H20.0462C19.5868 9.18823 19.2109 9.5641 19.2109 10.0235C19.2109 10.4829 19.5868 10.8588 20.0462 10.8588Z" fill="black"/>
<path d="M20.0462 14.1998H26.7284C27.1878 14.1998 27.5636 13.824 27.5636 13.3646C27.5636 12.9052 27.1878 12.5293 26.7284 12.5293H20.0462C19.5868 12.5293 19.2109 12.9052 19.2109 13.3646C19.2109 13.824 19.5868 14.1998 20.0462 14.1998Z" fill="black"/>
<path d="M8.35156 21.717C8.35156 22.1764 8.72743 22.5523 9.18683 22.5523H26.7272C27.1866 22.5523 27.5625 22.1764 27.5625 21.717C27.5625 21.2576 27.1866 20.8817 26.7272 20.8817H9.18683C8.72743 20.8817 8.35156 21.2576 8.35156 21.717Z" fill="black"/>
<path d="M26.7272 25.8931H9.18683C8.72743 25.8931 8.35156 26.2689 8.35156 26.7283C8.35156 27.1877 8.72743 27.5636 9.18683 27.5636H26.7272C27.1866 27.5636 27.5625 27.1877 27.5625 26.7283C27.5625 26.2689 27.1866 25.8931 26.7272 25.8931Z" fill="black"/>
<path d="M26.7272 30.9053H9.18683C8.72743 30.9053 8.35156 31.2811 8.35156 31.7405C8.35156 32.1999 8.72743 32.5758 9.18683 32.5758H26.7272C27.1866 32.5758 27.5625 32.1999 27.5625 31.7405C27.5625 31.2811 27.1866 30.9053 26.7272 30.9053Z" fill="black"/>
<path d="M26.7272 35.9164H9.18683C8.72743 35.9164 8.35156 36.2923 8.35156 36.7517C8.35156 37.2111 8.72743 37.5869 9.18683 37.5869H26.7272C27.1866 37.5869 27.5625 37.2111 27.5625 36.7517C27.5625 36.2923 27.1866 35.9164 26.7272 35.9164Z" fill="black"/>
<path d="M11.5058 15.0348C11.0464 15.0348 10.6705 14.659 10.6705 14.1996C10.6705 13.7402 10.2947 13.3643 9.83527 13.3643C9.37587 13.3643 9 13.7402 9 14.1996C9 15.5777 10.1276 16.7054 11.5058 16.7054H12.3411V17.5406C12.3411 18 12.7169 18.3759 13.1764 18.3759C13.6358 18.3759 14.0116 18 14.0116 17.5406V16.7054H14.8469C16.2251 16.7054 17.3527 15.5777 17.3527 14.1996V13.3643C17.3527 11.9861 16.2251 10.8585 14.8469 10.8585H14.0116V8.35268H14.8469C15.3063 8.35268 15.6822 8.72855 15.6822 9.18795C15.6822 9.64735 16.058 10.0232 16.5174 10.0232C16.9768 10.0232 17.3527 9.64735 17.3527 9.18795C17.3527 7.80976 16.2251 6.68214 14.8469 6.68214H14.0116V5.84687C14.0116 5.38747 13.6358 5.0116 13.1764 5.0116C12.7169 5.0116 12.3411 5.38747 12.3411 5.84687V6.68214H11.5058C10.1276 6.68214 9 7.80976 9 9.18795V10.0232C9 11.4014 10.1276 12.529 11.5058 12.529H12.3411V15.0348H11.5058ZM11.5058 10.8585C11.0464 10.8585 10.6705 10.4826 10.6705 10.0232V9.18795C10.6705 8.72855 11.0464 8.35268 11.5058 8.35268H12.3411V10.8585H11.5058ZM14.0116 12.529H14.8469C15.3063 12.529 15.6822 12.9049 15.6822 13.3643V14.1996C15.6822 14.659 15.3063 15.0348 14.8469 15.0348H14.0116V12.529Z" fill="#C4A053"/>
<path d="M43.2459 18.6181C41.6589 17.1897 39.5206 16.5132 37.3741 16.7471C34.0748 17.1146 31.3099 19.7457 30.8005 23.0197C30.433 25.3752 31.1597 27.7056 32.7968 29.4095C33.607 30.2531 34.0497 31.3724 34.0497 32.5668V35.0726C34.0497 36.4508 35.1774 37.5784 36.5556 37.5784H39.8966C41.2748 37.5784 42.4024 36.4508 42.4024 35.0726V32.5668C42.4024 31.364 42.8368 30.2531 43.6303 29.4345C44.9918 28.0229 45.7435 26.1686 45.7435 24.2141C45.7435 22.0758 44.8331 20.0377 43.2377 18.6096L43.2459 18.6181ZM40.7401 35.0813C40.7401 35.5407 40.3642 35.9166 39.9048 35.9166H36.5637C36.1043 35.9166 35.7285 35.5407 35.7285 35.0813V33.4108H40.7401V35.0813ZM42.4357 28.2821C41.5336 29.2176 40.9656 30.4204 40.7902 31.7401H35.67C35.4946 30.4288 34.9267 29.2176 34.0078 28.2571C32.7382 26.929 32.1702 25.1164 32.4543 23.2788C32.8468 20.7396 34.9935 18.6932 37.5578 18.4092C39.245 18.2171 40.8738 18.735 42.1267 19.8626C43.3629 20.9735 44.0729 22.5605 44.0729 24.2227C44.0729 25.7429 43.4882 27.1879 42.4274 28.2821L42.4357 28.2821Z" fill="#C4A053"/>
<path d="M38.2363 21.717C36.8581 21.717 35.7305 22.8447 35.7305 24.2229C35.7305 25.3087 36.4321 26.2275 37.401 26.5783V29.2345C37.401 29.6939 37.7769 30.0697 38.2363 30.0697C38.6957 30.0697 39.0715 29.6939 39.0715 29.2345V26.5783C40.0405 26.2358 40.7421 25.317 40.7421 24.2229C40.7421 22.8447 39.6145 21.717 38.2363 21.717ZM38.2363 25.0581C37.7769 25.0581 37.401 24.6823 37.401 24.2229C37.401 23.7635 37.7769 23.3876 38.2363 23.3876C38.6957 23.3876 39.0715 23.7635 39.0715 24.2229C39.0715 24.6823 38.6957 25.0581 38.2363 25.0581Z" fill="#C4A053"/>
</svg>
