<svg width="48" height="51" viewBox="0 0 48 51" fill="none" xmlns="http://www.w3.org/2000/svg">
<path d="M48 0.116211V39.4828H41.4545V37.2958H45.8182V2.30325H2.18182V37.2958H19.6364V39.4828H0V0.116211H48ZM32.7273 4.49028H15.2727V6.67732H32.7273V4.49028ZM28.3636 11.0514V8.86435H19.6364V11.0514H28.3636ZM13.0909 21.9866H4.36364V24.1736H13.0909V21.9866ZM13.0909 26.3606H4.36364V28.5477H13.0909V26.3606ZM4.36364 32.9217H8.72727V30.7347H4.36364V32.9217Z" fill="black"/>
<path d="M34.2708 26.3606C34.2708 27.2257 34.0148 28.0714 33.5354 28.7907C33.0559 29.51 32.3744 30.0706 31.577 30.4017C30.7797 30.7328 29.9023 30.8194 29.0558 30.6506C28.2094 30.4818 27.4318 30.0653 26.8216 29.4535C26.2113 28.8418 25.7957 28.0624 25.6273 27.2139C25.459 26.3654 25.5454 25.486 25.8757 24.6867C26.2059 23.8875 26.7652 23.2043 27.4828 22.7237C28.2004 22.2431 29.0441 21.9865 29.9071 21.9865C31.0641 21.9877 32.1733 22.4489 32.9914 23.2689C33.8095 24.089 34.2696 25.2009 34.2708 26.3606ZM32.0889 26.3606C32.0889 25.928 31.961 25.5052 31.7212 25.1455C31.4815 24.7859 31.1407 24.5056 30.7421 24.34C30.3434 24.1745 29.9047 24.1312 29.4815 24.2156C29.0582 24.3 28.6695 24.5083 28.3644 24.8141C28.0592 25.12 27.8514 25.5097 27.7672 25.9339C27.683 26.3582 27.7263 26.7979 27.8914 27.1975C28.0565 27.5972 28.3362 27.9387 28.695 28.179C29.0538 28.4194 29.4756 28.5476 29.9071 28.5476C30.4856 28.5471 31.0402 28.3164 31.4493 27.9064C31.8583 27.4964 32.0884 26.9405 32.0889 26.3606ZM32.0933 16.9717C32.1917 17.2492 32.3471 17.5031 32.5493 17.7168C32.7515 17.9306 32.9961 18.0996 33.2674 18.2129C33.5386 18.3262 33.8306 18.3813 34.1244 18.3747C34.4182 18.3681 34.7074 18.2999 34.9733 18.1745C35.408 17.9709 35.8943 17.9052 36.3672 17.9861C36.8401 18.067 37.2772 18.2907 37.6199 18.6272C37.9591 18.9671 38.1853 19.4039 38.2673 19.8776C38.3493 20.3514 38.2832 20.8389 38.078 21.2736C37.9517 21.5403 37.8826 21.8307 37.8751 22.1259C37.8677 22.4211 37.922 22.7145 38.0347 22.9874C38.1473 23.2602 38.3158 23.5064 38.5292 23.7099C38.7426 23.9135 38.9962 24.0699 39.2737 24.1692C39.7246 24.3306 40.1146 24.6279 40.3904 25.0202C40.6662 25.4125 40.8143 25.8807 40.8143 26.3606C40.8143 26.8405 40.6662 27.3087 40.3904 27.701C40.1146 28.0933 39.7246 28.3906 39.2737 28.552C38.9961 28.6508 38.7423 28.8068 38.5287 29.0101C38.315 29.2133 38.1463 29.4593 38.0334 29.732C37.9205 30.0047 37.866 30.2981 37.8733 30.5932C37.8806 30.8884 37.9496 31.1787 38.0759 31.4455C38.2299 31.7621 38.3092 32.1101 38.3076 32.4624C38.306 32.8147 38.2235 33.162 38.0666 33.4772C37.9096 33.7925 37.6824 34.0673 37.4026 34.2804C37.1227 34.4936 36.7976 34.6393 36.4526 34.7063V50.1162L29.9071 44.5655L23.3617 50.1162V34.7063C23.0169 34.6392 22.6922 34.4935 22.4125 34.2805C22.1329 34.0675 21.9058 33.7929 21.7489 33.4779C21.592 33.163 21.5095 32.8161 21.5077 32.464C21.5058 32.112 21.5848 31.7642 21.7384 31.4476C21.865 31.1808 21.9343 30.8903 21.9418 30.5949C21.9493 30.2994 21.8948 30.0058 21.7819 29.7328C21.669 29.4598 21.5002 29.2137 21.2863 29.0103C21.0725 28.8069 20.8184 28.6507 20.5406 28.552C20.0897 28.3906 19.6996 28.0933 19.4238 27.701C19.148 27.3087 19 26.8405 19 26.3606C19 25.8807 19.148 25.4125 19.4238 25.0202C19.6996 24.6279 20.0897 24.3306 20.5406 24.1692C20.8182 24.0702 21.0721 23.9139 21.2857 23.7104C21.4993 23.507 21.6681 23.2608 21.7809 22.988C21.8938 22.7151 21.9483 22.4215 21.941 22.1262C21.9337 21.8309 21.8647 21.5405 21.7384 21.2736C21.5329 20.8392 21.4665 20.3517 21.5481 19.878C21.6297 19.4042 21.8555 18.9674 22.1944 18.6272C22.5372 18.2915 22.9739 18.0685 23.4464 17.988C23.9189 17.9075 24.4046 17.9733 24.8388 18.1767C25.1048 18.3021 25.3942 18.3701 25.6881 18.3766C25.982 18.3831 26.274 18.3278 26.5453 18.2142C26.8166 18.1007 27.0612 17.9315 27.2633 17.7175C27.4654 17.5035 27.6206 17.2494 27.7188 16.9717C27.8794 16.5189 28.1758 16.1272 28.5675 15.8501C28.9591 15.5731 29.4267 15.4243 29.906 15.4243C30.3854 15.4243 30.853 15.5731 31.2446 15.8501C31.6362 16.1272 31.9327 16.5189 32.0933 16.9717ZM34.2708 45.4031V34.3805C33.8062 34.3214 33.3356 34.4253 32.9387 34.6745C32.5419 34.9236 32.2432 35.3026 32.0933 35.7474C31.9323 36.1993 31.6357 36.5903 31.2444 36.8668C30.853 37.1432 30.3859 37.2916 29.9071 37.2916C29.4283 37.2916 28.9613 37.1432 28.5699 36.8668C28.1785 36.5903 27.882 36.1993 27.7209 35.7474C27.5711 35.3026 27.2724 34.9236 26.8755 34.6745C26.4787 34.4253 26.008 34.3214 25.5435 34.3805V45.4009L29.9071 41.7005L34.2708 45.4031ZM30.038 35.0169C30.3349 34.18 30.8829 33.4558 31.6067 32.9436C32.3306 32.4314 33.1949 32.1564 34.0809 32.1562C34.737 32.1633 35.384 32.3102 35.9791 32.5871L36.1057 32.3881C35.8478 31.8451 35.7065 31.2539 35.691 30.6528C35.6755 30.0516 35.7861 29.4539 36.0156 28.8983C36.2451 28.3427 36.5885 27.8416 37.0234 27.4274C37.4584 27.0133 37.9753 26.6953 38.5406 26.494V26.2272C37.9757 26.0254 37.4593 25.707 37.0247 25.2928C36.5901 24.8785 36.247 24.3775 36.0176 23.8221C35.7881 23.2667 35.6774 22.6692 35.6926 22.0682C35.7078 21.4673 35.8485 20.8762 36.1057 20.3331L35.9159 20.1494C35.3741 20.4071 34.7844 20.5481 34.185 20.5631C33.5855 20.5782 32.9895 20.467 32.4356 20.2368C31.8816 20.0065 31.382 19.6624 30.9691 19.2266C30.5561 18.7907 30.2389 18.2729 30.038 17.7065H29.7762C29.5753 18.2729 29.2582 18.7907 28.8452 19.2266C28.4322 19.6624 27.9326 20.0065 27.3787 20.2368C26.8247 20.467 26.2288 20.5782 25.6293 20.5631C25.0298 20.5481 24.4402 20.4071 23.8984 20.1494L23.7086 20.3331C23.9658 20.8762 24.1065 21.4673 24.1217 22.0682C24.1368 22.6692 24.0261 23.2667 23.7967 23.8221C23.5672 24.3775 23.2241 24.8785 22.7896 25.2928C22.355 25.707 21.8386 26.0254 21.2737 26.2272V26.494C21.839 26.6953 22.3559 27.0133 22.7908 27.4274C23.2258 27.8416 23.5691 28.3427 23.7987 28.8983C24.0282 29.4539 24.1388 30.0516 24.1233 30.6528C24.1077 31.2539 23.9665 31.8451 23.7086 32.3881L23.8351 32.5849C24.4304 32.3087 25.0774 32.1626 25.7333 32.1562C26.6194 32.1564 27.4836 32.4314 28.2075 32.9436C28.9314 33.4558 29.4794 34.18 29.7762 35.0169L29.9071 35.1087L30.038 35.0169Z" fill="#C4A053"/>
</svg>
