<svg width="53" height="52" viewBox="0 0 53 52" fill="none" xmlns="http://www.w3.org/2000/svg">
<circle cx="42" cy="41" r="5" fill="#C4A053"/>
<path d="M10.7496 6.36766C10.7496 6.28499 10.766 6.20312 10.7978 6.12675C10.8297 6.05038 10.8764 5.981 10.9352 5.92257C10.9941 5.86414 11.0639 5.81781 11.1408 5.78622C11.2177 5.75464 11.3 5.73842 11.3832 5.7385H34.3711C34.4559 5.73593 34.5403 5.75031 34.6194 5.78079C34.6985 5.81126 34.7707 5.85721 34.8316 5.91592C34.8925 5.97462 34.9409 6.04488 34.9739 6.12253C35.007 6.20018 35.024 6.28363 35.024 6.36795C35.024 6.45226 35.007 6.53572 34.9739 6.61337C34.9409 6.69102 34.8925 6.76128 34.8316 6.81998C34.7707 6.87868 34.6985 6.92464 34.6194 6.95511C34.5403 6.98559 34.4559 6.99997 34.3711 6.9974H11.3832C11.2152 6.9974 11.054 6.93105 10.9352 6.81295C10.8163 6.69485 10.7496 6.53467 10.7496 6.36766ZM11.3832 12.0863H34.3711C34.4559 12.0888 34.5403 12.0744 34.6194 12.044C34.6985 12.0135 34.7707 11.9675 34.8316 11.9088C34.8925 11.8501 34.9409 11.7799 34.9739 11.7022C35.007 11.6246 35.024 11.5411 35.024 11.4568C35.024 11.3725 35.007 11.289 34.9739 11.2114C34.9409 11.1337 34.8925 11.0635 34.8316 11.0048C34.7707 10.9461 34.6985 10.9001 34.6194 10.8696C34.5403 10.8392 34.4559 10.8248 34.3711 10.8274H11.3832C11.2984 10.8248 11.214 10.8392 11.1349 10.8696C11.0558 10.9001 10.9836 10.9461 10.9227 11.0048C10.8618 11.0635 10.8134 11.1337 10.7804 11.2114C10.7473 11.289 10.7303 11.3725 10.7303 11.4568C10.7303 11.5411 10.7473 11.6246 10.7804 11.7022C10.8134 11.7799 10.8618 11.8501 10.9227 11.9088C10.9836 11.9675 11.0558 12.0135 11.1349 12.044C11.214 12.0744 11.2984 12.0888 11.3832 12.0863ZM11.3832 17.178H34.3711C34.5391 17.178 34.7003 17.1117 34.8191 16.9936C34.938 16.8755 35.0047 16.7153 35.0047 16.5483C35.0047 16.3813 34.938 16.2211 34.8191 16.103C34.7003 15.9849 34.5391 15.9186 34.3711 15.9186H11.3832C11.2152 15.9186 11.054 15.9849 10.9352 16.103C10.8163 16.2211 10.7496 16.3813 10.7496 16.5483C10.7496 16.7153 10.8163 16.8755 10.9352 16.9936C11.054 17.1117 11.2152 17.178 11.3832 17.178ZM11.3832 22.2698H34.3711C34.5391 22.2698 34.7003 22.2035 34.8191 22.0854C34.938 21.9673 35.0047 21.8071 35.0047 21.6401C35.0047 21.4731 34.938 21.3129 34.8191 21.1948C34.7003 21.0767 34.5391 21.0103 34.3711 21.0103H11.3832C11.2152 21.0103 11.054 21.0767 10.9352 21.1948C10.8163 21.3129 10.7496 21.4731 10.7496 21.6401C10.7496 21.8071 10.8163 21.9673 10.9352 22.0854C11.054 22.2035 11.2152 22.2698 11.3832 22.2698ZM45.752 36.9974C46.528 37.7686 47.0565 38.7513 47.2707 39.8211C47.4848 40.8909 47.3749 41.9998 46.9549 43.0075C46.5349 44.0152 45.8237 44.8766 44.9111 45.4826C43.9986 46.0885 42.9257 46.412 41.8282 46.412C40.7307 46.412 39.6578 46.0885 38.7453 45.4826C37.8327 44.8766 37.1215 44.0152 36.7015 43.0075C36.2815 41.9998 36.1716 40.8909 36.3857 39.8211C36.5998 38.7513 37.1284 37.7686 37.9044 36.9974C38.946 35.9649 40.3571 35.385 41.8282 35.385C43.2993 35.385 44.7104 35.9649 45.752 36.9974ZM44.8557 37.8876C44.2568 37.2924 43.4939 36.8872 42.6633 36.723C41.8327 36.5588 40.9718 36.6431 40.1894 36.9652C39.407 37.2873 38.7383 37.8327 38.2678 38.5325C37.7974 39.2323 37.5462 40.055 37.5462 40.8967C37.5462 41.7383 37.7974 42.5611 38.2678 43.2609C38.7383 43.9607 39.407 44.5061 40.1894 44.8282C40.9718 45.1503 41.8327 45.2346 42.6633 45.0704C43.4939 44.9062 44.2568 44.5009 44.8557 43.9058C45.2549 43.5116 45.5718 43.0427 45.788 42.5263C46.0042 42.0099 46.1155 41.456 46.1155 40.8967C46.1155 40.3373 46.0042 39.7835 45.788 39.2671C45.5718 38.7506 45.2549 38.2818 44.8557 37.8876ZM43.9723 38.9282L41.3577 41.5302L39.6805 39.8634C39.622 39.8034 39.5521 39.7556 39.4748 39.7227C39.3975 39.6899 39.3144 39.6726 39.2304 39.672C39.1463 39.6713 39.063 39.6873 38.9852 39.719C38.9074 39.7507 38.8367 39.7974 38.7773 39.8565C38.7179 39.9156 38.6709 39.9859 38.6391 40.0632C38.6072 40.1405 38.5912 40.2234 38.5919 40.3069C38.5926 40.3905 38.61 40.473 38.6431 40.5498C38.6762 40.6266 38.7244 40.6961 38.7848 40.7542L40.9095 42.8658C41.0283 42.9838 41.1894 43.05 41.3574 43.05C41.5253 43.05 41.6864 42.9838 41.8052 42.8658L44.8733 39.8183C44.9862 39.6991 45.048 39.5409 45.0455 39.3772C45.043 39.2135 44.9765 39.0572 44.86 38.9414C44.7435 38.8256 44.5862 38.7595 44.4215 38.757C44.2568 38.7546 44.0976 38.8159 43.9776 38.9282H43.9723ZM53 39.4163V42.3777C53.0001 42.5294 52.945 42.676 52.8449 42.7906C52.7448 42.9051 52.6064 42.9798 52.4553 43.001L50.4801 43.2784C50.2862 43.9818 50.0051 44.6584 49.6433 45.2929L50.8423 46.8772C50.934 46.9984 50.9786 47.1486 50.9678 47.2999C50.9569 47.4512 50.8915 47.5935 50.7834 47.7007L48.6764 49.7947C48.5686 49.9021 48.4254 49.9672 48.2731 49.9779C48.1209 49.9887 47.9698 49.9444 47.8478 49.8533L46.2543 48.6622C45.6152 49.022 44.9338 49.3017 44.2256 49.4951L43.9452 51.4586C43.9239 51.6089 43.8487 51.7464 43.7335 51.8458C43.6183 51.9453 43.4707 52.0001 43.3181 52H40.3389C40.1862 52 40.0387 51.9452 39.9233 51.8457C39.808 51.7463 39.7327 51.6089 39.7111 51.4586L39.432 49.4957C38.7244 49.3019 38.0436 49.022 37.405 48.6622L35.8115 49.8533C35.6895 49.9444 35.5385 49.9887 35.3862 49.9779C35.234 49.9672 35.0907 49.9021 34.9829 49.7947L32.8753 47.7007C32.7673 47.5935 32.7018 47.4512 32.691 47.2999C32.6801 47.1486 32.7247 46.9984 32.8164 46.8772L34.0054 45.3064H0.633645C0.601893 45.3062 0.570199 45.3036 0.538833 45.2987H0.522933C0.492791 45.2935 0.463073 45.286 0.434011 45.2765L0.422822 45.2724C0.393898 45.2624 0.365752 45.2502 0.338611 45.2361C0.311972 45.2215 0.286391 45.2051 0.262056 45.187L0.248511 45.1776C0.225295 45.1595 0.203265 45.1399 0.182556 45.1191L0.173133 45.1085C0.153297 45.0862 0.134813 45.0628 0.117778 45.0383L0.113655 45.0324C0.0961178 45.0071 0.0805645 44.9805 0.0671332 44.9529L0.0588888 44.9394C0.0456544 44.9111 0.0348206 44.8817 0.0265 44.8516V44.8481V44.8411C0.0183274 44.8111 0.0122279 44.7806 0.00824441 44.7498V44.7445C0.00430102 44.7222 0.00154904 44.6998 5.47197e-10 44.6772V17.5631C-4.50086e-06 17.4555 0.0277636 17.3496 0.0806523 17.2557C0.133541 17.1617 0.209784 17.0828 0.3021 17.0265L4.26709 14.6099V0.629157C4.26709 0.546486 4.28348 0.464625 4.31533 0.388254C4.34718 0.311883 4.39387 0.242499 4.45271 0.184069C4.51156 0.125639 4.58142 0.0793074 4.65829 0.0477238C4.73517 0.0161401 4.81755 -7.66314e-05 4.90073 2.72243e-07H40.8524C40.9356 -7.66314e-05 41.018 0.0161401 41.0948 0.0477238C41.1717 0.0793074 41.2416 0.125639 41.3004 0.184069C41.3593 0.242499 41.4059 0.311883 41.4378 0.388254C41.4697 0.464625 41.486 0.546486 41.486 0.629157V14.6099L45.451 17.0265C45.5434 17.0828 45.6196 17.1617 45.6725 17.2557C45.7254 17.3496 45.7531 17.4555 45.7531 17.5631V32.8724C45.9216 32.9536 46.0874 33.0402 46.2507 33.1323L47.8449 31.9407C47.967 31.8498 48.1179 31.8057 48.2701 31.8164C48.4223 31.8272 48.5655 31.8921 48.6734 31.9992L50.7805 34.0939C50.8885 34.201 50.954 34.3434 50.9648 34.4947C50.9756 34.646 50.9311 34.7961 50.8394 34.9174L49.6433 36.5005C50.0054 37.135 50.2871 37.8116 50.4819 38.515L52.4576 38.7924C52.6084 38.8142 52.7462 38.8893 52.8458 39.0038C52.9454 39.1184 53.0002 39.2648 53 39.4163ZM44.487 32.375V23.3292L27.8963 33.4407L33.748 37.0073C33.8317 36.8356 33.9208 36.6667 34.0154 36.5005L32.8164 34.9168C32.7247 34.7955 32.6801 34.6454 32.691 34.4941C32.7018 34.3428 32.7673 34.2004 32.8753 34.0933L34.98 31.9986C35.0878 31.8913 35.231 31.8262 35.3833 31.8154C35.5355 31.8047 35.6866 31.849 35.8086 31.9401L37.4021 33.1317C38.0406 32.772 38.7214 32.492 39.4291 32.2983L39.7082 30.3347C39.7299 30.1846 39.8052 30.0472 39.9205 29.9478C40.0358 29.8483 40.1833 29.7935 40.3359 29.7934H43.3157C43.4683 29.7934 43.6158 29.8482 43.731 29.9477C43.8462 30.0471 43.9215 30.1846 43.9429 30.3347L44.222 32.2983C44.3127 32.3205 44.4022 32.348 44.487 32.375ZM41.4866 16.0871V23.6803L44.487 21.8519V17.9155L41.4866 16.0871ZM5.53556 1.2589V24.4529L22.8783 35.0227L40.2211 24.4529V1.2589H5.53556ZM1.26729 43.5523L17.8581 33.4407L1.26729 23.3292V43.5523ZM1.26729 17.9178V21.8543L4.27062 23.6827V16.0871L1.26729 17.9178ZM2.87849 44.0498H33.4289C33.3335 43.7981 33.2495 43.5418 33.1768 43.2808L31.2011 43.0033C31.05 42.9821 30.9117 42.9073 30.8116 42.7928C30.7116 42.6783 30.6564 42.5317 30.6564 42.38V39.4186C30.6564 39.2669 30.7116 39.1204 30.8116 39.0059C30.9117 38.8914 31.05 38.8166 31.2011 38.7953L33.1768 38.5173C33.2069 38.4096 33.2392 38.3031 33.2728 38.1972L26.6843 34.1793L23.2099 36.298C23.1103 36.3588 22.9958 36.391 22.8789 36.391C22.7621 36.391 22.6475 36.3588 22.548 36.298L19.0735 34.1793L2.87849 44.0498ZM51.7327 39.9652L49.8789 39.7025C49.7513 39.6845 49.6322 39.6283 49.5375 39.5415C49.4429 39.4546 49.3771 39.3411 49.3489 39.2161C49.1567 38.3584 48.8162 37.5403 48.3425 36.7984C48.2734 36.6903 48.2391 36.5639 48.2443 36.436C48.2494 36.3081 48.2938 36.1848 48.3713 36.0826L49.4955 34.5966L48.1664 33.2757L46.6718 34.3935C46.5688 34.4704 46.4448 34.5143 46.3161 34.5193C46.1874 34.5243 46.0603 34.4902 45.9516 34.4216C45.205 33.9508 44.3819 33.6122 43.5189 33.4208C43.3932 33.3929 43.279 33.3275 43.1917 33.2334C43.1043 33.1393 43.048 33.0209 43.0301 32.8941L42.7681 31.0529H40.8883L40.6263 32.8941C40.6083 33.0209 40.5519 33.1392 40.4646 33.2333C40.3773 33.3274 40.2632 33.3928 40.1375 33.4208C39.2741 33.6121 38.4506 33.9507 37.7036 34.4216C37.5949 34.4902 37.4678 34.5243 37.3391 34.5193C37.2104 34.5143 37.0864 34.4704 36.9834 34.3935L35.4888 33.2757L34.1597 34.5966L35.2845 36.082C35.3618 36.1843 35.4059 36.3077 35.411 36.4355C35.416 36.5634 35.3817 36.6898 35.3127 36.7978C34.8392 37.5401 34.4987 38.3583 34.3063 39.2161C34.2781 39.3411 34.2123 39.4546 34.1177 39.5415C34.023 39.6283 33.9039 39.6845 33.7763 39.7025L31.9225 39.9629V41.8311L33.7763 42.0915C33.9039 42.1093 34.023 42.1653 34.1177 42.2521C34.2124 42.3389 34.2782 42.4523 34.3063 42.5773C34.4988 43.4352 34.8395 44.2534 35.3133 44.9956C35.3823 45.1037 35.4164 45.2301 35.4113 45.3579C35.4061 45.4858 35.3619 45.6091 35.2845 45.7114L34.1597 47.1968L35.4888 48.5177L36.9822 47.4004C37.0851 47.3235 37.2092 47.2795 37.3378 47.2744C37.4665 47.2693 37.5937 47.3032 37.7024 47.3717C38.4493 47.8429 39.2728 48.1815 40.1363 48.3725C40.262 48.4006 40.3761 48.466 40.4634 48.5601C40.5508 48.6542 40.6071 48.7725 40.6251 48.8993L40.8871 50.7405H42.7669L43.0289 48.8993C43.0468 48.7725 43.1032 48.6541 43.1905 48.56C43.2778 48.4659 43.392 48.4005 43.5177 48.3725C44.381 48.1815 45.2043 47.8429 45.951 47.3717C46.0598 47.3032 46.1869 47.2693 46.3156 47.2744C46.4443 47.2795 46.5683 47.3235 46.6712 47.4004L48.1658 48.5177L49.4949 47.1968L48.3719 45.7114C48.2945 45.6091 48.2503 45.4858 48.2451 45.3579C48.24 45.2301 48.2741 45.1037 48.3431 44.9956C48.8171 44.2535 49.1579 43.4352 49.3501 42.5773C49.3782 42.4523 49.444 42.3389 49.5387 42.2521C49.6334 42.1653 49.7525 42.1093 49.8801 42.0915L51.7333 41.8311L51.7327 39.9652Z" fill="black"/>
</svg>
