<svg width="52" height="49" viewBox="0 0 52 49" fill="none" xmlns="http://www.w3.org/2000/svg">
<circle cx="14" cy="12" r="2" fill="#C4A053"/>
<path d="M22.3685 39.7793C22.3685 40.2434 21.9928 40.6199 21.5297 40.6199H5.83883C5.37567 40.6199 5 40.2434 5 39.7793C5 39.3152 5.37567 38.9388 5.83883 38.9388H21.5297C21.9928 38.9388 22.3685 39.3152 22.3685 39.7793ZM24.4404 33.8235C24.4404 34.2876 24.0647 34.664 23.6016 34.664H5.83883C5.37567 34.664 5 34.2876 5 33.8235C5 33.3594 5.37567 32.9829 5.83883 32.9829H23.6016C24.0647 32.9835 24.4404 33.3594 24.4404 33.8235ZM28.6639 27.8682C28.6639 28.3323 28.2882 28.7088 27.825 28.7088H5.83883C5.37567 28.7088 5 28.3323 5 27.8682C5 27.4041 5.37567 27.0277 5.83883 27.0277H27.825C28.2888 27.0277 28.6639 27.4035 28.6639 27.8682ZM24.9269 21.913C24.9269 21.4489 25.3026 21.0724 25.7657 21.0724H31.5698C32.033 21.0724 32.4086 21.4489 32.4086 21.913C32.4086 22.3771 32.033 22.7535 31.5698 22.7535H25.7651C25.302 22.7529 24.9269 22.3771 24.9269 21.913ZM24.9269 15.5009C24.9269 15.0368 25.3026 14.6603 25.7657 14.6603H31.5698C32.033 14.6603 32.4086 15.0368 32.4086 15.5009C32.4086 15.9649 32.033 16.3414 31.5698 16.3414H25.7651C25.302 16.3408 24.9269 15.9649 24.9269 15.5009ZM24.9269 9.54501C24.9269 9.08091 25.3026 8.70447 25.7657 8.70447H31.5698C32.033 8.70447 32.4086 9.08091 32.4086 9.54501C32.4086 10.0091 32.033 10.3856 31.5698 10.3856H25.7651C25.302 10.3856 24.9269 10.0097 24.9269 9.54501Z" fill="#C4A053"/>
<path d="M13.8322 15.4179C15.4841 15.4179 16.828 14.0713 16.828 12.416C16.828 10.7607 15.4841 9.41407 13.8322 9.41407C12.1803 9.41407 10.8364 10.7607 10.8364 12.416C10.8364 14.0713 12.1803 15.4179 13.8322 15.4179ZM13.8322 11.0946C14.5596 11.0946 15.151 11.6871 15.151 12.416C15.151 13.1443 14.5596 13.7369 13.8322 13.7369C13.1055 13.7369 12.5141 13.1443 12.5141 12.416C12.5135 11.6871 13.1049 11.0946 13.8322 11.0946ZM7.26243 22.7529H20.4626C21.3853 22.7529 22.1354 22.0012 22.1354 21.0766V7.85006C22.1354 6.92547 21.3853 6.17378 20.4626 6.17378H7.26243C6.33972 6.17378 5.58958 6.92547 5.58958 7.85006V21.0772C5.58958 22.0012 6.33972 22.7529 7.26243 22.7529ZM8.79149 21.0766C9.67046 19.0983 11.6549 17.7709 13.861 17.7709C16.0659 17.7709 18.0491 19.0971 18.9293 21.073L8.79149 21.0766ZM20.4578 7.85006L20.462 20.394C19.317 17.8189 16.7334 16.0904 13.861 16.0904C10.9946 16.0904 8.41522 17.8117 7.26663 20.3789V7.85487L20.4578 7.85006ZM52 18.7255C52 18.056 51.7412 17.428 51.2708 16.9567L48.6788 14.3595C47.7052 13.3844 46.1222 13.3844 45.1486 14.3595L37.6914 21.8319V2.35532C37.6914 1.05668 36.6369 0 35.3409 0H2.35051C1.05452 0 0 1.05668 0 2.35532V46.6447C0 47.9433 1.05452 49 2.35051 49H35.3409C36.6369 49 37.6914 47.9433 37.6914 46.6447V34.1014L51.2708 20.4942C51.7412 20.0229 52 19.3949 52 18.7255ZM34.2301 35.1923C33.8179 34.398 33.2888 33.6709 32.6441 33.0249C31.9988 32.3783 31.2732 31.8487 30.4805 31.4357L43.3984 18.4913L47.148 22.2485L34.2301 35.1923ZM29.465 32.8028C30.2019 33.1516 30.87 33.6241 31.4578 34.2137C32.0455 34.8026 32.5177 35.4721 32.8658 36.2106L27.2367 38.444L29.465 32.8028ZM36.0144 46.6447C36.0144 47.0169 35.7124 47.3195 35.3415 47.3195H2.35051C1.97903 47.3195 1.67705 47.0169 1.67705 46.6447V2.35532C1.67705 1.98308 1.97903 1.68048 2.35051 1.68048H35.3409C35.7118 1.68048 36.0138 1.98308 36.0138 2.35532V23.513L28.4224 31.1199L28.3835 31.1589C28.3026 31.2399 28.2391 31.3372 28.1971 31.4441L24.9623 39.6316C24.8394 39.9432 24.9125 40.2986 25.1486 40.5351C25.3092 40.6954 25.5237 40.7813 25.7418 40.7813C25.8454 40.7813 25.9503 40.7621 26.0503 40.7225L34.2211 37.481C34.3277 37.4389 34.4242 37.3747 34.5057 37.2943L34.5446 37.2552L36.0138 35.7831L36.0144 46.6447ZM50.0845 19.3055L48.3337 21.0598L44.5842 17.3026L46.3349 15.5482C46.6543 15.2282 47.1732 15.2282 47.4925 15.5482L50.0845 18.1455C50.2379 18.2992 50.3223 18.5051 50.3223 18.7255C50.3223 18.9458 50.2385 19.1518 50.0845 19.3055Z" fill="black"/>
</svg>
