<svg width="50" height="50" viewBox="0 0 50 50" fill="none" xmlns="http://www.w3.org/2000/svg">
<path d="M12 37.5L11.5 46L14 44L17 49L19 48.5L19.5 47.5L16.5 42.5L19.5 41L12 37.5Z" fill="#C4A053"/>
<path d="M3.00196 16.8224V10.6907C3.00196 10.3672 3.2647 10.1044 3.58825 10.1044H6.90197C7.2255 10.1044 7.48826 10.3671 7.48826 10.6907C7.48826 11.0142 7.22552 11.277 6.90197 11.277L4.17257 11.2751V16.236H9.13333V14.5301C9.13333 14.2066 9.39608 13.9438 9.71962 13.9438C10.0432 13.9438 10.3059 14.2065 10.3059 14.5301V16.8223C10.3059 17.1459 10.0432 17.4087 9.71962 17.4087L3.58619 17.4067C3.26462 17.4067 3.00196 17.146 3.00196 16.8224ZM10.8862 10.885L7.47054 14.8969C7.36074 15.0263 7.20192 15.1008 7.03133 15.1028H7.02349C6.85682 15.1028 6.698 15.0322 6.58819 14.9087L5.51762 13.7125C5.30193 13.4714 5.32154 13.1007 5.56271 12.8851C5.80389 12.6694 6.1745 12.689 6.39014 12.9302L7.01368 13.6263L9.99405 10.1261C10.2039 9.87904 10.5725 9.84963 10.8195 10.0594C11.0666 10.2693 11.096 10.6379 10.8862 10.885ZM10.304 31.9014V34.1956C10.304 34.5192 10.0413 34.782 9.71771 34.782H3.58629C3.26276 34.782 3 34.5192 3 34.1956V28.0639C3 27.7404 3.26275 27.4776 3.58629 27.4776H6.90002C7.22354 27.4776 7.4863 27.7404 7.4863 28.0639C7.4863 28.3875 7.22356 28.6503 6.90002 28.6503H4.17257V33.6112H9.13333V31.9014C9.13333 31.5779 9.39608 31.3151 9.71962 31.3151C10.0412 31.3151 10.304 31.5779 10.304 31.9014ZM10.8864 28.2562L7.47069 32.2701C7.36089 32.3995 7.20207 32.474 7.03148 32.476H7.02364C6.85697 32.476 6.69815 32.4054 6.58834 32.2819L5.51777 31.0857C5.30208 30.8446 5.32169 30.4739 5.56286 30.2583C5.80404 30.0426 6.17465 30.0622 6.39029 30.3034L7.01383 30.9995L9.9942 27.4954C10.204 27.2483 10.5726 27.2189 10.8197 27.4287C11.0667 27.6405 11.0962 28.0091 10.8864 28.2562Z" fill="#C4A053"/>
<path d="M47.3488 0H2.65094C1.18819 0 0 1.18829 0 2.65106V41.1585C0 42.6194 1.18824 43.8096 2.65094 43.8096H10.6923L10.4707 46.7234C10.4511 46.9705 10.5904 47.2019 10.8158 47.3018C11.0413 47.4018 11.306 47.3509 11.4766 47.1744L13.8492 44.7116L16.6943 49.7059C16.7708 49.8412 16.9002 49.9412 17.0492 49.9804C17.1002 49.9941 17.1511 50 17.2021 50C17.3041 50 17.406 49.9725 17.4943 49.9216L19.9002 48.5313C20.1786 48.3705 20.2747 48.0137 20.1159 47.7352L17.8806 43.8076H47.3491C48.8099 43.8076 50 42.6194 50 41.1566V2.65115C50 1.18833 48.8116 0 47.3488 0ZM2.65094 1.17062H47.3488C48.1645 1.17062 48.8292 1.83338 48.8292 2.65106V5.67861H1.17077V2.65106C1.17077 1.83534 1.83526 1.17062 2.65094 1.17062ZM17.4196 48.6158L14.4784 43.4529C14.3862 43.2922 14.2254 43.1843 14.0431 43.1627C14.0196 43.1588 13.9941 43.1588 13.9706 43.1588C13.8117 43.1588 13.6607 43.2235 13.549 43.3373L11.7627 45.1922L12.3019 38.0741L18.735 41.1664L16.237 41.7861C16.0585 41.8292 15.9115 41.9547 15.8389 42.1234C15.7664 42.292 15.7782 42.4842 15.8683 42.643L18.8115 47.8119L17.4196 48.6158ZM47.3488 42.6392H17.655L20.5962 41.9098C20.8354 41.851 21.0118 41.6471 21.0373 41.402C21.0628 41.1569 20.9315 40.9215 20.7079 40.8137L12.0356 36.6449C11.8611 36.5606 11.6572 36.5684 11.4886 36.6645C11.3219 36.7606 11.2121 36.9351 11.1984 37.1273L10.7807 42.6375L2.6515 42.6395C1.83582 42.6395 1.17112 41.9767 1.17112 41.159V6.84965H48.8296V41.159C48.8296 41.9747 48.1645 42.6392 47.3488 42.6392ZM4.71349 3.42401C4.71349 2.96909 5.08211 2.60242 5.53896 2.60242C5.99386 2.60242 6.36052 2.97106 6.36052 3.42401C6.36052 3.88089 5.99189 4.24952 5.53896 4.24952C5.08014 4.24756 4.71349 3.88087 4.71349 3.42401ZM8.45268 3.42401C8.45268 2.96909 8.82327 2.60242 9.27815 2.60242C9.73304 2.60242 10.1036 2.97106 10.1036 3.42401C10.1036 3.88089 9.73304 4.24952 9.27815 4.24952C8.82325 4.24756 8.45268 3.88087 8.45268 3.42401ZM12.1919 3.42401C12.1919 2.96909 12.5625 2.60242 13.0173 2.60242C13.4722 2.60242 13.8428 2.97106 13.8428 3.42401C13.8428 3.88089 13.4722 4.24952 13.0173 4.24952C12.5624 4.24756 12.1919 3.88087 12.1919 3.42401ZM44.6977 11.393C44.6977 11.7165 44.435 11.9793 44.1114 11.9793H14.0587C13.7351 11.9793 13.4724 11.7165 13.4724 11.393C13.4724 11.0694 13.7351 10.8066 14.0587 10.8066H44.1134C44.4369 10.8086 44.6977 11.0694 44.6977 11.393ZM44.6977 13.6636C44.6977 13.9872 44.435 14.2499 44.1114 14.2499H14.0587C13.7351 14.2499 13.4724 13.9872 13.4724 13.6636C13.4724 13.3401 13.7351 13.0773 14.0587 13.0773H44.1134C44.4369 13.0773 44.6977 13.3401 44.6977 13.6636ZM13.4724 15.9343C13.4724 15.6107 13.7351 15.348 14.0587 15.348H29.0843C29.4078 15.348 29.6706 15.6107 29.6706 15.9343C29.6706 16.2578 29.4078 16.5206 29.0843 16.5206L14.0587 16.5186C13.7351 16.5186 13.4724 16.2578 13.4724 15.9343ZM2.95684 25.5091V19.3774C2.95684 19.0538 3.21958 18.791 3.54312 18.791H6.85685C7.18038 18.791 7.44314 19.0538 7.44314 19.3774C7.44314 19.7009 7.1804 19.9637 6.85685 19.9637L4.12745 19.9617V24.9227H9.08821V23.2128C9.08821 22.8893 9.35096 22.6265 9.6745 22.6265C9.99804 22.6265 10.2608 22.8893 10.2608 23.2128V25.507C10.2608 25.8306 9.99804 26.0934 9.6745 26.0934L3.54107 26.0953C3.2195 26.0953 2.95684 25.8326 2.95684 25.5091ZM10.8411 19.5676L7.42542 23.5815C7.31562 23.7109 7.15679 23.7854 6.98621 23.7874H6.97837C6.8117 23.7874 6.65288 23.7168 6.54307 23.5933L5.47249 22.3971C5.25681 22.156 5.27642 21.7853 5.51759 21.5697C5.75877 21.354 6.12938 21.3736 6.34502 21.6148L6.96855 22.3109L9.94893 18.8068C10.1587 18.5597 10.5273 18.5303 10.7744 18.7401C11.0215 18.9519 11.0509 19.3225 10.8411 19.5676ZM44.6977 20.0774C44.6977 20.401 44.435 20.6637 44.1114 20.6637H14.0587C13.7351 20.6637 13.4724 20.401 13.4724 20.0774C13.4724 19.7539 13.7351 19.4911 14.0587 19.4911H44.1134C44.4369 19.4911 44.6977 19.7539 44.6977 20.0774ZM44.6977 22.35C44.6977 22.6736 44.435 22.9363 44.1114 22.9363H14.0587C13.7351 22.9363 13.4724 22.6736 13.4724 22.35C13.4724 22.0265 13.7351 21.7637 14.0587 21.7637H44.1134C44.4369 21.7657 44.6977 22.0265 44.6977 22.35ZM13.4724 24.6207C13.4724 24.2972 13.7351 24.0344 14.0587 24.0344H29.0843C29.4078 24.0344 29.6706 24.2971 29.6706 24.6207C29.6706 24.9442 29.4078 25.207 29.0843 25.207L14.0587 25.205C13.7351 25.205 13.4724 24.9443 13.4724 24.6207ZM44.6977 28.764C44.6977 29.0876 44.4349 29.3504 44.1114 29.3504H14.0586C13.7351 29.3504 13.4723 29.0876 13.4723 28.764C13.4723 28.4405 13.7351 28.1777 14.0586 28.1777H44.1134C44.4369 28.1797 44.6977 28.4405 44.6977 28.764ZM44.6977 31.0347C44.6977 31.3582 44.4349 31.621 44.1114 31.621H14.0586C13.7351 31.621 13.4723 31.3583 13.4723 31.0347C13.4723 30.7111 13.7351 30.4484 14.0586 30.4484H44.1134C44.4369 30.4484 44.6977 30.7111 44.6977 31.0347ZM29.67 33.3073C29.67 33.6309 29.4073 33.8936 29.0837 33.8936H14.0581C13.7346 33.8936 13.4718 33.6309 13.4718 33.3073C13.4718 32.9838 13.7346 32.721 14.0581 32.721H29.0837C29.4073 32.723 29.67 32.9838 29.67 33.3073Z" fill="black"/>
</svg>
